<?xml version="1.0" encoding="UTF-8"?>
<svg version="1.1" xmlns="http://www.w3.org/2000/svg" width="140" height="175">
<path d="M0 0 C46.2 0 92.4 0 140 0 C140 57.75 140 115.5 140 175 C93.8 175 47.6 175 0 175 C0 117.25 0 59.5 0 0 Z " fill="#FEFEFE" transform="translate(0,0)"/>
<path d="M0 0 C0.76231934 0.0616333 1.52463867 0.1232666 2.31005859 0.18676758 C7.08992668 0.69901029 10.02066106 1.60362294 13.4375 5.25 C14.71091481 8.2875602 14.60232066 11.41713853 14.625 14.6875 C14.63917969 15.61433594 14.65335937 16.54117188 14.66796875 17.49609375 C14.42146514 20.44160293 13.5549206 22.53374044 12.4375 25.25 C12.22668149 29.14459074 12.22668149 29.14459074 13.4375 32.25 C13.97808494 38.87216553 13.59794854 43.34133534 10.4375 49.25 C10.72991674 52.0133037 10.72991674 52.0133037 11.4375 55.25 C12.1575489 69.00672372 12.1575489 69.00672372 9.4375 73.25 C2.23941687 77.18896311 -5.93078922 76.63070167 -13.875 76.5 C-15.11701172 76.49484375 -16.35902344 76.4896875 -17.63867188 76.484375 C-24.46765958 76.42707883 -31.14691063 76.09969542 -37.92285156 75.22802734 C-41.98372086 75.26183036 -44.89667853 76.95665975 -48.30859375 79.0234375 C-54.31673485 82.29303248 -61.94016816 82.02038312 -68.5625 81.25 C-76.06508811 78.76687391 -82.30751744 75.01638204 -86.5625 68.25 C-87.8125 65.75 -87.8125 65.75 -88.5625 63.25 C-88.93375 62.239375 -89.305 61.22875 -89.6875 60.1875 C-92.59830189 49.60696613 -90.20700155 38.89627245 -85.5625 29.25 C-80.48755873 20.96092926 -74.97851014 14.43442325 -65.5625 11.25 C-58.9497256 10.6373724 -52.8081628 10.97884989 -46.5625 13.25 C-46.45292969 12.63511719 -46.34335937 12.02023438 -46.23046875 11.38671875 C-45.99263672 10.17435547 -45.99263672 10.17435547 -45.75 8.9375 C-45.59917969 8.13699219 -45.44835938 7.33648437 -45.29296875 6.51171875 C-44.47509229 3.97936328 -43.60235393 2.91990561 -41.5625 1.25 C-38.61581294 -0.22334353 -35.55161051 -0.1297017 -32.3125 -0.3125 C-31.59304199 -0.3535083 -30.87358398 -0.3945166 -30.13232422 -0.43676758 C-20.02616958 -0.97399768 -10.08027763 -0.94903118 0 0 Z " fill="#090E20" transform="translate(103.5625,60.75)"/>
<path d="M0 0 C0.76231934 0.0616333 1.52463867 0.1232666 2.31005859 0.18676758 C7.08992668 0.69901029 10.02066106 1.60362294 13.4375 5.25 C14.71091481 8.2875602 14.60232066 11.41713853 14.625 14.6875 C14.63917969 15.61433594 14.65335937 16.54117188 14.66796875 17.49609375 C14.42146514 20.44160293 13.5549206 22.53374044 12.4375 25.25 C12.22668149 29.14459074 12.22668149 29.14459074 13.4375 32.25 C13.97808494 38.87216553 13.59794854 43.34133534 10.4375 49.25 C10.72991674 52.0133037 10.72991674 52.0133037 11.4375 55.25 C11.76595663 61.52525041 12.03900897 67.39660481 9.4375 73.25 C7.7875 73.58 6.1375 73.91 4.4375 74.25 C4.4375 71.58333333 4.4375 68.91666667 4.4375 66.25 C2.9525 66.745 2.9525 66.745 1.4375 67.25 C1.4375 63.95 1.4375 60.65 1.4375 57.25 C2.0975 57.25 2.7575 57.25 3.4375 57.25 C3.4375 55.93 3.4375 54.61 3.4375 53.25 C4.7575 52.92 6.0775 52.59 7.4375 52.25 C7.4375 51.59 7.4375 50.93 7.4375 50.25 C4.4675 50.25 1.4975 50.25 -1.5625 50.25 C-1.2325 48.93 -0.9025 47.61 -0.5625 46.25 C-1.2225 46.25 -1.8825 46.25 -2.5625 46.25 C-2.5625 47.24 -2.5625 48.23 -2.5625 49.25 C-4.0475 48.755 -4.0475 48.755 -5.5625 48.25 C-4.91705571 44.76460083 -3.46115603 42.22180943 -1.5625 39.25 C-1.0675 41.23 -1.0675 41.23 -0.5625 43.25 C1.0208253 42.0011573 1.0208253 42.0011573 2.4375 40.25 C2.4375 38.93 2.4375 37.61 2.4375 36.25 C3.0975 36.25 3.7575 36.25 4.4375 36.25 C4.4375 35.26 4.4375 34.27 4.4375 33.25 C3.1175 33.25 1.7975 33.25 0.4375 33.25 C0.4375 31.93 0.4375 30.61 0.4375 29.25 C3.14629335 27.89560332 5.44683268 28.18498549 8.4375 28.25 C8.7675 27.59 9.0975 26.93 9.4375 26.25 C7.7875 25.92 6.1375 25.59 4.4375 25.25 C4.7675 23.27 5.0975 21.29 5.4375 19.25 C6.076875 19.146875 6.71625 19.04375 7.375 18.9375 C8.055625 18.710625 8.73625 18.48375 9.4375 18.25 C9.9325 16.765 9.9325 16.765 10.4375 15.25 C8.9525 15.745 8.9525 15.745 7.4375 16.25 C6.4048198 13.46176345 6.39240707 12.3822726 7.375 9.5 C7.725625 8.7575 8.07625 8.015 8.4375 7.25 C7.32375 7.311875 6.21 7.37375 5.0625 7.4375 C3.86625 7.375625 2.67 7.31375 1.4375 7.25 C0.4475 5.765 0.4475 5.765 -0.5625 4.25 C-3.4295435 3.66403491 -6.10107044 3.26875554 -9 3 C-9.80808105 2.9170166 -10.61616211 2.8340332 -11.44873047 2.74853516 C-17.58580379 2.18371367 -23.46360587 2.25590712 -29.5625 3.25 C-29.665625 3.8275 -29.76875 4.405 -29.875 5 C-30.5625 7.25 -30.5625 7.25 -33.5625 11.25 C-27.6225 12.24 -27.6225 12.24 -21.5625 13.25 C-21.5625 13.58 -21.5625 13.91 -21.5625 14.25 C-27.1725 14.25 -32.7825 14.25 -38.5625 14.25 C-37.02937233 18.56608796 -37.02937233 18.56608796 -34.5625 22.25 C-34.42134839 24.92058851 -34.52002893 27.57432238 -34.5625 30.25 C-35.5525 30.745 -35.5525 30.745 -36.5625 31.25 C-36.5625 30.59 -36.5625 29.93 -36.5625 29.25 C-38.8725 29.25 -41.1825 29.25 -43.5625 29.25 C-43.0675 30.735 -43.0675 30.735 -42.5625 32.25 C-41.31684193 46.44233375 -45.43373135 57.88913695 -54.375 68.75 C-55.096875 69.575 -55.81875 70.4 -56.5625 71.25 C-58.0475 70.755 -58.0475 70.755 -59.5625 70.25 C-58.89154297 69.66605469 -58.89154297 69.66605469 -58.20703125 69.0703125 C-51.35072353 62.72566954 -47.71922231 55.26902056 -45.5625 46.25 C-46.2225 46.25 -46.8825 46.25 -47.5625 46.25 C-47.60375 47.19875 -47.645 48.1475 -47.6875 49.125 C-48.86890157 57.11969004 -54.35900249 63.98551067 -60.47265625 68.97265625 C-63.90874432 71.07284466 -66.55202822 71.25 -70.5625 71.25 C-71.5525 70.92 -72.5425 70.59 -73.5625 70.25 C-73.5625 69.59 -73.5625 68.93 -73.5625 68.25 C-74.5525 68.25 -75.5425 68.25 -76.5625 68.25 C-76.5625 67.59 -76.5625 66.93 -76.5625 66.25 C-73.9225 66.25 -71.2825 66.25 -68.5625 66.25 C-67.9025 62.62 -67.2425 58.99 -66.5625 55.25 C-70.5709034 57.2542017 -71.97659657 58.74055963 -74.5625 62.25 C-75.8825 61.59 -77.2025 60.93 -78.5625 60.25 C-78.2325 59.21875 -77.9025 58.1875 -77.5625 57.125 C-76.61498253 53.70148799 -76.00774778 50.81626425 -76.5625 47.25 C-78.94092577 44.84593616 -78.94092577 44.84593616 -81.5625 43.25 C-80.6875 38.375 -80.6875 38.375 -79.5625 37.25 C-77.8609375 37.0953125 -77.8609375 37.0953125 -76.125 36.9375 C-72.59186303 36.64031989 -72.59186303 36.64031989 -71.125 34.5625 C-70.43144409 32.14039746 -70.43144409 32.14039746 -70.625 29.125 C-70.604375 28.17625 -70.58375 27.2275 -70.5625 26.25 C-67.5625 24.25 -67.5625 24.25 -63.5625 24.25 C-63.5625 27.22 -63.5625 30.19 -63.5625 33.25 C-59.89019295 30.17000054 -58.99447635 28.0017398 -58.5625 23.25 C-65.5101491 21.77040806 -69.55339818 22.53213844 -75.5625 26.25 C-76.2225 26.58 -76.8825 26.91 -77.5625 27.25 C-77.4375 25.5 -77.4375 25.5 -76.5625 23.25 C-70.68275527 18.67686521 -65.84919227 17.6079349 -58.5625 18.25 C-56.0625 19.25 -56.0625 19.25 -54.5625 20.25 C-54.5625 19.59 -54.5625 18.93 -54.5625 18.25 C-55.2225 18.25 -55.8825 18.25 -56.5625 18.25 C-56.5625 16.93 -56.5625 15.61 -56.5625 14.25 C-60.5225 14.25 -64.4825 14.25 -68.5625 14.25 C-68.5625 14.91 -68.5625 15.57 -68.5625 16.25 C-70.5425 16.58 -72.5225 16.91 -74.5625 17.25 C-71.01850527 13.31222807 -68.02398131 11.47803914 -62.6953125 10.984375 C-56.92980454 11.01432569 -51.99781235 11.27352278 -46.5625 13.25 C-46.45292969 12.63511719 -46.34335937 12.02023438 -46.23046875 11.38671875 C-45.99263672 10.17435547 -45.99263672 10.17435547 -45.75 8.9375 C-45.59917969 8.13699219 -45.44835938 7.33648437 -45.29296875 6.51171875 C-44.47509229 3.97936328 -43.60235393 2.91990561 -41.5625 1.25 C-38.61581294 -0.22334353 -35.55161051 -0.1297017 -32.3125 -0.3125 C-31.59304199 -0.3535083 -30.87358398 -0.3945166 -30.13232422 -0.43676758 C-20.02616958 -0.97399768 -10.08027763 -0.94903118 0 0 Z " fill="#444B55" transform="translate(103.5625,60.75)"/>
<path d="M0 0 C3.96 0 7.92 0 12 0 C12 1.32 12 2.64 12 4 C12.66 4 13.32 4 14 4 C14 4.66 14 5.32 14 6 C13.505 5.835 13.01 5.67 12.5 5.5 C4.31444916 3.86288983 -1.13904629 5.42603086 -8 10 C-7.67 10.33 -7.34 10.66 -7 11 C-6.52691406 10.69964844 -6.05382813 10.39929688 -5.56640625 10.08984375 C-0.71605845 7.30065739 2.58522184 6.65503169 8.1171875 7.4453125 C10 8 10 8 12 10 C11.34 10 10.68 10 10 10 C10.061875 10.7425 10.12375 11.485 10.1875 12.25 C9.96760006 15.47519908 9.21747812 16.69723426 7 19 C6.34 19 5.68 19 5 19 C5 16.03 5 13.06 5 10 C3.02 10.66 1.04 11.32 -1 12 C-1.04898438 12.62648438 -1.09796875 13.25296875 -1.1484375 13.8984375 C-1.22320312 14.71570313 -1.29796875 15.53296875 -1.375 16.375 C-1.44460937 17.18710938 -1.51421875 17.99921875 -1.5859375 18.8359375 C-2 21 -2 21 -4 23 C-6.32275177 23.40047444 -8.65739357 23.7397104 -11 24 C-11.33 25.65 -11.66 27.3 -12 29 C-11.175 29.53625 -10.35 30.0725 -9.5 30.625 C-7 33 -7 33 -6.5625 35.8125 C-7.05331601 39.38844521 -7.90058143 42.56431698 -9 46 C-7.68 46 -6.36 46 -5 46 C-3.64172029 44.35360035 -2.30745749 42.68704193 -1 41 C-0.01 41 0.98 41 2 41 C1.125 48.625 1.125 48.625 0 52 C1.485 52.495 1.485 52.495 3 53 C1.54176788 53.0270043 0.08339325 53.04639787 -1.375 53.0625 C-2.59316406 53.07990234 -2.59316406 53.07990234 -3.8359375 53.09765625 C-6 53 -6 53 -8 52 C-8 52.66 -8 53.32 -8 54 C-7.01 54 -6.02 54 -5 54 C-5 54.66 -5 55.32 -5 56 C2.35582311 56.28846365 6.75428002 54.88106318 12.22265625 50.046875 C16.51932408 45.09862457 19.67788067 38.42611489 21 32 C21.66 32 22.32 32 23 32 C21.77061668 42.15301054 17.49619763 49.16523157 10 56 C14.63228901 54.45590366 16.49183862 51.06711883 19 47 C22.61458926 39.45273763 25.14439774 32.95202363 25.125 24.5625 C25.12757812 23.45003906 25.13015625 22.33757812 25.1328125 21.19140625 C25.01399223 18.33622508 24.65353269 15.77492054 24 13 C24.495 13.99 24.495 13.99 25 15 C26.7015625 14.9690625 26.7015625 14.9690625 28.4375 14.9375 C32 15 32 15 33 16 C33.33 13.69 33.66 11.38 34 9 C38.61489924 12.62599226 40.52930925 17.46595749 42 23 C43.2662781 35.0141995 40.38133427 46.31199877 33 56 C32.01 56.33 31.02 56.66 30 57 C30.33 57.99 30.66 58.98 31 60 C28.94072044 60.98592155 26.87743312 61.96347494 24.8125 62.9375 C23.66394531 63.48277344 22.51539063 64.02804688 21.33203125 64.58984375 C13.63503406 67.84730681 4.67795625 68.54825975 -3.3046875 65.90625 C-10.51336406 62.52662109 -15.66612246 58.66775508 -19.25 51.5 C-19.62125 50.2625 -19.62125 50.2625 -20 49 C-20.37125 47.989375 -20.7425 46.97875 -21.125 45.9375 C-24.03580189 35.35696613 -21.64450155 24.64627245 -17 15 C-15.125 11.9375 -15.125 11.9375 -13 9 C-12.64164063 8.44828125 -12.28328125 7.8965625 -11.9140625 7.328125 C-10.21686025 4.93609498 -8.77102137 3.21967648 -5.90234375 2.40234375 C-3.6875 2.125 -3.6875 2.125 0 2 C0 1.34 0 0.68 0 0 Z " fill="#474A4F" transform="translate(35,75)"/>
<path d="M0 0 C5.86906085 4.93534662 8.29619312 9.50627258 9.0078125 17.04296875 C9.47713047 29.13572847 5.36851973 38.10047171 -2.6875 46.87890625 C-6.67844898 50.68549074 -9.95227116 51.13880397 -15.25 51.3125 C-16.24 50.9825 -17.23 50.6525 -18.25 50.3125 C-18.25 49.6525 -18.25 48.9925 -18.25 48.3125 C-19.24 48.3125 -20.23 48.3125 -21.25 48.3125 C-21.25 47.6525 -21.25 46.9925 -21.25 46.3125 C-18.61 46.3125 -15.97 46.3125 -13.25 46.3125 C-12.59 42.6825 -11.93 39.0525 -11.25 35.3125 C-15.2584034 37.3167017 -16.66409657 38.80305963 -19.25 42.3125 C-20.57 41.6525 -21.89 40.9925 -23.25 40.3125 C-22.92 39.28125 -22.59 38.25 -22.25 37.1875 C-21.30248253 33.76398799 -20.69524778 30.87876425 -21.25 27.3125 C-23.62842577 24.90843616 -23.62842577 24.90843616 -26.25 23.3125 C-25.375 18.4375 -25.375 18.4375 -24.25 17.3125 C-23.115625 17.209375 -21.98125 17.10625 -20.8125 17 C-17.27936303 16.70281989 -17.27936303 16.70281989 -15.8125 14.625 C-15.11894409 12.20289746 -15.11894409 12.20289746 -15.3125 9.1875 C-15.291875 8.23875 -15.27125 7.29 -15.25 6.3125 C-12.25 4.3125 -12.25 4.3125 -8.25 4.3125 C-8.25 7.2825 -8.25 10.2525 -8.25 13.3125 C-4.57769295 10.23250054 -3.68197635 8.0642398 -3.25 3.3125 C-10.1976491 1.83290806 -14.24089818 2.59463844 -20.25 6.3125 C-21.24 6.8075 -21.24 6.8075 -22.25 7.3125 C-22.125 5.5625 -22.125 5.5625 -21.25 3.3125 C-14.80410059 -1.70097732 -7.57183012 -3.93152718 0 0 Z " fill="#B33049" transform="translate(48.25,80.6875)"/>
<path d="M0 0 C0 0.66 0 1.32 0 2 C2.31 2.33 4.62 2.66 7 3 C6.67 5.64 6.34 8.28 6 11 C6.99 11 7.98 11 9 11 C9 12.65 9 14.3 9 16 C8.34 15.67 7.68 15.34 7 15 C6.01 15.495 6.01 15.495 5 16 C4.34227572 19.02934491 4.34227572 19.02934491 4 22 C-0.2710989 21.8613598 -4.54179892 21.71286099 -8.8125 21.5625 C-10.02744141 21.52318359 -11.24238281 21.48386719 -12.49414062 21.44335938 C-13.65751953 21.40146484 -14.82089844 21.35957031 -16.01953125 21.31640625 C-17.09307861 21.27974854 -18.16662598 21.24309082 -19.27270508 21.20532227 C-22 21 -22 21 -25 20 C-25 16.7 -25 13.4 -25 10 C-30.94 8.515 -30.94 8.515 -37 7 C-35.02 4.69 -33.04 2.38 -31 0 C-31.99 -0.33 -32.98 -0.66 -34 -1 C-22.67351985 -3.90361038 -11.152452 -3.52486825 0 0 Z " fill="#1A2637" transform="translate(105,65)"/>
<path d="M0 0 C4.61489924 3.62599226 6.52930925 8.46595749 8 14 C8.73468074 20.97050751 8.14162585 27.34968816 6 34 C5.81695312 34.65097656 5.63390625 35.30195312 5.4453125 35.97265625 C4.8125 37.875 4.8125 37.875 3 41 C-1.63864479 43.05170827 -5.96783061 43.37978637 -11 43 C-13.4375 42 -13.4375 42 -15 41 C-14.38452845 37.41616048 -13.40793378 34.28651895 -12 30.9375 C-9.7431177 25.55251246 -8.86140464 21.44249484 -8.875 15.5625 C-8.87242188 14.45003906 -8.86984375 13.33757812 -8.8671875 12.19140625 C-8.98600777 9.33622508 -9.34646731 6.77492054 -10 4 C-9.67 4.66 -9.34 5.32 -9 6 C-7.2984375 5.9690625 -7.2984375 5.9690625 -5.5625 5.9375 C-2 6 -2 6 -1 7 C-0.67 4.69 -0.34 2.38 0 0 Z " fill="#2C3743" transform="translate(69,84)"/>
<path d="M0 0 C-0.66 0.33 -1.32 0.66 -2 1 C-1.67 3.64 -1.34 6.28 -1 9 C-1.66 7.68 -2.32 6.36 -3 5 C-3.66 5 -4.32 5 -5 5 C-5 8.3 -5 11.6 -5 15 C-3.68 14.01 -2.36 13.02 -1 12 C-0.505 14.475 -0.505 14.475 0 17 C-0.66 17 -1.32 17 -2 17 C-2 18.98 -2 20.96 -2 23 C-5.37902556 24.02345486 -8.47860013 24.1338035 -12 24.125 C-13.03125 24.12757813 -14.0625 24.13015625 -15.125 24.1328125 C-17.59657009 24.01863671 -19.6442958 23.71350656 -22 23 C-22 22.01 -22 21.02 -22 20 C-22.763125 19.87625 -23.52625 19.7525 -24.3125 19.625 C-27 19 -27 19 -30 17 C-30 15.33333333 -30 13.66666667 -30 12 C-30.99 11.34 -31.98 10.68 -33 10 C-31.68 9.67 -30.36 9.34 -29 9 C-29.33 7.68 -29.66 6.36 -30 5 C-28.68 5.33 -27.36 5.66 -26 6 C-26 4.35 -26 2.7 -26 1 C-26.99 0.67 -27.98 0.34 -29 0 C-24.9170667 -0.1969993 -20.83364734 -0.38095476 -16.75 -0.5625 C-15.59113281 -0.61857422 -14.43226562 -0.67464844 -13.23828125 -0.73242188 C-12.12324219 -0.78076172 -11.00820312 -0.82910156 -9.859375 -0.87890625 C-8.31975098 -0.94960327 -8.31975098 -0.94960327 -6.74902344 -1.02172852 C-4.28119317 -1.00222257 -2.34329535 -0.72799029 0 0 Z " fill="#1C2632" transform="translate(110,113)"/>
<path d="M0 0 C0.66 0.66 1.32 1.32 2 2 C1.34 2 0.68 2 0 2 C0.061875 2.7425 0.12375 3.485 0.1875 4.25 C-0.03239994 7.47519908 -0.78252188 8.69723426 -3 11 C-3.66 11 -4.32 11 -5 11 C-5 8.03 -5 5.06 -5 2 C-6.98 2.66 -8.96 3.32 -11 4 C-11.04898438 4.62648438 -11.09796875 5.25296875 -11.1484375 5.8984375 C-11.22320312 6.71570313 -11.29796875 7.53296875 -11.375 8.375 C-11.44460937 9.18710938 -11.51421875 9.99921875 -11.5859375 10.8359375 C-12 13 -12 13 -14 15 C-16.32275177 15.40047444 -18.65739357 15.7397104 -21 16 C-21.33 17.65 -21.66 19.3 -22 21 C-21.175 21.53625 -20.35 22.0725 -19.5 22.625 C-17 25 -17 25 -16.5625 27.8125 C-17.05331601 31.38844521 -17.90058143 34.56431698 -19 38 C-17.68 38 -16.36 38 -15 38 C-13.64172029 36.35360035 -12.30745749 34.68704193 -11 33 C-10.01 33 -9.02 33 -8 33 C-8.875 40.625 -8.875 40.625 -10 44 C-8.515 44.495 -8.515 44.495 -7 45 C-8.45823212 45.0270043 -9.91660675 45.04639787 -11.375 45.0625 C-12.59316406 45.07990234 -12.59316406 45.07990234 -13.8359375 45.09765625 C-16 45 -16 45 -18 44 C-18 44.66 -18 45.32 -18 46 C-17.01 46 -16.02 46 -15 46 C-15 46.66 -15 47.32 -15 48 C-14.01 48.33 -13.02 48.66 -12 49 C-16.42573689 48.68387594 -19.06607909 47.56168662 -22.5078125 44.7421875 C-27.36660167 39.06936036 -28.67710616 34.4844284 -28.5 27.1875 C-28.48864014 26.39577393 -28.47728027 25.60404785 -28.46557617 24.78833008 C-28.21271384 17.15000883 -26.69547597 10.6059578 -21.375 4.875 C-19 3 -19 3 -17 3 C-15.80214926 2.33069731 -14.61621007 1.63996358 -13.4375 0.9375 C-8.87247323 -1.4242963 -4.90888194 -1.44618513 0 0 Z " fill="#922F45" transform="translate(45,83)"/>
<path d="M0 0 C0 0.99 0 1.98 0 3 C-2.64 3 -5.28 3 -8 3 C-8 4.32 -8 5.64 -8 7 C-6.68 7 -5.36 7 -4 7 C-4 7.99 -4 8.98 -4 10 C-4.66 10 -5.32 10 -6 10 C-5.67 11.65 -5.34 13.3 -5 15 C-6.65 16.32 -8.3 17.64 -10 19 C-10 17.35 -10 15.7 -10 14 C-12.2013866 17.80427492 -12.2013866 17.80427492 -13 22 C-12.34 22.33 -11.68 22.66 -11 23 C-11 22.01 -11 21.02 -11 20 C-10.34 20 -9.68 20 -9 20 C-9.33 21.32 -9.66 22.64 -10 24 C-24.78132118 24.18451025 -24.78132118 24.18451025 -31 23 C-31.33 21.35 -31.66 19.7 -32 18 C-31.34 18 -30.68 18 -30 18 C-29.34 16.02 -28.68 14.04 -28 12 C-28.99 11.67 -29.98 11.34 -31 11 C-30.34 8.69 -29.68 6.38 -29 4 C-29.99 3.67 -30.98 3.34 -32 3 C-30.68 2.67 -29.36 2.34 -28 2 C-28 2.66 -28 3.32 -28 4 C-27.34 3.67 -26.68 3.34 -26 3 C-24.00039988 2.960008 -21.99952758 2.95653201 -20 3 C-19.67 3.66 -19.34 4.32 -19 5 C-18.34 5 -17.68 5 -17 5 C-17 4.34 -17 3.68 -17 3 C-11.39 2.01 -5.78 1.02 0 0 Z " fill="#212932" transform="translate(112,87)"/>
<path d="M0 0 C0.66 0 1.32 0 2 0 C2 1.32 2 2.64 2 4 C2.99 4.33 3.98 4.66 5 5 C5.53847315 13.57069757 4.4673054 20.13664668 1 28 C0.34 28 -0.32 28 -1 28 C-0.7834375 27.35933594 -0.566875 26.71867187 -0.34375 26.05859375 C1.34059996 20.8261918 2.35826786 16.4934405 2 11 C0.35 11.33 -1.3 11.66 -3 12 C-3 12.66 -3 13.32 -3 14 C-1.68 14.33 -0.36 14.66 1 15 C0.67 17.31 0.34 19.62 0 22 C-1.98 21.67 -3.96 21.34 -6 21 C-5.2265625 21.86625 -5.2265625 21.86625 -4.4375 22.75 C-3 25 -3 25 -3.3125 27.25 C-3.539375 27.8275 -3.76625 28.405 -4 29 C-5.77706209 26.33440687 -6.87548273 23.9719385 -8 21 C-10.75641416 21.49756092 -10.75641416 21.49756092 -13 23 C-15.99894961 23.26077823 -18.18003295 23.43731576 -20.875 22 C-22.70996617 18.73783791 -22.71234583 15.57516963 -22 12 C-20.63264752 9.17180086 -19.49595882 8.116139 -17 6 C-13.8125 5.9375 -13.8125 5.9375 -11 7 C-9 10 -9 10 -9 13 C-8.34 13 -7.68 13 -7 13 C-6.34 11.02 -5.68 9.04 -5 7 C-4.01 7 -3.02 7 -2 7 C-1.67 6.01 -1.34 5.02 -1 4 C-0.34 4 0.32 4 1 4 C0.67 2.68 0.34 1.36 0 0 Z " fill="#B92A43" transform="translate(52,90)"/>
<path d="M0 0 C0.94875 0.33 1.8975 0.66 2.875 1 C7.55447256 2.3644458 12.16823759 2.17499341 17 2 C16.62890625 3.921875 16.62890625 3.921875 16 6 C13.9375 7.25 13.9375 7.25 12 8 C12.495 9.485 12.495 9.485 13 11 C10.94072044 11.98592155 8.87743312 12.96347494 6.8125 13.9375 C5.08966797 14.75541016 5.08966797 14.75541016 3.33203125 15.58984375 C-3.97434958 18.6819932 -12.91228465 19.48103931 -20.58984375 17.24609375 C-22.75 16.25 -22.75 16.25 -26 14 C-26.703125 11.859375 -26.703125 11.859375 -27 10 C-26.319375 10.33 -25.63875 10.66 -24.9375 11 C-20.5901425 12.47995149 -17.12265932 12.8298005 -12.76171875 11.125 C-7.31114506 8.34016907 -3.60915435 4.91128062 0 0 Z " fill="#2A323B" transform="translate(53,124)"/>
<path d="M0 0 C0 0.66 0 1.32 0 2 C-0.99 2.33 -1.98 2.66 -3 3 C-1.68 3.33 -0.36 3.66 1 4 C1.33 5.65 1.66 7.3 2 9 C1.01 9 0.02 9 -1 9 C-1.33 9.66 -1.66 10.32 -2 11 C-1.21625 10.979375 -0.4325 10.95875 0.375 10.9375 C3 11 3 11 5 12 C5.125 19.625 5.125 19.625 4 23 C4.31302345 24.33824706 4.64988072 25.67097578 5 27 C5.37433084 33.25045452 5.58902621 39.17469103 3 45 C0.525 45.495 0.525 45.495 -2 46 C-2 43.33333333 -2 40.66666667 -2 38 C-3.485 38.495 -3.485 38.495 -5 39 C-5 35.7 -5 32.4 -5 29 C-4.34 29 -3.68 29 -3 29 C-3 27.68 -3 26.36 -3 25 C-1.68 24.67 -0.36 24.34 1 24 C1 23.34 1 22.68 1 22 C-1.97 22 -4.94 22 -8 22 C-7.67 20.68 -7.34 19.36 -7 18 C-7.66 18 -8.32 18 -9 18 C-9 18.99 -9 19.98 -9 21 C-9.99 20.67 -10.98 20.34 -12 20 C-11.35455571 16.51460083 -9.89865603 13.97180943 -8 11 C-7.67 12.32 -7.34 13.64 -7 15 C-5.4166747 13.7511573 -5.4166747 13.7511573 -4 12 C-4 10.68 -4 9.36 -4 8 C-3.34 8 -2.68 8 -2 8 C-2 7.01 -2 6.02 -2 5 C-3.32 5 -4.64 5 -6 5 C-6 3.68 -6 2.36 -6 1 C-4 0 -4 0 0 0 Z " fill="#596063" transform="translate(110,89)"/>
<path d="M0 0 C0.66 0 1.32 0 2 0 C1.67 2.64 1.34 5.28 1 8 C1.99 8 2.98 8 4 8 C4 9.65 4 11.3 4 13 C3.34 12.67 2.68 12.34 2 12 C1.01 12.495 1.01 12.495 0 13 C-0.65772428 16.02934491 -0.65772428 16.02934491 -1 19 C-5.2710989 18.8613598 -9.54179892 18.71286099 -13.8125 18.5625 C-15.02744141 18.52318359 -16.24238281 18.48386719 -17.49414062 18.44335938 C-18.65751953 18.40146484 -19.82089844 18.35957031 -21.01953125 18.31640625 C-22.09307861 18.27974854 -23.16662598 18.24309082 -24.27270508 18.20532227 C-27 18 -27 18 -30 17 C-30 15.02 -30 13.04 -30 11 C-24.24153561 9.60400863 -18.75846439 9.60400863 -13 11 C-13.33 9.35 -13.66 7.7 -14 6 C-13.2575 5.87625 -12.515 5.7525 -11.75 5.625 C-8.02161661 4.77764014 -5.7058547 3.7058547 -3 1 C-2.67 1.99 -2.34 2.98 -2 4 C-1.34 2.68 -0.68 1.36 0 0 Z " fill="#263343" transform="translate(110,68)"/>
<path d="M0 0 C1.51981982 6.35561015 0.21257755 10.93734256 -2 17 C-2.27972656 17.83789062 -2.55945313 18.67578125 -2.84765625 19.5390625 C-5.00260472 24.14115585 -8.86067812 27.17234222 -13 30 C-16.90760866 31.32723949 -20.04535945 31.31821352 -24 30 C-24 29.34 -24 28.68 -24 28 C-24.99 28 -25.98 28 -27 28 C-27 27.34 -27 26.68 -27 26 C-24.36 26 -21.72 26 -19 26 C-18.34 22.37 -17.68 18.74 -17 15 C-18.65 15 -20.3 15 -22 15 C-22 14.01 -22 13.02 -22 12 C-20.9275 11.87625 -19.855 11.7525 -18.75 11.625 C-15.56296928 11.09382821 -13.77573258 10.43926875 -11 9 C-7.75267068 10.62366466 -7.29844864 13.75387839 -6 17 C-6.57584432 14.61435923 -7.22227595 12.33317216 -8 10 C-5.03 10.495 -5.03 10.495 -2 11 C-2 8.69 -2 6.38 -2 4 C-2.99 3.67 -3.98 3.34 -5 3 C-5 2.34 -5 1.68 -5 1 C-3 0 -3 0 0 0 Z " fill="#B4344B" transform="translate(54,101)"/>
<path d="M0 0 C-0.99 0.495 -0.99 0.495 -2 1 C-1.67 3.64 -1.34 6.28 -1 9 C-1.66 7.68 -2.32 6.36 -3 5 C-3.66 5 -4.32 5 -5 5 C-5 8.3 -5 11.6 -5 15 C-3.68 14.01 -2.36 13.02 -1 12 C-0.67 13.65 -0.34 15.3 0 17 C-0.66 17 -1.32 17 -2 17 C-2 18.98 -2 20.96 -2 23 C-4.31 23.33 -6.62 23.66 -9 24 C-9.66 22.68 -10.32 21.36 -11 20 C-11 20.99 -11 21.98 -11 23 C-12.32 23 -13.64 23 -15 23 C-15 20.03 -15 17.06 -15 14 C-16.32 14 -17.64 14 -19 14 C-19 13.34 -19 12.68 -19 12 C-20.32 12 -21.64 12 -23 12 C-23 11.34 -23 10.68 -23 10 C-19.7 10 -16.4 10 -13 10 C-13 8.35 -13 6.7 -13 5 C-12.01 5 -11.02 5 -10 5 C-9.67 3.68 -9.34 2.36 -9 1 C-9.99 1 -10.98 1 -12 1 C-12.33 1.66 -12.66 2.32 -13 3 C-13 2.01 -13 1.02 -13 0 C-11.58456585 -0.19658808 -10.16755969 -0.38187546 -8.75 -0.5625 C-7.96109375 -0.66691406 -7.1721875 -0.77132812 -6.359375 -0.87890625 C-3.99467126 -1.00027349 -2.2488963 -0.69633257 0 0 Z " fill="#2E3740" transform="translate(110,113)"/>
<path d="M0 0 C0.391875 0.5775 0.78375 1.155 1.1875 1.75 C2.95872067 4.11472344 2.95872067 4.11472344 5.5 6 C7.92123548 7.93698838 9.4011105 9.36436659 11 12 C11.29296875 14.796875 11.29296875 14.796875 11.1875 17.75 C11.16042969 18.73484375 11.13335937 19.7196875 11.10546875 20.734375 C11.07066406 21.48203125 11.03585938 22.2296875 11 23 C10.34 23 9.68 23 9 23 C8.67 23.66 8.34 24.32 8 25 C7.67 25 7.34 25 7 25 C7 26.32 7 27.64 7 29 C6.34 29 5.68 29 5 29 C4.67 29.66 4.34 30.32 4 31 C-0.875 30.125 -0.875 30.125 -2 29 C-2.33 29 -2.66 29 -3 29 C-3.34943109 24.80682689 -2.58403645 23.23004556 0 20 C0 19.01 0 18.02 0 17 C0.3062434 15.66018514 0.63451555 14.32488113 1 13 C1.66 13.33 2.32 13.66 3 14 C3 12.02 3 10.04 3 8 C1.35 8 -0.3 8 -2 8 C-1.34 7.67 -0.68 7.34 0 7 C0 4.69 0 2.38 0 0 Z " fill="#525C62" transform="translate(65,91)"/>
<path d="M0 0 C4.81725771 4.0508758 7.1567631 6.93520329 7.75 13.3125 C7.09 13.3125 6.43 13.3125 5.75 13.3125 C5.75 11.9925 5.75 10.6725 5.75 9.3125 C5.09 9.3125 4.43 9.3125 3.75 9.3125 C4.08 10.6325 4.41 11.9525 4.75 13.3125 C4.09 13.3125 3.43 13.3125 2.75 13.3125 C2.42 14.9625 2.09 16.6125 1.75 18.3125 C1.42 17.6525 1.09 16.9925 0.75 16.3125 C0.09 16.3125 -0.57 16.3125 -1.25 16.3125 C-1.394375 16.93125 -1.53875 17.55 -1.6875 18.1875 C-2.25 20.3125 -2.25 20.3125 -3.25 22.3125 C-3.91 22.3125 -4.57 22.3125 -5.25 22.3125 C-5.35059672 18.79161465 -4.95362084 15.75242412 -4.25 12.3125 C-3.87614748 9.31662781 -3.55753171 6.31584163 -3.25 3.3125 C-10.1976491 1.83290806 -14.24089818 2.59463844 -20.25 6.3125 C-21.24 6.8075 -21.24 6.8075 -22.25 7.3125 C-22.125 5.5625 -22.125 5.5625 -21.25 3.3125 C-14.80410059 -1.70097732 -7.57183012 -3.93152718 0 0 Z " fill="#9F3C53" transform="translate(48.25,80.6875)"/>
<path d="M0 0 C3.75257718 -0.34907695 5.56588078 -0.27011863 8.8125 1.75 C12.25433167 5.29016972 12.15415969 8.62982734 12.1875 13.4375 C12.20167969 14.36433594 12.21585938 15.29117188 12.23046875 16.24609375 C11.98396514 19.19160293 11.1174206 21.28374044 10 24 C9.78918149 27.89459074 9.78918149 27.89459074 11 31 C11.0685495 32.89470816 11.08480372 34.7916834 11.0625 36.6875 C11.05347656 37.68136719 11.04445313 38.67523438 11.03515625 39.69921875 C11.02355469 40.45847656 11.01195313 41.21773437 11 42 C10.01 42.495 10.01 42.495 9 43 C8.34 42.34 7.68 41.68 7 41 C7 40.01 7 39.02 7 38 C5.35 38 3.7 38 2 38 C2.33 37.01 2.66 36.02 3 35 C3.66 35.33 4.32 35.66 5 36 C4.67 34.35 4.34 32.7 4 31 C3.01 30.67 2.02 30.34 1 30 C1.33 29.34 1.66 28.68 2 28 C2.66 28.33 3.32 28.66 4 29 C4 28.34 4 27.68 4 27 C4.66 27 5.32 27 6 27 C6.33 26.34 6.66 25.68 7 25 C5.35 24.67 3.7 24.34 2 24 C2.33 22.02 2.66 20.04 3 18 C3.639375 17.896875 4.27875 17.79375 4.9375 17.6875 C5.9584375 17.3471875 5.9584375 17.3471875 7 17 C7.33 16.01 7.66 15.02 8 14 C7.01 14.33 6.02 14.66 5 15 C5 14.34 5 13.68 5 13 C6.32 13 7.64 13 9 13 C8.67 10.03 8.34 7.06 8 4 C7.236875 3.71125 6.47375 3.4225 5.6875 3.125 C3 2 3 2 0 0 Z " fill="#697073" transform="translate(106,62)"/>
<path d="M0 0 C0.66 0.66 1.32 1.32 2 2 C2.66 1.34 3.32 0.68 4 0 C4.99 0 5.98 0 7 0 C7.125 2.375 7.125 2.375 7 5 C4.23776722 7.76223278 1.79293383 7.57856291 -2 8 C-2.33 9.65 -2.66 11.3 -3 13 C-2.175 13.53625 -1.35 14.0725 -0.5 14.625 C2 17 2 17 2.5 20 C1.96640635 23.20156191 1.17622614 24.64242168 -1 27 C-1.66 26.67 -2.32 26.34 -3 26 C-3 26.66 -3 27.32 -3 28 C-3.99 28 -4.98 28 -6 28 C-8.19418451 21.41744647 -8.00734449 12.88824266 -5.75 6.3125 C-4.0984205 3.18629595 -3.06080833 1.68872184 0 0 Z " fill="#6F0925" transform="translate(26,91)"/>
<path d="M0 0 C3.96 0 7.92 0 12 0 C12 1.32 12 2.64 12 4 C12.66 4 13.32 4 14 4 C14 4.66 14 5.32 14 6 C13.505 5.835 13.01 5.67 12.5 5.5 C5.8317552 4.16635104 0.99865497 4.77850011 -5 8 C-13.32997765 13.87998422 -16.04557625 21.34360371 -18 31 C-18.47196564 34.66227182 -18.7932245 38.3136919 -19 42 C-19.33 42 -19.66 42 -20 42 C-20.08797281 38.81267746 -20.14071341 35.62567212 -20.1875 32.4375 C-20.21263672 31.54224609 -20.23777344 30.64699219 -20.26367188 29.72460938 C-20.35710248 21.22242454 -18.01682834 15.93502742 -13 9 C-12.64164063 8.44828125 -12.28328125 7.8965625 -11.9140625 7.328125 C-10.21686025 4.93609498 -8.77102137 3.21967648 -5.90234375 2.40234375 C-3.6875 2.125 -3.6875 2.125 0 2 C0 1.34 0 0.68 0 0 Z " fill="#2F323D" transform="translate(35,75)"/>
<path d="M0 0 C-0.37109375 1.921875 -0.37109375 1.921875 -1 4 C-3.0625 5.25 -3.0625 5.25 -5 6 C-4.67 6.99 -4.34 7.98 -4 9 C-11.53900288 12.91515451 -17.41824208 15.87272114 -26 15 C-25.67 13.35 -25.34 11.7 -25 10 C-23.7625 9.87625 -22.525 9.7525 -21.25 9.625 C-18.06283052 9.24276451 -15.85238424 8.47901405 -13 7 C-12.01 7.33 -11.02 7.66 -10 8 C-10 7.34 -10 6.68 -10 6 C-11.65 6 -13.3 6 -15 6 C-10.88012059 -0.59180706 -7.51260325 -0.78772927 0 0 Z " fill="#28323D" transform="translate(70,126)"/>
<path d="M0 0 C0.66 0 1.32 0 2 0 C3.33333333 1.33333333 4.66666667 2.66666667 6 4 C4.35 4 2.7 4 1 4 C1.495 6.97 1.495 6.97 2 10 C2.99 10.33 3.98 10.66 5 11 C4.01 11.66 3.02 12.32 2 13 C1.00469206 14.89768759 1.00469206 14.89768759 1 17 C2.35444301 18.77190909 2.35444301 18.77190909 4 20 C1 21 1 21 -2 20 C-2 19.01 -2 18.02 -2 17 C-4.31 16.34 -6.62 15.68 -9 15 C-8.67 14.34 -8.34 13.68 -8 13 C-13.61 12.67 -19.22 12.34 -25 12 C-25 12.66 -25 13.32 -25 14 C-26.98 14.33 -28.96 14.66 -31 15 C-27.45600527 11.06222807 -24.46148131 9.22803914 -19.1328125 8.734375 C-13.36730454 8.76432569 -8.43531235 9.02352278 -3 11 C-2.86722656 10.37351562 -2.73445313 9.74703125 -2.59765625 9.1015625 C-2.42105469 8.28429687 -2.24445312 7.46703125 -2.0625 6.625 C-1.80146484 5.40683594 -1.80146484 5.40683594 -1.53515625 4.1640625 C-1 2 -1 2 0 0 Z " fill="#81888D" transform="translate(60,63)"/>
<path d="M0 0 C2.97 0.495 2.97 0.495 6 1 C4.68 1.33 3.36 1.66 2 2 C2.33 2.99 2.66 3.98 3 5 C2.01 6.485 2.01 6.485 1 8 C4.71736641 8.34900558 4.71736641 8.34900558 7.8125 6.5 C8.204375 6.005 8.59625 5.51 9 5 C9 6.65 9 8.3 9 10 C7.68 10 6.36 10 5 10 C5.33 11.65 5.66 13.3 6 15 C0.39 15 -5.22 15 -11 15 C-11 13.68 -11 12.36 -11 11 C-12.65 10.67 -14.3 10.34 -16 10 C-16 9.34 -16 8.68 -16 8 C-14.8553125 7.9071875 -14.8553125 7.9071875 -13.6875 7.8125 C-10.76948191 7.23064738 -10.76948191 7.23064738 -9.1875 4.4375 C-8.795625 3.633125 -8.40375 2.82875 -8 2 C-7.67 2.66 -7.34 3.32 -7 4 C-7.33 4.99 -7.66 5.98 -8 7 C-6.02 7 -4.04 7 -2 7 C-0.49069817 3.6136749 -0.49069817 3.6136749 0 0 Z " fill="#111C2D" transform="translate(91,64)"/>
<path d="M0 0 C4.60077206 3.61489233 6.56122118 8.46969392 8 14 C8.30328796 18.02804328 8.24924405 21.9705545 8 26 C7.34 26.33 6.68 26.66 6 27 C6.03255208 24.94921875 6.06510417 22.8984375 6.09765625 20.84765625 C6.20561184 18.98267859 6.20561184 18.98267859 5 18 C4.34 18.99 3.68 19.98 3 21 C3.103125 20.071875 3.20625 19.14375 3.3125 18.1875 C3.209375 17.135625 3.10625 16.08375 3 15 C0.60775041 13.26461808 0.60775041 13.26461808 -2 12 C-2.33 11.01 -2.66 10.02 -3 9 C-3.33 10.65 -3.66 12.3 -4 14 C-4.99 14.33 -5.98 14.66 -7 15 C-6.7525 14.4225 -6.505 13.845 -6.25 13.25 C-6.1675 12.5075 -6.085 11.765 -6 11 C-7.85432087 8.72855926 -7.85432087 8.72855926 -10 7 C-9.67 6.01 -9.34 5.02 -9 4 C-9 4.66 -9 5.32 -9 6 C-7.2984375 5.9690625 -7.2984375 5.9690625 -5.5625 5.9375 C-2 6 -2 6 -1 7 C-0.67 4.69 -0.34 2.38 0 0 Z " fill="#3D4852" transform="translate(69,84)"/>
<path d="M0 0 C0.66 0 1.32 0 2 0 C1.67 2.64 1.34 5.28 1 8 C1.99 8 2.98 8 4 8 C4 9.65 4 11.3 4 13 C3.34 12.67 2.68 12.34 2 12 C1.01 12.495 1.01 12.495 0 13 C-0.65772428 16.02934491 -0.65772428 16.02934491 -1 19 C-3.12563103 18.88623383 -5.2505261 18.75864369 -7.375 18.625 C-8.55835937 18.55539063 -9.74171875 18.48578125 -10.9609375 18.4140625 C-14 18 -14 18 -16 16 C-14.02 15.34 -12.04 14.68 -10 14 C-9.67 14.66 -9.34 15.32 -9 16 C-7.68 15.67 -6.36 15.34 -5 15 C-5 14.34 -5 13.68 -5 13 C-6.32 12.34 -7.64 11.68 -9 11 C-8.01 10.67 -7.02 10.34 -6 10 C-5.67 8.35 -5.34 6.7 -5 5 C-6.32 4.67 -7.64 4.34 -9 4 C-8.38125 3.87625 -7.7625 3.7525 -7.125 3.625 C-4.80879168 3.12802644 -4.80879168 3.12802644 -3 1 C-2.67 1.99 -2.34 2.98 -2 4 C-1.34 2.68 -0.68 1.36 0 0 Z " fill="#38424C" transform="translate(110,68)"/>
<path d="M0 0 C0.78503906 0.07863281 1.57007812 0.15726562 2.37890625 0.23828125 C4.4375 0.6875 4.4375 0.6875 6.4375 2.6875 C5.7775 2.6875 5.1175 2.6875 4.4375 2.6875 C4.499375 3.43 4.56125 4.1725 4.625 4.9375 C4.40510006 8.16269908 3.65497812 9.38473426 1.4375 11.6875 C0.7775 11.6875 0.1175 11.6875 -0.5625 11.6875 C-0.5625 8.7175 -0.5625 5.7475 -0.5625 2.6875 C-2.5425 3.3475 -4.5225 4.0075 -6.5625 4.6875 C-6.5625 6.6675 -6.5625 8.6475 -6.5625 10.6875 C-6.8925 10.0275 -7.2225 9.3675 -7.5625 8.6875 C-10.03050047 9.83923355 -11.61033565 10.73533565 -13.5625 12.6875 C-13.8925 11.6975 -14.2225 10.7075 -14.5625 9.6875 C-15.5525 10.3475 -16.5425 11.0075 -17.5625 11.6875 C-16.25364898 6.12488316 -12.17364029 3.5728868 -7.5625 0.6875 C-4.5419408 -0.31935307 -3.09173734 -0.34126261 0 0 Z " fill="#941631" transform="translate(40.5625,82.3125)"/>
<path d="M0 0 C0.33 0.66 0.66 1.32 1 2 C3.52733235 2.65555119 3.52733235 2.65555119 6 3 C4.79618552 5.49361571 3.54571278 7.68143083 2 10 C7.94 10.99 7.94 10.99 14 12 C14 12.33 14 12.66 14 13 C8.39 13 2.78 13 -3 13 C-3.33 14.32 -3.66 15.64 -4 17 C-4.5625 15.0625 -4.5625 15.0625 -5 13 C-4.67 12.67 -4.34 12.34 -4 12 C-5.32 11.67 -6.64 11.34 -8 11 C-7.125 5.125 -7.125 5.125 -6 4 C-6 3.01 -6 2.02 -6 1 C-4.7934375 1.0309375 -4.7934375 1.0309375 -3.5625 1.0625 C-1.06645115 1.29633621 -1.06645115 1.29633621 0 0 Z " fill="#2F3C4A" transform="translate(68,62)"/>
<path d="M0 0 C2.8125 1.0625 2.8125 1.0625 4.8125 4.0625 C4.89155064 6.39449388 4.90048769 8.73082622 4.8125 11.0625 C4.4825 11.0625 4.1525 11.0625 3.8125 11.0625 C3.4825 9.4125 3.1525 7.7625 2.8125 6.0625 C1.1625 6.3925 -0.4875 6.7225 -2.1875 7.0625 C-2.1875 9.0425 -2.1875 11.0225 -2.1875 13.0625 C-0.5375 13.0625 1.1125 13.0625 2.8125 13.0625 C2.1525 14.3825 1.4925 15.7025 0.8125 17.0625 C-4.52083333 17.41805556 -4.52083333 17.41805556 -7.0625 16.0625 C-8.89746617 12.80033791 -8.89984583 9.63766963 -8.1875 6.0625 C-6.326366 2.21297498 -4.48417526 0.08792501 0 0 Z " fill="#A6011C" transform="translate(38.1875,95.9375)"/>
<path d="M0 0 C0 0.66 0 1.32 0 2 C-0.99 2.33 -1.98 2.66 -3 3 C-1.68 3.33 -0.36 3.66 1 4 C1.33 5.65 1.66 7.3 2 9 C1.01 9 0.02 9 -1 9 C-1.33 9.66 -1.66 10.32 -2 11 C-0.68 11.33 0.64 11.66 2 12 C1.34 13.65 0.68 15.3 0 17 C-1.32 17 -2.64 17 -4 17 C-4.33 17.99 -4.66 18.98 -5 20 C-4.34 20 -3.68 20 -3 20 C-2.34 19.34 -1.68 18.68 -1 18 C-1 19.32 -1 20.64 -1 22 C-3.31 22 -5.62 22 -8 22 C-7.67 20.68 -7.34 19.36 -7 18 C-7.66 18 -8.32 18 -9 18 C-9 18.99 -9 19.98 -9 21 C-9.99 20.67 -10.98 20.34 -12 20 C-11.35455571 16.51460083 -9.89865603 13.97180943 -8 11 C-7.67 12.32 -7.34 13.64 -7 15 C-5.4166747 13.7511573 -5.4166747 13.7511573 -4 12 C-4 10.68 -4 9.36 -4 8 C-3.34 8 -2.68 8 -2 8 C-2 7.01 -2 6.02 -2 5 C-3.32 5 -4.64 5 -6 5 C-6 3.68 -6 2.36 -6 1 C-4 0 -4 0 0 0 Z " fill="#3F474D" transform="translate(110,89)"/>
<path d="M0 0 C0 0.99 0 1.98 0 3 C-2.64 3 -5.28 3 -8 3 C-8 4.32 -8 5.64 -8 7 C-6.68 7 -5.36 7 -4 7 C-4 7.99 -4 8.98 -4 10 C-4.66 10 -5.32 10 -6 10 C-5.67 11.65 -5.34 13.3 -5 15 C-6.65 16.32 -8.3 17.64 -10 19 C-9.979375 18.21625 -9.95875 17.4325 -9.9375 16.625 C-9.81315937 14.01885039 -9.81315937 14.01885039 -11 12 C-15.62 12 -20.24 12 -25 12 C-23 10 -23 10 -20.3984375 9.8046875 C-19.40070313 9.82789062 -18.40296875 9.85109375 -17.375 9.875 C-15.87066406 9.90207031 -15.87066406 9.90207031 -14.3359375 9.9296875 C-13.56507812 9.95289062 -12.79421875 9.97609375 -12 10 C-12 8.35 -12 6.7 -12 5 C-13.65 4.67 -15.3 4.34 -17 4 C-13.51783717 1.94862685 -10.22724343 1.43181408 -6.25 0.875 C-5.07953125 0.70742187 -3.9090625 0.53984375 -2.703125 0.3671875 C-1.81109375 0.24601562 -0.9190625 0.12484375 0 0 Z " fill="#2C343C" transform="translate(112,87)"/>
<path d="M0 0 C4.95 0 9.9 0 15 0 C16 7 16 7 15 10 C10.25 10.125 10.25 10.125 8 9 C8 8.34 8 7.68 8 7 C6.35 7.33 4.7 7.66 3 8 C0.37613513 4.93882432 0 4.26826873 0 0 Z " fill="#071227" transform="translate(65,75)"/>
<path d="M0 0 C0.33 0.66 0.66 1.32 1 2 C1.66 1.67 2.32 1.34 3 1 C4.99960012 0.960008 7.00047242 0.95653201 9 1 C9.33 1.66 9.66 2.32 10 3 C10.78375 2.814375 11.5675 2.62875 12.375 2.4375 C15 2 15 2 17 3 C17 4.65 17 6.3 17 8 C10.73 8 4.46 8 -2 8 C-1.34 6.02 -0.68 4.04 0 2 C-0.99 1.67 -1.98 1.34 -3 1 C-2.01 0.67 -1.02 0.34 0 0 Z " fill="#141E2C" transform="translate(83,89)"/>
<path d="M0 0 C0.99 0 1.98 0 3 0 C3.33 2.64 3.66 5.28 4 8 C3.67 7.34 3.34 6.68 3 6 C2.34 6 1.68 6 1 6 C1.66 8.64 2.32 11.28 3 14 C1.35 14.66 -0.3 15.32 -2 16 C-4.4294516 12.3558226 -4.16179575 10.28758728 -4 6 C-5.65 6 -7.3 6 -9 6 C-9 5.01 -9 4.02 -9 3 C-7.88625 2.87625 -6.7725 2.7525 -5.625 2.625 C-1.96896323 2.3534187 -1.96896323 2.3534187 0 0 Z " fill="#C13C53" transform="translate(41,110)"/>
<path d="M0 0 C0.66 0 1.32 0 2 0 C3.80230168 3.82989106 4.19622241 6.78121808 4 11 C4.99 11 5.98 11 7 11 C6.34 14.3 5.68 17.6 5 21 C3.68 21.33 2.36 21.66 1 22 C1 19.33333333 1 16.66666667 1 14 C0.01 14.33 -0.98 14.66 -2 15 C-2 11.7 -2 8.4 -2 5 C-1.34 5 -0.68 5 0 5 C0 3.68 0 2.36 0 1 C0 0.67 0 0.34 0 0 Z " fill="#484E52" transform="translate(107,113)"/>
<path d="M0 0 C0 0.33 0 0.66 0 1 C-5.93275253 1.99788742 -11.5945011 2.06955654 -17.59570312 1.9609375 C-22.49984957 1.90748631 -27.14086081 2.3281576 -32 3 C-33.66627298 3.03622333 -35.33405374 3.04899842 -37 3 C-37.66 3 -38.32 3 -39 3 C-40.66965451 2.68197057 -42.33678518 2.35015049 -44 2 C-41.21630851 -0.78369149 -38.49065479 -0.45861317 -34.75 -0.625 C-34.03489258 -0.66222168 -33.31978516 -0.69944336 -32.58300781 -0.73779297 C-21.65656382 -1.26212697 -10.88680883 -1.11659578 0 0 Z " fill="#697179" transform="translate(106,61)"/>
<path d="M0 0 C0.94875 0.04125 1.8975 0.0825 2.875 0.125 C1.96016297 3.509897 1.21274897 4.88610439 -1.6875 6.9375 C-5.96744043 8.41602488 -9.64734863 8.39365908 -14.125 8.125 C-13.795 6.475 -13.465 4.825 -13.125 3.125 C-11.84625 3.00125 -10.5675 2.8775 -9.25 2.75 C-5.29616658 2.36737096 -3.85839474 0.15433579 0 0 Z " fill="#151E2A" transform="translate(58.125,132.875)"/>
<path d="M0 0 C2 0.875 2 0.875 3.25 3.4375 C3.4975 4.241875 3.745 5.04625 4 5.875 C3.34 5.875 2.68 5.875 2 5.875 C1.67 7.525 1.34 9.175 1 10.875 C0.67 10.215 0.34 9.555 0 8.875 C-0.66 8.875 -1.32 8.875 -2 8.875 C-2.2165625 9.803125 -2.2165625 9.803125 -2.4375 10.75 C-3 12.875 -3 12.875 -4 14.875 C-4.66 14.875 -5.32 14.875 -6 14.875 C-6.10004874 11.37329418 -5.78726715 8.286491 -5 4.875 C-4.855625 4.1325 -4.71125 3.39 -4.5625 2.625 C-4.376875 2.0475 -4.19125 1.47 -4 0.875 C-2 -0.125 -2 -0.125 0 0 Z " fill="#C5465C" transform="translate(49,88.125)"/>
<path d="M0 0 C0.99 0 1.98 0 3 0 C3.33 0.99 3.66 1.98 4 3 C4.845625 3.721875 5.69125 4.44375 6.5625 5.1875 C9.14936483 8.17234403 9.33859935 8.61944139 9.3125 12.3125 C9.1578125 14.1378125 9.1578125 14.1378125 9 16 C8.34 16.33 7.68 16.66 7 17 C7 16.34 7 15.68 7 15 C5.02 15 3.04 15 1 15 C1.33 14.01 1.66 13.02 2 12 C2.66 11.67 3.32 11.34 4 11 C2.68 11 1.36 11 0 11 C-0.33 10.01 -0.66 9.02 -1 8 C0.32 7.67 1.64 7.34 3 7 C2.01 6.01 1.02 5.02 0 4 C0.66 4 1.32 4 2 4 C2 3.01 2 2.02 2 1 C1.34 0.67 0.68 0.34 0 0 Z " fill="#5B656B" transform="translate(60,75)"/>
<path d="M0 0 C2.97 0 5.94 0 9 0 C8.01 0.495 8.01 0.495 7 1 C6.17195931 3.48412207 6 5.35220307 6 8 C5.04287109 8.07347656 5.04287109 8.07347656 4.06640625 8.1484375 C3.24011719 8.22320312 2.41382812 8.29796875 1.5625 8.375 C0.73878906 8.44460937 -0.08492188 8.51421875 -0.93359375 8.5859375 C-1.61550781 8.72257812 -2.29742187 8.85921875 -3 9 C-3.33 9.66 -3.66 10.32 -4 11 C-4.99 10.34 -5.98 9.68 -7 9 C-5.68 8.67 -4.36 8.34 -3 8 C-3.33 6.68 -3.66 5.36 -4 4 C-2.68 4.33 -1.36 4.66 0 5 C0 3.35 0 1.7 0 0 Z " fill="#141E2C" transform="translate(84,114)"/>
<path d="M0 0 C1.98 0.66 3.96 1.32 6 2 C5.67 4.31 5.34 6.62 5 9 C2.03 8.505 2.03 8.505 -1 8 C-0.484375 8.5775 0.03125 9.155 0.5625 9.75 C2 12 2 12 1.6875 14.25 C1.460625 14.8275 1.23375 15.405 1 16 C-1.79980627 11.8002906 -3.67631283 8.1399775 -3 3 C-1.5 1.1875 -1.5 1.1875 0 0 Z " fill="#740321" transform="translate(47,103)"/>
<path d="M0 0 C0.391875 0.639375 0.78375 1.27875 1.1875 1.9375 C3.38472296 4.43778819 4.75791433 4.64950425 8 5 C7.01158836 7.6956681 6.30627815 8.81623311 3.8125 10.3125 C0.28113274 11.17572311 -2.460746 10.69397137 -6 10 C-6 9.34 -6 8.68 -6 8 C-6.99 8 -7.98 8 -9 8 C-9 7.34 -9 6.68 -9 6 C-6.36 6 -3.72 6 -1 6 C-0.67 4.02 -0.34 2.04 0 0 Z " fill="#A8324A" transform="translate(36,121)"/>
<path d="M0 0 C1.134375 0.020625 2.26875 0.04125 3.4375 0.0625 C3.1075 2.0425 2.7775 4.0225 2.4375 6.0625 C-2.5625 6.0625 -7.5625 6.0625 -12.5625 6.0625 C-11.9025 4.4125 -11.2425 2.7625 -10.5625 1.0625 C-9.1084375 1.0934375 -9.1084375 1.0934375 -7.625 1.125 C-3.88736045 1.04872164 -3.92115709 0.06879223 0 0 Z " fill="#1F2A38" transform="translate(97.5625,98.9375)"/>
<path d="M0 0 C1.28132813 0.00902344 2.56265625 0.01804687 3.8828125 0.02734375 C4.87023437 0.03894531 5.85765625 0.05054687 6.875 0.0625 C7.205 1.7125 7.535 3.3625 7.875 5.0625 C2.265 5.0625 -3.345 5.0625 -9.125 5.0625 C-9.125 3.7425 -9.125 2.4225 -9.125 1.0625 C-6.12186252 -0.43906874 -3.33432478 -0.03031204 0 0 Z " fill="#1B2838" transform="translate(89.125,73.9375)"/>
<path d="M0 0 C3.6875 0.875 3.6875 0.875 7 2 C7 3.32 7 4.64 7 6 C7.66 6.33 8.32 6.66 9 7 C9 6.01 9 5.02 9 4 C9.66 4 10.32 4 11 4 C10.67 5.32 10.34 6.64 10 8 C6.04 8 2.08 8 -2 8 C-2 6.68 -2 5.36 -2 4 C-3.65 4 -5.3 4 -7 4 C-6.1028125 3.566875 -6.1028125 3.566875 -5.1875 3.125 C-2.80672208 1.95257974 -2.80672208 1.95257974 0 0 Z " fill="#313A43" transform="translate(92,103)"/>
<path d="M0 0 C3.75257718 -0.34907695 5.56588078 -0.27011863 8.8125 1.75 C12.26967562 5.30595207 12.15433269 8.67083971 12.1875 13.5 C12.20167969 14.4384375 12.21585938 15.376875 12.23046875 16.34375 C11.99479903 19.05994337 11.38484654 20.67915046 10 23 C8.3501993 19.70039859 8.61741639 16.00872116 8.4375 12.375 C8.39431641 11.57320312 8.35113281 10.77140625 8.30664062 9.9453125 C8.20048543 7.9637489 8.09973145 5.98189729 8 4 C7.236875 3.71125 6.47375 3.4225 5.6875 3.125 C3 2 3 2 0 0 Z " fill="#676D71" transform="translate(106,62)"/>
<path d="M0 0 C2.97 0 5.94 0 9 0 C9 1.65 9 3.3 9 5 C8.01 5.495 8.01 5.495 7 6 C7.66 6.33 8.32 6.66 9 7 C9 7.66 9 8.32 9 9 C7.35 9.66 5.7 10.32 4 11 C4 10.01 4 9.02 4 8 C1.69 7.34 -0.62 6.68 -3 6 C-1.68 5.67 -0.36 5.34 1 5 C0.67 3.35 0.34 1.7 0 0 Z " fill="#2C3743" transform="translate(96,74)"/>
<path d="M0 0 C0.99 0 1.98 0 3 0 C2.125 7.75 2.125 7.75 1 10 C-1.97 10 -4.94 10 -8 10 C-8 9.34 -8 8.68 -8 8 C-7.01 8 -6.02 8 -5 8 C-4.731875 7.4225 -4.46375 6.845 -4.1875 6.25 C-2.9611378 3.92636635 -1.75156566 1.96175354 0 0 Z " fill="#87041D" transform="translate(34,116)"/>
<path d="M0 0 C-0.66 0.66 -1.32 1.32 -2 2 C-0.35 2.99 1.3 3.98 3 5 C2.67 5.99 2.34 6.98 2 8 C1.34 8 0.68 8 0 8 C0.33 9.65 0.66 11.3 1 13 C-4.57142857 7.85714286 -4.57142857 7.85714286 -5 4 C-5.66 4 -6.32 4 -7 4 C-7 3.01 -7 2.02 -7 1 C-4.53721199 -0.231394 -2.7204945 -0.07159196 0 0 Z " fill="#454C54" transform="translate(54,75)"/>
<path d="M0 0 C0 0.99 0 1.98 0 3 C-2.64 3 -5.28 3 -8 3 C-8 4.32 -8 5.64 -8 7 C-6.68 7 -5.36 7 -4 7 C-4 7.99 -4 8.98 -4 10 C-4.804375 9.814375 -5.60875 9.62875 -6.4375 9.4375 C-7.283125 9.293125 -8.12875 9.14875 -9 9 C-9.33 9.33 -9.66 9.66 -10 10 C-10.66 10 -11.32 10 -12 10 C-12 8.35 -12 6.7 -12 5 C-13.65 4.67 -15.3 4.34 -17 4 C-13.51783717 1.94862685 -10.22724343 1.43181408 -6.25 0.875 C-5.07953125 0.70742187 -3.9090625 0.53984375 -2.703125 0.3671875 C-1.81109375 0.24601562 -0.9190625 0.12484375 0 0 Z " fill="#232D38" transform="translate(112,87)"/>
<path d="M0 0 C2.625 0.375 2.625 0.375 5 1 C5 3.31 5 5.62 5 8 C3.0085944 8.38133299 1.00720923 8.71325582 -1 9 C-2 8 -2 8 -2.1875 5.0625 C-2 2 -2 2 0 0 Z " fill="#A92846" transform="translate(37,101)"/>
<path d="M0 0 C2.97 0.495 2.97 0.495 6 1 C6 1.66 6 2.32 6 3 C8.64 3 11.28 3 14 3 C14 3.33 14 3.66 14 4 C19.445 4.495 19.445 4.495 25 5 C25 5.33 25 5.66 25 6 C21.77113991 6.11667875 18.54282555 6.18740546 15.3125 6.25 C14.40048828 6.28351563 13.48847656 6.31703125 12.54882812 6.3515625 C8.16116848 6.415383 5.68935057 6.41446668 1.85546875 4.109375 C0 2 0 2 0 0 Z " fill="#020212" transform="translate(69,82)"/>
<path d="M0 0 C1.32 0 2.64 0 4 0 C4.33 3.63 4.66 7.26 5 11 C4.01 11.66 3.02 12.32 2 13 C-0.6875 12.125 -0.6875 12.125 -3 11 C-2.67 9.02 -2.34 7.04 -2 5 C-1.360625 4.896875 -0.72125 4.79375 -0.0625 4.6875 C0.618125 4.460625 1.29875 4.23375 2 4 C2.33 3.01 2.66 2.02 3 1 C2.01 1.33 1.02 1.66 0 2 C0 1.34 0 0.68 0 0 Z " fill="#5A6268" transform="translate(111,75)"/>
<path d="M0 0 C2.97 0.495 2.97 0.495 6 1 C6 2.32 6 3.64 6 5 C4.68 5 3.36 5 2 5 C2 5.66 2 6.32 2 7 C-0.64 7.66 -3.28 8.32 -6 9 C-6 8.34 -6 7.68 -6 7 C-7.32 7 -8.64 7 -10 7 C-10 6.34 -10 5.68 -10 5 C-6.7 5 -3.4 5 0 5 C0 3.35 0 1.7 0 0 Z " fill="#2D363E" transform="translate(97,118)"/>
<path d="M0 0 C1.65 0 3.3 0 5 0 C5 2.33333333 5 4.66666667 5 7 C2.87436897 6.88623383 0.7494739 6.75864369 -1.375 6.625 C-2.55835937 6.55539063 -3.74171875 6.48578125 -4.9609375 6.4140625 C-8 6 -8 6 -10 4 C-8.02 3.34 -6.04 2.68 -4 2 C-3.67 2.66 -3.34 3.32 -3 4 C-1.68 3.67 -0.36 3.34 1 3 C0.67 2.01 0.34 1.02 0 0 Z " fill="#3E4C5A" transform="translate(104,80)"/>
<path d="M0 0 C1.38766322 6.05525768 0.49118146 9.32010626 -2 15 C-5 15 -5 15 -6.6875 13.625 C-8 12 -8 12 -8 10 C-5.03 10.495 -5.03 10.495 -2 11 C-2 8.69 -2 6.38 -2 4 C-2.99 3.67 -3.98 3.34 -5 3 C-5 2.34 -5 1.68 -5 1 C-3 0 -3 0 0 0 Z " fill="#D27C8B" transform="translate(54,101)"/>
<path d="M0 0 C4.62 0 9.24 0 14 0 C15.25 6.625 15.25 6.625 13 10 C13 8.35 13 6.7 13 5 C9.41672247 3.99782936 9.41672247 3.99782936 6 5 C5.67 4.34 5.34 3.68 5 3 C2.47266765 2.34444881 2.47266765 2.34444881 0 2 C0 1.34 0 0.68 0 0 Z " fill="#09182C" transform="translate(66,75)"/>
<path d="M0 0 C0.391875 0.5775 0.78375 1.155 1.1875 1.75 C3.20894541 4.25938051 5.43733245 6.06068402 8 8 C7.34 10.31 6.68 12.62 6 15 C5.01 14.67 4.02 14.34 3 14 C3 12.02 3 10.04 3 8 C1.35 8 -0.3 8 -2 8 C-1.34 7.67 -0.68 7.34 0 7 C0 4.69 0 2.38 0 0 Z " fill="#47535D" transform="translate(65,91)"/>
<path d="M0 0 C1.65 0 3.3 0 5 0 C5 1.98 5 3.96 5 6 C4.01 6.495 4.01 6.495 3 7 C3.20625 7.928125 3.4125 8.85625 3.625 9.8125 C4 13 4 13 2 16 C1.01 13.36 0.02 10.72 -1 8 C-0.34 8 0.32 8 1 8 C0.649375 7.4225 0.29875 6.845 -0.0625 6.25 C-1.14917407 3.64198224 -0.93065133 2.60582371 0 0 Z " fill="#2B353F" transform="translate(63,99)"/>
<path d="M0 0 C0.66 1.32 1.32 2.64 2 4 C1.01 4.495 1.01 4.495 0 5 C0 6.98 0 8.96 0 11 C-1.98 11.33 -3.96 11.66 -6 12 C-6.3125 9.25 -6.3125 9.25 -6 6 C-3.5625 3.75 -3.5625 3.75 -1 2 C-0.67 1.34 -0.34 0.68 0 0 Z " fill="#373E46" transform="translate(108,125)"/>
<path d="M0 0 C2 3.75 2 3.75 2 6 C2.99 5.67 3.98 5.34 5 5 C5.99 5.66 6.98 6.32 8 7 C8 7.66 8 8.32 8 9 C7.34 9 6.68 9 6 9 C5.67 9.66 5.34 10.32 5 11 C0.125 10.125 0.125 10.125 -1 9 C-1.33 9 -1.66 9 -2 9 C-2.20140476 5.37471432 -1.85776765 3.13498292 0 0 Z " fill="#3A4650" transform="translate(64,111)"/>
<path d="M0 0 C0.66 0 1.32 0 2 0 C1.31369664 8.92194363 -4.17200175 15.62986238 -10 22 C-10.99 21.67 -11.98 21.34 -13 21 C-12.32904297 20.41605469 -12.32904297 20.41605469 -11.64453125 19.8203125 C-5.72246052 14.34018734 -1.718798 7.95401202 0 0 Z " fill="#4E575F" transform="translate(57,110)"/>
<path d="M0 0 C1.32 1.32 2.64 2.64 4 4 C3.75 5.9375 3.75 5.9375 3 8 C2.95834635 9.66614608 2.95834635 11.33385392 3 13 C3 16.11257569 2.82638376 18.10765685 2 21 C1.34 21 0.68 21 0 21 C0 14.07 0 7.14 0 0 Z " fill="#16212F" transform="translate(60,91)"/>
<path d="M0 0 C3.96 0 7.92 0 12 0 C12 1.32 12 2.64 12 4 C12.66 4 13.32 4 14 4 C14 4.66 14 5.32 14 6 C12.68 5.67 11.36 5.34 10 5 C10 4.34 10 3.68 10 3 C6.7 3 3.4 3 0 3 C0 2.01 0 1.02 0 0 Z " fill="#2F3947" transform="translate(35,75)"/>
<path d="M0 0 C2.37158509 1.82092681 2.95829917 2.68926153 3.36328125 5.70703125 C3.19392752 16.06366308 3.19392752 16.06366308 1 21 C-0.46726798 17.18510326 0.56663581 14.70988378 2 11 C1.01 11 0.02 11 -1 11 C-1 9.02 -1 7.04 -1 5 C-0.01 5.495 -0.01 5.495 1 6 C0.67 4.02 0.34 2.04 0 0 Z " fill="#686D71" transform="translate(112,113)"/>
<path d="M0 0 C1.32 0 2.64 0 4 0 C4 0.66 4 1.32 4 2 C5.32 2 6.64 2 8 2 C8.25532751 5.06393013 8.21861333 6.63233212 6.625 9.3125 C5.820625 10.1478125 5.820625 10.1478125 5 11 C4.34 11 3.68 11 3 11 C2.92652344 10.06027344 2.92652344 10.06027344 2.8515625 9.1015625 C2.77679688 8.28429687 2.70203125 7.46703125 2.625 6.625 C2.55539063 5.81289062 2.48578125 5.00078125 2.4140625 4.1640625 C2.17107412 1.79665809 2.17107412 1.79665809 0 0 Z " fill="#8D011B" transform="translate(37,83)"/>
<path d="M0 0 C0.66 0 1.32 0 2 0 C3.33333333 1.33333333 4.66666667 2.66666667 6 4 C4.35 4 2.7 4 1 4 C1.33 5.98 1.66 7.96 2 10 C2.99 10.33 3.98 10.66 5 11 C3.02 11.66 1.04 12.32 -1 13 C-2.42857143 4.57142857 -2.42857143 4.57142857 0 0 Z " fill="#656E74" transform="translate(60,63)"/>
<path d="M0 0 C1.48828125 1.14453125 1.48828125 1.14453125 3 3 C3.29296875 5.69921875 3.29296875 5.69921875 3.1875 8.6875 C3.16042969 9.68136719 3.13335937 10.67523438 3.10546875 11.69921875 C3.07066406 12.45847656 3.03585938 13.21773437 3 14 C2.34 14 1.68 14 1 14 C0.67 14.66 0.34 15.32 0 16 C-0.66 13.69 -1.32 11.38 -2 9 C-1.34 8.67 -0.68 8.34 0 8 C0 5.36 0 2.72 0 0 Z " fill="#424E57" transform="translate(73,100)"/>
<path d="M0 0 C1.32 0 2.64 0 4 0 C4 0.66 4 1.32 4 2 C3.34 2 2.68 2 2 2 C2 2.66 2 3.32 2 4 C2.99 4.33 3.98 4.66 5 5 C1.375 10.75 1.375 10.75 -2 13 C-1.85966889 11.02043559 -1.7125877 9.04134859 -1.5625 7.0625 C-1.48128906 5.96035156 -1.40007813 4.85820313 -1.31640625 3.72265625 C-1 1 -1 1 0 0 Z " fill="#B8354E" transform="translate(34,86)"/>
<path d="M0 0 C1.65 0.33 3.3 0.66 5 1 C5 3.97 5 6.94 5 10 C3.35 10.33 1.7 10.66 0 11 C0.66666667 8.33333333 1.33333333 5.66666667 2 3 C1.01 3 0.02 3 -1 3 C-0.67 2.01 -0.34 1.02 0 0 Z " fill="#464E54" transform="translate(110,65)"/>
<path d="M0 0 C0.33 0.99 0.66 1.98 1 3 C0.01 3.33 -0.98 3.66 -2 4 C-1.979375 4.94875 -1.95875 5.8975 -1.9375 6.875 C-2 10 -2 10 -3 12 C-4.32 12 -5.64 12 -7 12 C-6.32829194 8.1936543 -5.27253436 4.64793184 -4 1 C-3.67 1.66 -3.34 2.32 -3 3 C-2.34 3 -1.68 3 -1 3 C-0.67 2.01 -0.34 1.02 0 0 Z " fill="#222E3B" transform="translate(63,109)"/>
<path d="M0 0 C0 1.65 0 3.3 0 5 C-0.33 4.34 -0.66 3.68 -1 3 C-3.46800047 4.15173355 -5.04783565 5.04783565 -7 7 C-7.33 6.01 -7.66 5.02 -8 4 C-8.99 4.66 -9.98 5.32 -11 6 C-9.55369928 1.42004773 -9.55369928 1.42004773 -7.1875 -0.375 C-4.4719851 -1.1508614 -2.69201151 -0.74778098 0 0 Z " fill="#7E1936" transform="translate(34,88)"/>
<path d="M0 0 C3.18141867 -0.46557346 5.25343123 -0.50963377 7.95703125 1.3359375 C9.6935608 2.84258024 11.369718 4.37936464 13 6 C12.34 7.32 11.68 8.64 11 10 C10.67 9.34 10.34 8.68 10 8 C8.35 8 6.7 8 5 8 C5 6.35 5 4.7 5 3 C2.525 2.01 2.525 2.01 0 1 C0 0.67 0 0.34 0 0 Z " fill="#B1475E" transform="translate(40,81)"/>
<path d="M0 0 C0.66 0.66 1.32 1.32 2 2 C-2.67375394 5.97269085 -6.18154253 7.40014381 -12.375 6.9375 C-17.65763195 6.34236805 -17.65763195 6.34236805 -20 4 C-19.19175781 4.02320313 -18.38351563 4.04640625 -17.55078125 4.0703125 C-16.48214844 4.08835938 -15.41351563 4.10640625 -14.3125 4.125 C-13.25675781 4.14820313 -12.20101562 4.17140625 -11.11328125 4.1953125 C-6.57566906 3.91064423 -3.75151223 2.50100815 0 0 Z " fill="#3F3B42" transform="translate(45,127)"/>
<path d="M0 0 C0.99 0.33 1.98 0.66 3 1 C2.38722388 3.96175123 1.74627478 5.38058783 0 8 C0 9.32 0 10.64 0 12 C2.31 12 4.62 12 7 12 C7 12.33 7 12.66 7 13 C4.36 13 1.72 13 -1 13 C-1.12375 12.195625 -1.2475 11.39125 -1.375 10.5625 C-1.684375 9.2940625 -1.684375 9.2940625 -2 8 C-2.66 7.67 -3.32 7.34 -4 7 C-3.34 7 -2.68 7 -2 7 C-0.98888907 3.95086772 -0.98888907 3.95086772 -2 1 C-1.34 0.67 -0.68 0.34 0 0 Z " fill="#0B1628" transform="translate(81,98)"/>
<path d="M0 0 C0.33 1.32 0.66 2.64 1 4 C-3.455 5.485 -3.455 5.485 -8 7 C-7.40138258 4.64828869 -6.73075648 2.3140622 -6 0 C-3.50907189 -1.24546405 -2.58919267 -0.7767578 0 0 Z " fill="#F9F3F5" transform="translate(51,89)"/>
<path d="M0 0 C1 3 1 3 0.109375 5.015625 C-0.33921875 5.75296875 -0.7878125 6.4903125 -1.25 7.25 C-3.50436855 11.08682223 -5.33335242 14.8772402 -7 19 C-8.61121645 14.49898888 -6.97817602 11.6327532 -5.19140625 7.41796875 C-3.80146105 4.59706357 -2.14445438 2.2976297 0 0 Z " fill="#8C3348" transform="translate(25,86)"/>
<path d="M0 0 C2.88437779 1.29299694 4.87219421 2.65941363 7 5 C6.67 5.99 6.34 6.98 6 8 C3.9375 8.6875 3.9375 8.6875 2 9 C-0.29013653 5.5647952 -0.17842973 4.014669 0 0 Z " fill="#F6EDF0" transform="translate(37,117)"/>
<path d="M0 0 C1.98 0.99 1.98 0.99 4 2 C4.36923077 7.41538462 4.36923077 7.41538462 2.5 10.375 C2.005 10.91125 1.51 11.4475 1 12 C-0.26237731 9.47524538 -0.09856404 7.68799534 -0.0625 4.875 C-0.05347656 3.96492188 -0.04445313 3.05484375 -0.03515625 2.1171875 C-0.02355469 1.41851562 -0.01195313 0.71984375 0 0 Z " fill="#3B041E" transform="translate(24,106)"/>
<path d="M0 0 C0.33 0.66 0.66 1.32 1 2 C3.52733235 2.65555119 3.52733235 2.65555119 6 3 C6 3.66 6 4.32 6 5 C4.35 5 2.7 5 1 5 C0.67 5.66 0.34 6.32 0 7 C0 6.34 0 5.68 0 5 C-2.97 4.505 -2.97 4.505 -6 4 C-6 3.01 -6 2.02 -6 1 C-4.7934375 1.0309375 -4.7934375 1.0309375 -3.5625 1.0625 C-1.06645115 1.29633621 -1.06645115 1.29633621 0 0 Z " fill="#4D5863" transform="translate(68,62)"/>
<path d="M0 0 C0.99 0.33 1.98 0.66 3 1 C3.66 0.67 4.32 0.34 5 0 C5 2.31 5 4.62 5 7 C5.66 7.33 6.32 7.66 7 8 C3.62537285 7.45276317 1.91765 6.9451 -1 5 C-0.67 3.35 -0.34 1.7 0 0 Z " fill="#141D2B" transform="translate(81,125)"/>
<path d="M0 0 C2.875 0.3125 2.875 0.3125 6 1 C8.4294516 4.6441774 8.16179575 6.71241272 8 11 C7.67 11 7.34 11 7 11 C6.896875 10.21625 6.79375 9.4325 6.6875 8.625 C6.22404978 5.66954819 6.22404978 5.66954819 3 4 C3.33 3.34 3.66 2.68 4 2 C1.69 2.66 -0.62 3.32 -3 4 C-2.01 2.68 -1.02 1.36 0 0 Z " fill="#A80B2B" transform="translate(35,96)"/>
<path d="M0 0 C3.98566544 2.10354565 6.53073752 4.20791833 9 8 C9.75 11.3125 9.75 11.3125 10 14 C9.34 14 8.68 14 8 14 C8 12.68 8 11.36 8 10 C7.34 9.67 6.68 9.34 6 9 C4.92329184 7.88702965 3.88519147 6.73617656 2.875 5.5625 C2.33617187 4.94503906 1.79734375 4.32757813 1.2421875 3.69140625 C0 2 0 2 0 0 Z " fill="#A12E45" transform="translate(46,80)"/>
<path d="M0 0 C0.99 0 1.98 0 3 0 C3.125 2.375 3.125 2.375 3 5 C1 7 1 7 -1.625 7.125 C-2.40875 7.08375 -3.1925 7.0425 -4 7 C-1.125 1.125 -1.125 1.125 0 0 Z " fill="#420624" transform="translate(30,91)"/>
<path d="M0 0 C1.45922693 0.11409593 2.91740598 0.24165544 4.375 0.375 C5.59316406 0.47941406 5.59316406 0.47941406 6.8359375 0.5859375 C9 1 9 1 11 3 C11 3.66 11 4.32 11 5 C10.01 5 9.02 5 8 5 C8 4.34 8 3.68 8 3 C7.34 3 6.68 3 6 3 C5.67 3.66 5.34 4.32 5 5 C3.02 5 1.04 5 -1 5 C-0.67 3.35 -0.34 1.7 0 0 Z " fill="#252F3D" transform="translate(94,63)"/>
<path d="M0 0 C0.391875 0.639375 0.78375 1.27875 1.1875 1.9375 C3.38472296 4.43778819 4.75791433 4.64950425 8 5 C8 5.66 8 6.32 8 7 C5.36 7.33 2.72 7.66 0 8 C-0.79953138 4.71303767 -1.09658936 3.28976808 0 0 Z " fill="#AD5168" transform="translate(36,121)"/>
<path d="M0 0 C2.625 -0.1875 2.625 -0.1875 5 0 C4.75 1.875 4.75 1.875 4 4 C2 5.125 2 5.125 0 6 C-0.33 6.66 -0.66 7.32 -1 8 C-1.625 5.6875 -1.625 5.6875 -2 3 C-1.34 2.01 -0.68 1.02 0 0 Z " fill="#1D2632" transform="translate(65,126)"/>
<path d="M0 0 C1.99097846 2.98646769 2.94124926 5.59687262 4 9 C2.68 9.99 1.36 10.98 0 12 C-1.4606285 9.35261084 -2 8.10551666 -2 5 C-1.34 4.67 -0.68 4.34 0 4 C0 2.68 0 1.36 0 0 Z " fill="#B72941" transform="translate(44,111)"/>
<path d="M0 0 C1.65 0 3.3 0 5 0 C5 0.66 5 1.32 5 2 C5.66 2.33 6.32 2.66 7 3 C7 2.01 7 1.02 7 0 C7.66 0 8.32 0 9 0 C8.67 1.32 8.34 2.64 8 4 C4.37 4 0.74 4 -3 4 C-2.34 3.67 -1.68 3.34 -1 3 C-0.67 2.01 -0.34 1.02 0 0 Z " fill="#212C3B" transform="translate(94,107)"/>
<path d="M0 0 C0.89203125 0.00902344 1.7840625 0.01804687 2.703125 0.02734375 C3.37859375 0.03894531 4.0540625 0.05054687 4.75 0.0625 C2.75 2.0625 2.75 2.0625 0.3671875 2.2578125 C-0.53773437 2.23460938 -1.44265625 2.21140625 -2.375 2.1875 C-3.74011719 2.16042969 -3.74011719 2.16042969 -5.1328125 2.1328125 C-5.83148438 2.10960938 -6.53015625 2.08640625 -7.25 2.0625 C-7.25 2.7225 -7.25 3.3825 -7.25 4.0625 C-9.23 4.3925 -11.21 4.7225 -13.25 5.0625 C-9.04730017 0.40951091 -6.13187263 -0.08068253 0 0 Z " fill="#616A70" transform="translate(42.25,72.9375)"/>
<path d="M0 0 C2.97 0.99 5.94 1.98 9 3 C8.67 4.32 8.34 5.64 8 7 C5.125 6.3125 5.125 6.3125 2 5 C0.625 2.375 0.625 2.375 0 0 Z " fill="#363C41" transform="translate(26,134)"/>
<path d="M0 0 C0.515625 0.165 1.03125 0.33 1.5625 0.5 C4.73363876 1.15049 7.77218334 1.0620734 11 1 C11 1.66 11 2.32 11 3 C10.2575 2.95875 9.515 2.9175 8.75 2.875 C6.01480713 2.81279555 6.01480713 2.81279555 3.875 4.0625 C2 5 2 5 -1 4 C-0.67 2.68 -0.34 1.36 0 0 Z " fill="#1D2732" transform="translate(49,131)"/>
<path d="M0 0 C1.32 0 2.64 0 4 0 C4 3.96 4 7.92 4 12 C3.01 12.495 3.01 12.495 2 13 C2.03255208 10.94921875 2.06510417 8.8984375 2.09765625 6.84765625 C2.20561184 4.98267859 2.20561184 4.98267859 1 4 C0.34 4.99 -0.32 5.98 -1 7 C-1.04254356 5.00045254 -1.04080783 2.99958364 -1 1 C-0.67 0.67 -0.34 0.34 0 0 Z " fill="#2A343E" transform="translate(73,98)"/>
<path d="M0 0 C1.25180279 4.21919103 0.67252421 7.96088565 0.0625 12.25 C-0.03740234 12.99507812 -0.13730469 13.74015625 -0.24023438 14.5078125 C-0.48680156 16.33945442 -0.74250391 18.16986251 -1 20 C-1.33 20 -1.66 20 -2 20 C-2.05379226 17.04142591 -2.09357093 14.08382279 -2.125 11.125 C-2.14175781 10.28324219 -2.15851562 9.44148438 -2.17578125 8.57421875 C-2.18222656 7.76855469 -2.18867188 6.96289062 -2.1953125 6.1328125 C-2.21102295 5.01737061 -2.21102295 5.01737061 -2.22705078 3.87939453 C-2 2 -2 2 0 0 Z " fill="#191A25" transform="translate(17,97)"/>
<path d="M0 0 C0.33 0.66 0.66 1.32 1 2 C3.31 2 5.62 2 8 2 C7.67 2.99 7.34 3.98 7 5 C6.65179959 6.66362417 6.31595508 8.32995171 6 10 C5.01 10.33 4.02 10.66 3 11 C3.2475 10.4225 3.495 9.845 3.75 9.25 C3.87375 8.13625 3.87375 8.13625 4 7 C2.70896357 5.6256709 1.3743291 4.29103643 0 3 C0 2.01 0 1.02 0 0 Z " fill="#313D49" transform="translate(59,88)"/>
<path d="M0 0 C0.66 0 1.32 0 2 0 C3.80230168 3.82989106 4.19622241 6.78121808 4 11 C4.66 11.33 5.32 11.66 6 12 C5.01 13.485 5.01 13.485 4 15 C4 14.01 4 13.02 4 12 C3.01 11.67 2.02 11.34 1 11 C0.67 7.37 0.34 3.74 0 0 Z " fill="#4F565A" transform="translate(107,113)"/>
<path d="M0 0 C0 2.18789679 -0.0482789 4.37594878 -0.125 6.5625 C-0.38825035 10.06571214 -0.38825035 10.06571214 2 12 C1.625 14.125 1.625 14.125 1 16 C-1.79980627 11.8002906 -3.67631283 8.1399775 -3 3 C-1.5 1.1875 -1.5 1.1875 0 0 Z " fill="#A50926" transform="translate(47,103)"/>
<path d="M0 0 C1.65 0 3.3 0 5 0 C4.67 0.99 4.34 1.98 4 3 C5.32 3 6.64 3 8 3 C8 2.01 8 1.02 8 0 C8.66 0.33 9.32 0.66 10 1 C10 1.99 10 2.98 10 4 C7.03 4 4.06 4 1 4 C0.67 2.68 0.34 1.36 0 0 Z M-2 2 C0 3 0 3 0 3 Z " fill="#171F2C" transform="translate(91,133)"/>
<path d="M0 0 C0.66 0 1.32 0 2 0 C2 1.32 2 2.64 2 4 C2.99 4.33 3.98 4.66 5 5 C5 8.96 5 12.92 5 17 C4.67 17 4.34 17 4 17 C3.67 14.03 3.34 11.06 3 8 C2.34 8 1.68 8 1 8 C0.67 5.36 0.34 2.72 0 0 Z " fill="#AD2840" transform="translate(52,90)"/>
<path d="M0 0 C-0.33 0.556875 -0.66 1.11375 -1 1.6875 C-2.1309601 4.30284522 -2.15662974 6.1806646 -2 9 C-2.99 8.34 -3.98 7.68 -5 7 C-5 6.01 -5 5.02 -5 4 C-5.66 4 -6.32 4 -7 4 C-7 3.01 -7 2.02 -7 1 C-4.53721199 -0.231394 -2.7204945 -0.07159196 0 0 Z " fill="#3F454F" transform="translate(54,75)"/>
<path d="M0 0 C0.99 0 1.98 0 3 0 C2.67 1.65 2.34 3.3 2 5 C3.32 5.33 4.64 5.66 6 6 C3.36 6 0.72 6 -2 6 C-1.125 1.125 -1.125 1.125 0 0 Z " fill="#1F2630" transform="translate(42,136)"/>
<path d="M0 0 C0.66 0 1.32 0 2 0 C2 1.32 2 2.64 2 4 C2.99 3.34 3.98 2.68 5 2 C7.6875 1.875 7.6875 1.875 10 2 C10 3.32 10 4.64 10 6 C7.03 5.67 4.06 5.34 1 5 C0.67 3.35 0.34 1.7 0 0 Z " fill="#192432" transform="translate(80,105)"/>
<path d="M0 0 C1.65 0.33 3.3 0.66 5 1 C4.67 2.32 4.34 3.64 4 5 C2.02 5 0.04 5 -2 5 C-1.34 3.35 -0.68 1.7 0 0 Z " fill="#162233" transform="translate(87,100)"/>
<path d="M0 0 C0.99 0.33 1.98 0.66 3 1 C2.67 4.3 2.34 7.6 2 11 C1.01 10.67 0.02 10.34 -1 10 C-1.33 8.02 -1.66 6.04 -2 4 C-1.34 4 -0.68 4 0 4 C0 2.68 0 1.36 0 0 Z " fill="#535C61" transform="translate(56,79)"/>
<path d="M0 0 C0.99 0 1.98 0 3 0 C3 1.65 3 3.3 3 5 C-0.75 6.125 -0.75 6.125 -3 5 C-1.125 1.125 -1.125 1.125 0 0 Z " fill="#152235" transform="translate(95,67)"/>
<path d="M0 0 C4.55384615 -0.36923077 4.55384615 -0.36923077 6.8125 1.5 C7.204375 1.995 7.59625 2.49 8 3 C7 4 7 4 4.93359375 4.09765625 C4.10988281 4.08605469 3.28617188 4.07445312 2.4375 4.0625 C1.61121094 4.05347656 0.78492188 4.04445312 -0.06640625 4.03515625 C-0.70449219 4.02355469 -1.34257813 4.01195312 -2 4 C-1.01 3.67 -0.02 3.34 1 3 C0.67 2.01 0.34 1.02 0 0 Z " fill="#070E1E" transform="translate(46,137)"/>
<path d="M0 0 C0.99 0.33 1.98 0.66 3 1 C3.5625 2.9375 3.5625 2.9375 4 5 C4.66 5.66 5.32 6.32 6 7 C4.68 7.33 3.36 7.66 2 8 C0.68 6.35 -0.64 4.7 -2 3 C-1.34 2.67 -0.68 2.34 0 2 C0 1.34 0 0.68 0 0 Z " fill="#851D37" transform="translate(23,117)"/>
<path d="M0 0 C2.97 0.495 2.97 0.495 6 1 C6 1.66 6 2.32 6 3 C8.64 3 11.28 3 14 3 C14 3.33 14 3.66 14 4 C10.04 4 6.08 4 2 4 C1.34 2.68 0.68 1.36 0 0 Z " fill="#0B061C" transform="translate(69,82)"/>
<path d="M0 0 C-0.99 0.66 -1.98 1.32 -3 2 C-4.67423683 3.32381517 -6.34211215 4.65576661 -8 6 C-8 4.02 -8 2.04 -8 0 C-8.99 -0.33 -9.98 -0.66 -11 -1 C-6.74938644 -2.41687119 -4.28148375 -1.19320039 0 0 Z " fill="#263343" transform="translate(82,65)"/>
<path d="M0 0 C3.93774177 -0.36630156 5.56539771 -0.30233203 8.875 2 C9.926875 2.99 9.926875 2.99 11 4 C10.67 5.32 10.34 6.64 10 8 C9.649375 7.401875 9.29875 6.80375 8.9375 6.1875 C6.28731217 3.19535245 3.72226816 2.40462949 0 1 C0 0.67 0 0.34 0 0 Z " fill="#787F83" transform="translate(106,62)"/>
<path d="M0 0 C2.4375 0.6875 2.4375 0.6875 5 2 C5.8125 4.625 5.8125 4.625 6 7 C5.34 7 4.68 7 4 7 C4 6.34 4 5.68 4 5 C2.68 5.33 1.36 5.66 0 6 C0 4.02 0 2.04 0 0 Z " fill="#2E3A45" transform="translate(70,90)"/>
<path d="M0 0 C0.66 0.33 1.32 0.66 2 1 C2 1.66 2 2.32 2 3 C3.175625 2.690625 3.175625 2.690625 4.375 2.375 C5.674375 2.189375 5.674375 2.189375 7 2 C7.66 2.66 8.32 3.32 9 4 C7.35 4 5.7 4 4 4 C3.67 4.99 3.34 5.98 3 7 C2.67 6.34 2.34 5.68 2 5 C1.34 5 0.68 5 0 5 C-0.5625 3.0625 -0.5625 3.0625 -1 1 C-0.67 0.67 -0.34 0.34 0 0 Z " fill="#3D4751" transform="translate(58,83)"/>
<path d="M0 0 C0.33 0 0.66 0 1 0 C1.33 5.28 1.66 10.56 2 16 C1.34 16.33 0.68 16.66 0 17 C-1.40333568 11.23073111 -0.67296616 5.81856895 0 0 Z " fill="#362733" transform="translate(16,106)"/>
<path d="M0 0 C0.66 0 1.32 0 2 0 C2 0.99 2 1.98 2 3 C3.32 3.33 4.64 3.66 6 4 C4.68 4 3.36 4 2 4 C1.67 4.99 1.34 5.98 1 7 C0.34 7 -0.32 7 -1 7 C-1.04254356 5.00045254 -1.04080783 2.99958364 -1 1 C-0.67 0.67 -0.34 0.34 0 0 Z " fill="#262F39" transform="translate(83,102)"/>
<path d="M0 0 C0.33 0.66 0.66 1.32 1 2 C2.65 2 4.3 2 6 2 C6.33 2.99 6.66 3.98 7 5 C4.625 5.625 4.625 5.625 2 6 C1.34 5.34 0.68 4.68 0 4 C0 2.68 0 1.36 0 0 Z " fill="#020B21" transform="translate(65,75)"/>
<path d="M0 0 C0.66 0.66 1.32 1.32 2 2 C2.66 1.67 3.32 1.34 4 1 C4.66 2.32 5.32 3.64 6 5 C5.01 5.495 5.01 5.495 4 6 C3.01 7.485 3.01 7.485 2 9 C0.50178941 5.62902617 0 3.79557881 0 0 Z " fill="#444449" transform="translate(15,120)"/>
<path d="M0 0 C2.97 0.495 2.97 0.495 6 1 C6 2.32 6 3.64 6 5 C5.38125 4.814375 4.7625 4.62875 4.125 4.4375 C1.95839822 3.76313824 1.95839822 3.76313824 0 5 C0 3.35 0 1.7 0 0 Z " fill="#272F39" transform="translate(97,118)"/>
<path d="M0 0 C1.74271938 2.297221 3.39911152 4.59866729 5 7 C4 8 4 8 0.9375 8.0625 C-0.031875 8.041875 -1.00125 8.02125 -2 8 C-1.34 7.67 -0.68 7.34 0 7 C0 4.69 0 2.38 0 0 Z " fill="#545E65" transform="translate(65,91)"/>
<path d="M0 0 C1.32 0 2.64 0 4 0 C4 0.66 4 1.32 4 2 C2.68 2 1.36 2 0 2 C0 2.66 0 3.32 0 4 C0.99 4.33 1.98 4.66 3 5 C3 5.33 3 5.66 3 6 C0.69 5.67 -1.62 5.34 -4 5 C-3.01 4.67 -2.02 4.34 -1 4 C-0.26676204 1.98491642 -0.26676204 1.98491642 0 0 Z " fill="#172034" transform="translate(85,80)"/>
<path d="M0 0 C1.21816406 0.03480469 1.21816406 0.03480469 2.4609375 0.0703125 C3.68683594 0.09738281 3.68683594 0.09738281 4.9375 0.125 C5.87722656 0.15980469 5.87722656 0.15980469 6.8359375 0.1953125 C5.8459375 0.6903125 5.8459375 0.6903125 4.8359375 1.1953125 C4.8359375 1.8553125 4.8359375 2.5153125 4.8359375 3.1953125 C1.56318724 3.1953125 -1.0106945 2.89606094 -4.1640625 2.1953125 C-2.1640625 0.1953125 -2.1640625 0.1953125 0 0 Z " fill="#838B91" transform="translate(66.1640625,60.8046875)"/>
<path d="M0 0 C1.65 0 3.3 0 5 0 C5 2.33333333 5 4.66666667 5 7 C4.34 7 3.68 7 3 7 C3 5.68 3 4.36 3 3 C2.34 3 1.68 3 1 3 C0.67 2.01 0.34 1.02 0 0 Z " fill="#3B4552" transform="translate(104,80)"/>
<path d="M0 0 C0.66 0 1.32 0 2 0 C1.49287967 3.71888239 0.88391785 6.73454239 -1 10 C-1.66 10 -2.32 10 -3 10 C-2.01 6.7 -1.02 3.4 0 0 Z " fill="#B0283F" transform="translate(54,108)"/>
<path d="M0 0 C0 0.99 0 1.98 0 3 C-1 4 -1 4 -3.9375 4.1875 C-7 4 -7 4 -9 2 C-8.2575 1.855625 -7.515 1.71125 -6.75 1.5625 C-4.47972261 1.09812508 -2.24240521 0.58136431 0 0 Z " fill="#9E0E30" transform="translate(40,109)"/>
<path d="M0 0 C2.0625 0.4375 2.0625 0.4375 4 1 C3.01 1.495 3.01 1.495 2 2 C2.33 2.99 2.66 3.98 3 5 C1.35 5.33 -0.3 5.66 -2 6 C-1.125 1.125 -1.125 1.125 0 0 Z " fill="#9D2641" transform="translate(24,98)"/>
<path d="M0 0 C-3.33333333 1.66666667 -6.66666667 3.33333333 -10 5 C-9.8125 3.125 -9.8125 3.125 -9 1 C-5.5637798 -0.95028714 -3.70512932 -1.09810869 0 0 Z " fill="#A3354B" transform="translate(36,83)"/>
<path d="M0 0 C1.98 0 3.96 0 6 0 C6.33 0.99 6.66 1.98 7 3 C5.02 3.33 3.04 3.66 1 4 C0.67 2.68 0.34 1.36 0 0 Z " fill="#132135" transform="translate(83,75)"/>
<path d="M0 0 C1.65 0 3.3 0 5 0 C4.01 1.98 3.02 3.96 2 6 C1.01 6 0.02 6 -1 6 C-0.67 4.02 -0.34 2.04 0 0 Z " fill="#45505A" transform="translate(61,67)"/>
<path d="M0 0 C0.33 0 0.66 0 1 0 C1.33 1.65 1.66 3.3 2 5 C2.99 4.67 3.98 4.34 5 4 C4.34 5.98 3.68 7.96 3 10 C0.64551835 7.44931155 0.01672076 6.28982642 -0.1875 2.75 C-0.125625 1.8425 -0.06375 0.935 0 0 Z " fill="#303942" transform="translate(71,110)"/>
<path d="M0 0 C0.99 0.66 1.98 1.32 3 2 C1.68 3.32 0.36 4.64 -1 6 C-1 5.34 -1 4.68 -1 4 C-1.66 4 -2.32 4 -3 4 C-2.67 3.01 -2.34 2.02 -2 1 C-1.34 0.67 -0.68 0.34 0 0 Z " fill="#B32A42" transform="translate(30,116)"/>
<path d="M0 0 C1.32 0 2.64 0 4 0 C4.33 2.64 4.66 5.28 5 8 C4.34 6.68 3.68 5.36 3 4 C2.01 4 1.02 4 0 4 C0 2.68 0 1.36 0 0 Z " fill="#3C444B" transform="translate(104,114)"/>
<path d="M0 0 C0 1.65 0 3.3 0 5 C-1.98 5.99 -1.98 5.99 -4 7 C-3.625 4.0625 -3.625 4.0625 -3 1 C-1 0 -1 0 0 0 Z " fill="#47535C" transform="translate(70,108)"/>
<path d="M0 0 C0.33 0 0.66 0 1 0 C1 3.96 1 7.92 1 12 C-1.66666667 6.66666667 -1.66666667 6.66666667 -2 4 C-1.0625 1.75 -1.0625 1.75 0 0 Z " fill="#BA354B" transform="translate(55,96)"/>
<path d="M0 0 C1.32 0 2.64 0 4 0 C4 1.98 4 3.96 4 6 C3.01 5.67 2.02 5.34 1 5 C0.67 3.35 0.34 1.7 0 0 Z " fill="#374046" transform="translate(64,99)"/>
<path d="M0 0 C4.8 3.32307692 4.8 3.32307692 5.8125 6.75 C5.874375 7.4925 5.93625 8.235 6 9 C5.01 9.495 5.01 9.495 4 10 C4 8.68 4 7.36 4 6 C3.01 5.67 2.02 5.34 1 5 C0.67 3.35 0.34 1.7 0 0 Z " fill="#333C43" transform="translate(101,93)"/>
<path d="M0 0 C0.93065133 2.60582371 1.14917407 3.64198224 0.0625 6.25 C-0.4634375 7.11625 -0.4634375 7.11625 -1 8 C-1.99 8 -2.98 8 -4 8 C-2.25 2.25 -2.25 2.25 0 0 Z " fill="#292831" transform="translate(19,91)"/>
<path d="M0 0 C0.33 0.66 0.66 1.32 1 2 C0.67 2.99 0.34 3.98 0 5 C0.99 5.66 1.98 6.32 3 7 C0.03 7 -2.94 7 -6 7 C-5.071875 6.1028125 -5.071875 6.1028125 -4.125 5.1875 C-1.86323046 2.99188856 -1.86323046 2.99188856 0 0 Z " fill="#08162B" transform="translate(83,66)"/>
<path d="M0 0 C0.99 0.33 1.98 0.66 3 1 C2.67 2.65 2.34 4.3 2 6 C0.68 5.67 -0.64 5.34 -2 5 C-1.34 3.35 -0.68 1.7 0 0 Z " fill="#50575A" transform="translate(112,100)"/>
<path d="M0 0 C0.99 0 1.98 0 3 0 C3 2.64 3 5.28 3 8 C2.01 7.34 1.02 6.68 0 6 C-0.1875 2.875 -0.1875 2.875 0 0 Z " fill="#656C6E" transform="translate(113,97)"/>
<path d="M0 0 C0 0.66 0 1.32 0 2 C-0.66 2 -1.32 2 -2 2 C-2.33 2.99 -2.66 3.98 -3 5 C-3.99 5 -4.98 5 -6 5 C-6 3.68 -6 2.36 -6 1 C-4 0 -4 0 0 0 Z " fill="#333D46" transform="translate(110,89)"/>
<path d="M0 0 C0.66 0 1.32 0 2 0 C0.55746343 3.36591866 -1.33264727 5.51047079 -4 8 C-4.66 7.67 -5.32 7.34 -6 7 C-5.04882866 5.8274869 -4.08882991 4.66212985 -3.125 3.5 C-2.59132813 2.8503125 -2.05765625 2.200625 -1.5078125 1.53125 C-0.76144531 0.77328125 -0.76144531 0.77328125 0 0 Z " fill="#434B4F" transform="translate(27,78)"/>
<path d="M0 0 C1.65 0.33 3.3 0.66 5 1 C5 1.99 5 2.98 5 4 C2.03 3.505 2.03 3.505 -1 3 C-0.67 2.01 -0.34 1.02 0 0 Z " fill="#51595F" transform="translate(110,65)"/>
<path d="M0 0 C1.65 0 3.3 0 5 0 C4.34 1.32 3.68 2.64 3 4 C1.68 4 0.36 4 -1 4 C-0.67 2.68 -0.34 1.36 0 0 Z " fill="#0D1B30" transform="translate(85,67)"/>
<path d="M0 0 C2 3.75 2 3.75 2 6 C0 7.625 0 7.625 -2 9 C-2.20140476 5.37471432 -1.85776765 3.13498292 0 0 Z " fill="#444D55" transform="translate(64,111)"/>
<path d="M0 0 C2.475 0.495 2.475 0.495 5 1 C4.67 2.32 4.34 3.64 4 5 C2 3.625 2 3.625 0 2 C0 1.34 0 0.68 0 0 Z " fill="#E9D8DF" transform="translate(46,111)"/>
<path d="M0 0 C0.66 0 1.32 0 2 0 C3.33333333 1.33333333 4.66666667 2.66666667 6 4 C3.69 4.33 1.38 4.66 -1 5 C-0.67 3.35 -0.34 1.7 0 0 Z " fill="#757E82" transform="translate(60,63)"/>
</svg>
