<?xml version="1.0" encoding="UTF-8"?>
<svg version="1.1" xmlns="http://www.w3.org/2000/svg" width="148" height="156">
<path d="M0 0 C0.65997986 -0.00367584 1.31995972 -0.00735168 1.99993896 -0.01113892 C14.02033261 -0.02189975 24.85020525 1.29204525 34.25 9.5 C34.25 10.16 34.25 10.82 34.25 11.5 C34.91 11.5 35.57 11.5 36.25 11.5 C36.25 12.16 36.25 12.82 36.25 13.5 C36.91 13.5 37.57 13.5 38.25 13.5 C39.58346412 15.45030467 40.68891316 17.49004369 41.8359375 19.5546875 C43.45545005 21.78263571 44.81587871 22.30944959 47.25 23.5 C50.97036623 28.42505624 52.313241 34.40356771 52.25 40.5 C51.755 41.49 51.755 41.49 51.25 42.5 C51.2963579 49.09441075 52.43857013 55.44813375 53.8125 61.875 C55.45953342 70.19991562 55.58692833 78.54296258 55.625 87 C55.63861572 88.28825684 55.65223145 89.57651367 55.66625977 90.90380859 C55.63234403 98.04469749 55.04042794 103.92160789 52.25 110.5 C51.81558594 111.68207031 51.38117188 112.86414063 50.93359375 114.08203125 C50.31677734 115.68111328 50.31677734 115.68111328 49.6875 117.3125 C49.06681641 118.93091797 49.06681641 118.93091797 48.43359375 120.58203125 C47.25 123.5 47.25 123.5 46.1484375 125.63671875 C44.92230154 128.17961811 44.56516635 130.73099796 44.10546875 133.5 C42.79118373 136.57266635 41.05139642 137.69966429 38.25 139.5 C35.3954975 139.84287211 32.9459425 139.96989493 30.10546875 139.890625 C29.33568192 139.88496521 28.56589508 139.87930542 27.77278137 139.87347412 C25.32704057 139.85117872 22.8827939 139.80099875 20.4375 139.75 C18.77410978 139.729926 17.11069647 139.7116768 15.44726562 139.6953125 C11.38093942 139.65133684 7.31572256 139.58235979 3.25 139.5 C2.26 136.53 1.27 133.56 0.25 130.5 C-0.74 130.5 -1.73 130.5 -2.75 130.5 C-2.9975 131.263125 -3.245 132.02625 -3.5 132.8125 C-4.91382063 135.85221435 -5.84080035 136.88377797 -8.75 138.5 C-18.31313477 141.12986206 -30.28167005 140.01254566 -39.75 137.5 C-43.8156141 134.86930852 -44.91737877 132.5500375 -46 128 C-46.26498675 126.50257487 -46.51631815 125.00262863 -46.75 123.5 C-46.95625 122.489375 -47.1625 121.47875 -47.375 120.4375 C-47.49875 119.798125 -47.6225 119.15875 -47.75 118.5 C-48.41 118.5 -49.07 118.5 -49.75 118.5 C-50.42610423 116.60751181 -51.09050439 114.7108398 -51.75 112.8125 C-52.306875 111.22888672 -52.306875 111.22888672 -52.875 109.61328125 C-53.6891857 106.71637944 -53.92709796 104.48299377 -53.75 101.5 C-54.69875 101.396875 -55.6475 101.29375 -56.625 101.1875 C-59.75 100.5 -59.75 100.5 -61.75 97.5 C-62.31416481 92.47988939 -61.76125434 87.42986492 -60.75 82.5 C-60.09 82.5 -59.43 82.5 -58.75 82.5 C-58.40048379 80.50276453 -58.07173372 78.50189873 -57.75 76.5 C-57.48509766 75.52546875 -57.48509766 75.52546875 -57.21484375 74.53125 C-56.60128047 72.19742649 -56.60128047 72.19742649 -56.75 68.5 C-58.35865362 66.54724934 -60.0292357 65.19329406 -62.0859375 63.7265625 C-63.75 62.5 -63.75 62.5 -64.75 60.5 C-64.98632016 56.20291184 -64.97848205 51.90169566 -64.99023438 47.59887695 C-64.99985404 45.46980417 -65.03083331 43.34173318 -65.0625 41.21289062 C-65.12038151 33.81102085 -64.85280213 27.30549221 -61.75 20.5 C-61.399375 19.66726562 -61.04875 18.83453125 -60.6875 17.9765625 C-60.378125 17.36554687 -60.06875 16.75453125 -59.75 16.125 C-59.440625 15.49851562 -59.13125 14.87203125 -58.8125 14.2265625 C-56.80873856 10.97045017 -55.47897678 9.73035287 -51.74609375 8.55078125 C-44.64567964 7.07769863 -38.00671836 6.04854517 -30.75 6.5 C-30.75 5.84 -30.75 5.18 -30.75 4.5 C-20.91006313 0.3222965 -10.5669378 0.05126996 0 0 Z " fill="#663B21" transform="translate(79.75,7.5)"/>
<path d="M0 0 C2.64 0.66 5.28 1.32 8 2 C8 2.66 8 3.32 8 4 C8.66 4 9.32 4 10 4 C10 4.66 10 5.32 10 6 C10.66 6 11.32 6 12 6 C13.33346412 7.95030467 14.43891316 9.99004369 15.5859375 12.0546875 C17.20545005 14.28263571 18.56587871 14.80944959 21 16 C24.72036623 20.92505624 26.063241 26.90356771 26 33 C25.505 33.99 25.505 33.99 25 35 C25.0463579 41.59441075 26.18857013 47.94813375 27.5625 54.375 C29.20953342 62.69991562 29.33692833 71.04296258 29.375 79.5 C29.38861572 80.78825684 29.40223145 82.07651367 29.41625977 83.40380859 C29.38234403 90.54469749 28.79042794 96.42160789 26 103 C25.56558594 104.18207031 25.13117188 105.36414063 24.68359375 106.58203125 C24.06677734 108.18111328 24.06677734 108.18111328 23.4375 109.8125 C22.81681641 111.43091797 22.81681641 111.43091797 22.18359375 113.08203125 C21 116 21 116 19.8984375 118.13671875 C18.67230154 120.67961811 18.31516635 123.23099796 17.85546875 126 C16.54118373 129.07266635 14.80139642 130.19966429 12 132 C9.1454975 132.34287211 6.6959425 132.46989493 3.85546875 132.390625 C3.08568192 132.38496521 2.31589508 132.37930542 1.52278137 132.37347412 C-0.92295943 132.35117872 -3.3672061 132.30099875 -5.8125 132.25 C-7.47589022 132.229926 -9.13930353 132.2116768 -10.80273438 132.1953125 C-14.86906058 132.15133684 -18.93427744 132.08235979 -23 132 C-23.1853833 131.36843994 -23.3707666 130.73687988 -23.56176758 130.08618164 C-23.81595459 129.26496826 -24.0701416 128.44375488 -24.33203125 127.59765625 C-24.57928955 126.78047119 -24.82654785 125.96328613 -25.08129883 125.12133789 C-25.87282041 122.71820704 -25.87282041 122.71820704 -28.6875 121.4375 C-29.450625 121.293125 -30.21375 121.14875 -31 121 C-30.360625 120.690625 -29.72125 120.38125 -29.0625 120.0625 C-27.06389179 119.1654837 -27.06389179 119.1654837 -26 118 C-29.96 117.67 -33.92 117.34 -38 117 C-38.495 118.98 -38.495 118.98 -39 121 C-48.57 121 -58.14 121 -68 121 C-68.763125 118.834375 -69.52625 116.66875 -70.3125 114.4375 C-71.65691391 110.63485355 -72.99470136 106.85232179 -74.6875 103.1875 C-77.7715709 95.69761352 -78.27816703 88.46698715 -78.125 80.4375 C-78.11597656 79.52419922 -78.10695313 78.61089844 -78.09765625 77.66992188 C-78.07437253 75.44632681 -78.0416771 73.22331323 -78 71 C-77.16698364 71.01879211 -77.16698364 71.01879211 -76.31713867 71.03796387 C-43.67990806 71.80362122 -43.67990806 71.80362122 -11.03662109 72.17724609 C-9.03088254 72.18734451 -7.02519865 72.2068798 -5.01953125 72.2265625 C-3.24642578 72.22849609 -3.24642578 72.22849609 -1.4375 72.23046875 C0.08037109 72.23663208 0.08037109 72.23663208 1.62890625 72.24291992 C4.18805112 72.23285456 4.18805112 72.23285456 6 70 C6.35259677 68.05122951 6.35259677 68.05122951 6.37890625 65.82421875 C6.41306641 64.99599609 6.44722656 64.16777344 6.48242188 63.31445312 C6.50884766 62.44755859 6.53527344 61.58066406 6.5625 60.6875 C6.62287223 58.98294798 6.68657948 57.27851024 6.75390625 55.57421875 C6.78979858 54.43859497 6.78979858 54.43859497 6.82641602 53.2800293 C7 51 7 51 8 46 C12.29 45.67 16.58 45.34 21 45 C21 44.01 21 43.02 21 42 C19.88625 41.87625 18.7725 41.7525 17.625 41.625 C14 41 14 41 12 39 C10.16891438 32.38774639 9.77634887 25.82135951 10 19 C11.32 18.67 12.64 18.34 14 18 C10.93866791 10.79686568 5.59675882 5.37288847 0 0 Z " fill="#293052" transform="translate(106,15)"/>
<path d="M0 0 C0 0.33 0 0.66 0 1 C-1.19753906 1.03738281 -2.39507812 1.07476563 -3.62890625 1.11328125 C-11.60121848 1.4126336 -19.51593329 1.81262201 -27.375 3.25 C-28.53773437 3.46140625 -29.70046875 3.6728125 -30.8984375 3.890625 C-35.38288568 5.49463417 -37.98159572 8.20566866 -40.3125 12.3125 C-40.539375 12.869375 -40.76625 13.42625 -41 14 C-40.175 13.34 -39.35 12.68 -38.5 12 C-35.44721872 10.00312189 -32.75011853 9.29710991 -29.03125 9.46875 C-25.21684093 10.46636468 -22.57749533 13.11619363 -20 16 C-17.75981478 20.48037043 -18.65191523 26.37766639 -20 31.0625 C-20.33 32.031875 -20.66 33.00125 -21 34 C-19.02 34.33 -17.04 34.66 -15 35 C-15.2475 33.7934375 -15.2475 33.7934375 -15.5 32.5625 C-16.98216159 22.00209864 -16.98216159 22.00209864 -14.375 16.6875 C-10.58399356 12.39767692 -7.81010063 10.2585858 -2.0625 9.4375 C2.61372006 9.6798377 5.68261303 11.82964403 9 15 C11.32427248 17.93060443 11.48268383 21.13543129 11.37890625 24.84375 C10.56086736 29.49898165 7.93526471 33.38652403 4.33203125 36.390625 C2.6875 37.5 2.6875 37.5 0 39 C0.99 39.33 1.98 39.66 3 40 C3 39.34 3 38.68 3 38 C3.639375 37.87625 4.27875 37.7525 4.9375 37.625 C5.618125 37.41875 6.29875 37.2125 7 37 C7.495 36.01 7.495 36.01 8 35 C8.66 35 9.32 35 10 35 C10 34.01 10 33.02 10 32 C10.66 32 11.32 32 12 32 C11.73290484 35.82836401 11.23114937 37.70941223 8.8125 40.75 C3.63366094 44.89307125 -1.54895186 45.30225002 -7.99609375 45.265625 C-9.12374901 45.26849518 -9.12374901 45.26849518 -10.27418518 45.27142334 C-11.85670305 45.2727781 -13.4392323 45.2691314 -15.02172852 45.26074219 C-17.42685258 45.25004735 -19.83122727 45.26065356 -22.23632812 45.2734375 C-23.78125163 45.27211549 -25.32617467 45.26955223 -26.87109375 45.265625 C-27.5817247 45.26967346 -28.29235565 45.27372192 -29.02452087 45.27789307 C-33.74028261 45.23422635 -37.56657871 44.45718653 -42 43 C-42.66 39.04 -43.32 35.08 -44 31 C-44 34.96 -44 38.92 -44 43 C-44.66 43 -45.32 43 -46 43 C-49.41956949 37.54497248 -49.45434687 32.91622958 -49.375 26.6875 C-49.38660156 25.78837891 -49.39820312 24.88925781 -49.41015625 23.96289062 C-49.37975195 16.95470055 -48.45695449 10.30418017 -44.1875 4.5625 C-33.08373215 -3.36876275 -12.98624166 -0.11465712 0 0 Z " fill="#2B314E" transform="translate(74,24)"/>
<path d="M0 0 C0 -0.66 0 -1.32 0 -2 C2.02045442 -1.39816251 4.02111039 -0.72693904 6 0 C6.495 0.99 6.495 0.99 7 2 C5.68 2 4.36 2 3 2 C3.60328125 2.50789063 4.2065625 3.01578125 4.828125 3.5390625 C9.27798397 7.37168297 13.21353652 10.7905248 16 16 C16 16.99 16 17.98 16 19 C14.515 19.495 14.515 19.495 13 20 C12.77448399 26.8782384 13.36051843 33.29846948 15 40 C16.96822886 41.96822886 20.34808709 41.66248381 23 42 C23.495 43.98 23.495 43.98 24 46 C16.08 46.495 16.08 46.495 8 47 C7.93941406 48.64871094 7.87882812 50.29742187 7.81640625 51.99609375 C7.73202063 54.143239 7.64737165 56.29037391 7.5625 58.4375 C7.52318359 59.52611328 7.48386719 60.61472656 7.44335938 61.73632812 C7.40146484 62.77080078 7.35957031 63.80527344 7.31640625 64.87109375 C7.27974854 65.82943115 7.24309082 66.78776855 7.20532227 67.77514648 C7 70 7 70 6 71 C3.41360962 71.09507821 0.8540144 71.12556376 -1.73266602 71.11352539 C-2.94720459 71.11374443 -2.94720459 71.11374443 -4.1862793 71.1139679 C-6.87551508 71.11326854 -9.56468249 71.1054751 -12.25390625 71.09765625 C-14.11335716 71.09579215 -15.97280856 71.09436821 -17.83226013 71.09336853 C-22.73629096 71.08954271 -27.64029236 71.07971188 -32.54431152 71.06866455 C-37.54451092 71.05845181 -42.54471506 71.05387121 -47.54492188 71.04882812 C-57.36329421 71.03808967 -67.18164466 71.02101248 -77 71 C-77 68.03 -77 65.06 -77 62 C-74.04102416 62.11544259 -71.08320554 62.24214646 -68.125 62.375 C-67.30257812 62.4059375 -66.48015625 62.436875 -65.6328125 62.46875 C-61.44380013 62.66510995 -57.53143135 63.0507584 -53.44921875 64.0234375 C-46.70087245 65.47272017 -39.86130723 65.29889039 -32.99389648 65.26074219 C-30.67470649 65.24994041 -28.35627713 65.26073107 -26.03710938 65.2734375 C-24.54947747 65.27211714 -23.06184604 65.26955732 -21.57421875 65.265625 C-20.88768723 65.26967346 -20.2011557 65.27372192 -19.49382019 65.27789307 C-15.58836128 65.23990027 -12.43723034 64.92648787 -9 63 C-8.505 61.515 -8.505 61.515 -8 60 C-7.34 60 -6.68 60 -6 60 C-4.09007772 55.96204119 -3.74292717 52.71397678 -3.734375 48.265625 C-3.73179688 46.96882813 -3.72921875 45.67203125 -3.7265625 44.3359375 C-3.73075195 43.66401367 -3.73494141 42.99208984 -3.73925781 42.29980469 C-3.74989585 40.26987302 -3.73937879 38.24084063 -3.7265625 36.2109375 C-3.74543464 26.68050666 -4.17583543 17.48387563 -9 9 C-17.84530342 2.45447547 -28.44364168 2.64597565 -39.0625 2.375 C-40.30966797 2.33632813 -41.55683594 2.29765625 -42.84179688 2.2578125 C-45.89439017 2.16424642 -48.94698847 2.07850328 -52 2 C-41.76646307 -8.23353693 -12.2899721 -3.76772867 0 0 Z " fill="#F4721A" transform="translate(104,14)"/>
<path d="M0 0 C1.39456452 0.00667256 2.78911118 0.01863093 4.18359375 0.03515625 C5.2499707 0.04192383 5.2499707 0.04192383 6.33789062 0.04882812 C8.09899388 0.06064761 9.86005411 0.07858362 11.62109375 0.09765625 C11.62109375 0.42765625 11.62109375 0.75765625 11.62109375 1.09765625 C7.33109375 1.09765625 3.04109375 1.09765625 -1.37890625 1.09765625 C-1.41628906 2.79535156 -1.45367187 4.49304688 -1.4921875 6.2421875 C-1.55783624 8.46486625 -1.62428395 10.68752151 -1.69140625 12.91015625 C-1.71396484 14.02970703 -1.73652344 15.14925781 -1.75976562 16.30273438 C-1.81293945 17.91245117 -1.81293945 17.91245117 -1.8671875 19.5546875 C-1.89337158 20.5444458 -1.91955566 21.5342041 -1.9465332 22.55395508 C-2.37890625 25.09765625 -2.37890625 25.09765625 -3.54956055 26.92358398 C-6.15433917 28.59532833 -8.0752516 28.45320683 -11.16015625 28.42578125 C-12.37453369 28.4213501 -13.58891113 28.41691895 -14.84008789 28.41235352 C-16.18636988 28.39136987 -17.53264261 28.3697859 -18.87890625 28.34765625 C-20.27660333 28.33494411 -21.67430918 28.32316654 -23.07202148 28.31225586 C-27.84149381 28.26719421 -32.61001952 28.183428 -37.37890625 28.09765625 C-38.7446579 28.07448334 -38.7446579 28.07448334 -40.13800049 28.05084229 C-46.90614796 27.93593144 -53.67381292 27.8039217 -60.44140625 27.66015625 C-61.85462158 27.63109192 -61.85462158 27.63109192 -63.29638672 27.60144043 C-66.0024199 27.54393309 -68.7082256 27.48010573 -71.4140625 27.4140625 C-72.61851768 27.38896355 -72.61851768 27.38896355 -73.8473053 27.36335754 C-78.43698803 27.24273766 -82.84664871 26.83803916 -87.37890625 26.09765625 C-87.0513046 42.23203743 -85.08169896 55.82523376 -78.33203125 70.70703125 C-77.37890625 73.09765625 -77.37890625 73.09765625 -77.37890625 76.09765625 C-67.80890625 75.76765625 -58.23890625 75.43765625 -48.37890625 75.09765625 C-47.88390625 73.61265625 -47.88390625 73.61265625 -47.37890625 72.09765625 C-43.41890625 72.42765625 -39.45890625 72.75765625 -35.37890625 73.09765625 C-35.87390625 74.58265625 -35.87390625 74.58265625 -36.37890625 76.09765625 C-36.37890625 75.43765625 -36.37890625 74.77765625 -36.37890625 74.09765625 C-38.35890625 74.59265625 -38.35890625 74.59265625 -40.37890625 75.09765625 C-39.71890625 76.74765625 -39.05890625 78.39765625 -38.37890625 80.09765625 C-40.57226932 83.57048111 -41.98785749 84.95101297 -45.87890625 86.41015625 C-55.81767815 88.33912307 -69.89974473 88.64299606 -78.56640625 83.03515625 C-80.95531118 79.16348274 -81.6866097 75.54928406 -82.37890625 71.09765625 C-82.58515625 70.08703125 -82.79140625 69.07640625 -83.00390625 68.03515625 C-83.12765625 67.39578125 -83.25140625 66.75640625 -83.37890625 66.09765625 C-84.03890625 66.09765625 -84.69890625 66.09765625 -85.37890625 66.09765625 C-86.05501048 64.20516806 -86.71941064 62.30849605 -87.37890625 60.41015625 C-87.93578125 58.82654297 -87.93578125 58.82654297 -88.50390625 57.2109375 C-89.31809195 54.31403569 -89.55600421 52.08065002 -89.37890625 49.09765625 C-90.32765625 48.99453125 -91.27640625 48.89140625 -92.25390625 48.78515625 C-95.37890625 48.09765625 -95.37890625 48.09765625 -97.37890625 45.09765625 C-97.94307106 40.07754564 -97.39016059 35.02752117 -96.37890625 30.09765625 C-95.71890625 30.09765625 -95.05890625 30.09765625 -94.37890625 30.09765625 C-92.33938342 21.04081166 -92.33938342 21.04081166 -93.37890625 12.09765625 C-92.44433594 12.41476563 -91.50976562 12.731875 -90.546875 13.05859375 C-85.64229758 14.45008507 -80.76294657 14.56283705 -75.69140625 14.72265625 C-74.14525635 14.77848877 -74.14525635 14.77848877 -72.56787109 14.83544922 C-64.21451676 15.10603854 -55.86130015 15.19934723 -47.50390625 15.22265625 C-46.34673096 15.2273291 -45.18955566 15.23200195 -43.99731445 15.23681641 C-37.39631942 15.22434813 -30.93097782 14.91133643 -24.37890625 14.09765625 C-26.82247978 16.54122978 -28.13650198 16.60204886 -31.50390625 17.16015625 C-32.41398437 17.31613281 -33.3240625 17.47210938 -34.26171875 17.6328125 C-50.82132528 20.10222751 -72.27549906 21.46545865 -88.37890625 16.09765625 C-88.37890625 19.06765625 -88.37890625 22.03765625 -88.37890625 25.09765625 C-60.98890625 24.76765625 -33.59890625 24.43765625 -5.37890625 24.09765625 C-5.04890625 16.50765625 -4.71890625 8.91765625 -4.37890625 1.09765625 C-3.37890625 0.09765625 -3.37890625 0.09765625 0 0 Z " fill="#0A0C13" transform="translate(115.37890625,59.90234375)"/>
<path d="M0 0 C0.72437256 -0.00807175 1.44874512 -0.01614349 2.19506836 -0.02445984 C3.71433197 -0.03817962 5.23362483 -0.04895486 6.75292969 -0.05688477 C8.29273643 -0.06844145 9.83250198 -0.08895135 11.37207031 -0.1184082 C27.29640992 -0.4220359 27.29640992 -0.4220359 34.0625 4.23828125 C36.98134253 7.24833761 37.25764083 9.88615494 37.375 13.92578125 C37.21227007 19.12606373 36.7963199 24.3090289 36.3125 29.48828125 C36.25102783 30.24455811 36.18955566 31.00083496 36.1262207 31.7800293 C35.55532034 37.16897375 34.20867468 40.79063143 31.0625 45.23828125 C29.0625 46.54296875 29.0625 46.54296875 27.0625 47.11328125 C26.4025 47.31695312 25.7425 47.520625 25.0625 47.73046875 C24.0725 47.98183594 24.0725 47.98183594 23.0625 48.23828125 C22.50949219 48.40956543 21.95648438 48.58084961 21.38671875 48.75732422 C16.15367562 49.84021235 10.6523235 49.46460428 5.32080078 49.47851562 C3.09758755 49.48812952 0.87533664 49.51913018 -1.34765625 49.55078125 C-22.20833522 49.70727174 -22.20833522 49.70727174 -28.625 43.73828125 C-32.92101021 35.55540466 -32.05433919 23.41886701 -30.1484375 14.578125 C-28.45013812 9.76195538 -26.89269176 5.77157365 -22.17578125 3.32421875 C-21.54027344 3.08960938 -20.90476562 2.855 -20.25 2.61328125 C-19.62738281 2.37351562 -19.00476562 2.13375 -18.36328125 1.88671875 C-12.37538751 0.28609015 -6.16876624 0.06727712 0 0 Z M-23.9375 7.23828125 C-25.5893263 9.59803311 -26.1245139 11.39282989 -26.9375 14.23828125 C-27.11893555 14.8720166 -27.30037109 15.50575195 -27.48730469 16.15869141 C-28.37261387 20.24820531 -28.16466279 24.44549107 -28.1875 28.61328125 C-28.208125 29.5465625 -28.22875 30.47984375 -28.25 31.44140625 C-28.28053261 36.83041271 -27.91718762 40.54919389 -24.9375 45.23828125 C-24.2775 45.23828125 -23.6175 45.23828125 -22.9375 45.23828125 C-22.9375 41.27828125 -22.9375 37.31828125 -22.9375 33.23828125 C-22.2775 37.19828125 -21.6175 41.15828125 -20.9375 45.23828125 C-15.81383918 46.92233721 -11.21467923 47.5347047 -5.80859375 47.50390625 C-5.05586685 47.5058197 -4.30313995 47.50773315 -3.52760315 47.50970459 C-1.94686547 47.51105725 -0.36611632 47.50742548 1.21459961 47.49902344 C3.62183744 47.48829534 6.02833169 47.49895749 8.43554688 47.51171875 C9.9791683 47.51039728 11.52278926 47.50783516 13.06640625 47.50390625 C13.77906143 47.50795471 14.49171661 47.51200317 15.22596741 47.51617432 C21.03244561 47.46215776 25.30572212 46.64370355 29.875 42.98828125 C32.29364937 39.94769348 32.79540484 38.06664526 33.0625 34.23828125 C32.4025 34.23828125 31.7425 34.23828125 31.0625 34.23828125 C31.0625 35.22828125 31.0625 36.21828125 31.0625 37.23828125 C30.4025 37.23828125 29.7425 37.23828125 29.0625 37.23828125 C28.5675 38.22828125 28.5675 38.22828125 28.0625 39.23828125 C26 39.86328125 26 39.86328125 24.0625 40.23828125 C24.0625 40.89828125 24.0625 41.55828125 24.0625 42.23828125 C23.0725 41.90828125 22.0825 41.57828125 21.0625 41.23828125 C21.60519531 40.87476563 22.14789063 40.51125 22.70703125 40.13671875 C27.1653469 37.00384829 30.34343457 34.61036073 32.0625 29.23828125 C32.76892779 24.78510353 32.44135197 21.98195363 30.375 17.92578125 C26.80020791 13.77129315 24.62473989 12.41186346 19.125 11.80078125 C14.82825847 11.98689247 12.34270545 13.40537654 9.0625 16.23828125 C5.30285986 20.49261089 4.60548709 23.57505415 4.85546875 29.046875 C5.11653411 31.81022721 5.50473764 34.51918975 6.0625 37.23828125 C3.0925 36.74328125 3.0925 36.74328125 0.0625 36.23828125 C0.3925 35.26890625 0.7225 34.29953125 1.0625 33.30078125 C2.40403893 28.46340731 3.58702272 22.99414924 1.046875 18.40234375 C-1.0228198 15.84639535 -3.20477062 14.06010084 -5.9375 12.23828125 C-12.19486162 11.62280306 -15.05021313 12.32845175 -19.9375 16.23828125 C-19.22617335 14.93670482 -18.49254102 13.64730603 -17.75 12.36328125 C-17.34394531 11.64398438 -16.93789063 10.9246875 -16.51953125 10.18359375 C-12.36857339 5.07945297 -4.05010774 4.95629027 2.0625 4.23828125 C8.38759218 3.75538134 14.72469258 3.49020247 21.0625 3.23828125 C21.0625 2.90828125 21.0625 2.57828125 21.0625 2.23828125 C-2.47324807 0.40223111 -2.47324807 0.40223111 -23.9375 7.23828125 Z " fill="#220F09" transform="translate(52.9375,21.76171875)"/>
<path d="M0 0 C1.30582031 -0.02449219 2.61164063 -0.04898437 3.95703125 -0.07421875 C11.49461632 -0.09708301 17.3303285 0.47383647 23.875 4.375 C23.875 5.035 23.875 5.695 23.875 6.375 C23.16859375 6.230625 22.4621875 6.08625 21.734375 5.9375 C7.59781687 3.3801327 -7.07180198 3.25459785 -21.125 6.375 C-22.79126407 6.71034006 -24.45788178 7.04393246 -26.125 7.375 C-25.42528076 7.38958252 -24.72556152 7.40416504 -24.00463867 7.41918945 C-20.77342557 7.49456933 -17.54314648 7.59092681 -14.3125 7.6875 C-13.21228516 7.71005859 -12.11207031 7.73261719 -10.97851562 7.75585938 C-1.7768766 8.05443763 8.8196734 8.83591681 15.875 15.375 C20.1915965 22.22848537 20.43141453 28.84414583 20.25 36.75 C20.24871094 37.80960938 20.24742188 38.86921875 20.24609375 39.9609375 C20.05703855 57.10194217 20.05703855 57.10194217 15.75 63.5625 C15.13125 64.160625 14.5125 64.75875 13.875 65.375 C13.215 65.045 12.555 64.715 11.875 64.375 C12.8340625 63.01375 12.8340625 63.01375 13.8125 61.625 C16.73740391 56.4676606 16.71729328 51.18957806 16.875 45.375 C16.91496094 44.22 16.95492187 43.065 16.99609375 41.875 C17.45525716 28.26602444 17.45525716 28.26602444 11.875 16.375 C12.20113281 17.03757812 12.52726562 17.70015625 12.86328125 18.3828125 C14.10548114 22.05665464 14.1332819 25.42256659 14.0625 29.25 C14.05387939 29.99233887 14.04525879 30.73467773 14.03637695 31.49951172 C14.00007504 33.79213569 13.942119 36.08308353 13.875 38.375 C13.84599609 39.43557617 13.84599609 39.43557617 13.81640625 40.51757812 C13.29984733 56.54609765 13.29984733 56.54609765 8.484375 61.9296875 C6.9375 63.375 6.9375 63.375 3.875 65.375 C1.68359375 65 1.68359375 65 -0.125 64.375 C0.42929688 63.98828125 0.98359375 63.6015625 1.5546875 63.203125 C2.27914062 62.68234375 3.00359375 62.1615625 3.75 61.625 C4.46929687 61.11453125 5.18859375 60.6040625 5.9296875 60.078125 C9.79756011 56.69179477 10.24944244 52.89247088 10.70068359 48.00585938 C11.0293509 43.04546874 11.14159273 38.09522684 11.1875 33.125 C11.21650391 32.0628125 11.24550781 31.000625 11.27539062 29.90625 C11.36540306 23.79558586 11.36540306 23.79558586 9.04296875 18.265625 C1.95711145 12.08624674 -6.04995647 12.05339616 -15.01171875 12.00390625 C-16.03175491 11.99487778 -17.05179108 11.9858493 -18.10273743 11.97654724 C-20.2466033 11.96211095 -22.39051257 11.95317459 -24.53442383 11.94946289 C-27.81340738 11.93749669 -31.09054941 11.88818706 -34.36914062 11.83789062 C-36.4583242 11.82843296 -38.54751926 11.82119479 -40.63671875 11.81640625 C-41.61388351 11.79687393 -42.59104828 11.77734161 -43.5978241 11.75721741 C-48.23762736 11.78804403 -50.40303238 11.82027598 -54.17504883 14.71850586 C-63.11395855 26.8963294 -61.65177212 43.96271015 -62.125 58.375 C-62.455 57.715 -62.785 57.055 -63.125 56.375 C-63.785 56.375 -64.445 56.375 -65.125 56.375 C-65.21289715 52.06263079 -65.2656923 47.7504955 -65.3125 43.4375 C-65.33763672 42.22513672 -65.36277344 41.01277344 -65.38867188 39.76367188 C-65.44610605 32.69926777 -64.98382295 26.86748365 -62.125 20.375 C-61.774375 19.54226562 -61.42375 18.70953125 -61.0625 17.8515625 C-60.753125 17.24054687 -60.44375 16.62953125 -60.125 16 C-59.815625 15.37351562 -59.50625 14.74703125 -59.1875 14.1015625 C-57.18373856 10.84545017 -55.85397678 9.60535287 -52.12109375 8.42578125 C-45.02067964 6.95269863 -38.38171836 5.92354517 -31.125 6.375 C-31.125 5.715 -31.125 5.055 -31.125 4.375 C-21.11178129 0.12878962 -10.74160227 0.01066693 0 0 Z " fill="#251008" transform="translate(80.125,7.625)"/>
<path d="M0 0 C1.75 0.3125 1.75 0.3125 4 1 C5.99788438 1.34578768 7.99759451 1.68143549 10 2 C10.33 1.34 10.66 0.68 11 0 C13.1483214 8.3510307 13.33368658 16.47345908 13.3125 25.0625 C13.32861328 26.37283203 13.34472656 27.68316406 13.36132812 29.03320312 C13.3649954 36.31275116 12.8662364 42.29956263 10 49 C9.56558594 50.19367188 9.13117188 51.38734375 8.68359375 52.6171875 C8.27238281 53.69226563 7.86117187 54.76734375 7.4375 55.875 C7.02371094 56.96554688 6.60992187 58.05609375 6.18359375 59.1796875 C5 62 5 62 3 65 C2.01 65 1.02 65 0 65 C0.6052641 61.45668305 1.56944005 58.41739166 3 55.125 C4.70064926 51.00893584 5.61519322 47.42527794 6 43 C5.2575 42.731875 4.515 42.46375 3.75 42.1875 C-0.16914307 40.49514276 -2.38844541 39.35185751 -4.1875 35.375 C-6.40155886 26.17814013 -8.38741534 14.02747561 -4.125 5.3125 C-2 2 -2 2 0 0 Z " fill="#282F50" transform="translate(122,69)"/>
<path d="M0 0 C4.11536103 1.16627384 5.2928464 2.74324405 7.49658203 6.39501953 C9.27873108 10.54155383 9.93205652 13.37831074 8.49658203 17.70751953 C7.2084086 19.08453251 5.86853777 20.41396126 4.49658203 21.70751953 C3.95775391 22.71814453 3.41892578 23.72876953 2.86376953 24.77001953 C0.49658203 27.70751953 0.49658203 27.70751953 -3.22607422 28.68017578 C-4.67087934 28.75846243 -6.11908427 28.78623322 -7.56591797 28.77001953 C-8.31728027 28.76695801 -9.06864258 28.76389648 -9.84277344 28.76074219 C-17.2876871 28.3194323 -20.89146095 25.00315631 -25.79248047 19.69970703 C-27.50341797 16.70751953 -27.50341797 16.70751953 -27.37841797 13.67626953 C-27.08966797 12.69658203 -26.80091797 11.71689453 -26.50341797 10.70751953 C-26.30490234 9.79228516 -26.10638672 8.87705078 -25.90185547 7.93408203 C-21.74557464 -2.63112039 -9.66902492 -1.41358098 0 0 Z " fill="#E1D49E" transform="translate(67.50341796875,89.29248046875)"/>
<path d="M0 0 C3.42428625 1.69539026 6.06651945 3.82300278 8.4375 6.8125 C9.8673488 12.37302312 9.69486889 16.39071916 6.8125 21.3125 C4.06089494 25.21380077 1.77214449 27.49264525 -3.0703125 28.37890625 C-7.68443511 28.74647195 -10.39864501 28.16639857 -14 25.1875 C-17.34683244 22.04984459 -18.16398163 19.21340205 -18.3125 14.6875 C-18.24473369 10.04927229 -17.12648359 7.53786301 -14 4 C-9.67919729 0.26839766 -5.6524614 -1.2742543 0 0 Z " fill="#EBEDED" transform="translate(76,34)"/>
<path d="M0 0 C1.09477661 -0.00713013 1.09477661 -0.00713013 2.21166992 -0.0144043 C5.99523153 -0.00264193 9.50986579 0.21462297 13.1875 1.125 C13.1875 1.785 13.1875 2.445 13.1875 3.125 C14.1775 3.125 15.1675 3.125 16.1875 3.125 C16.1875 11.375 16.1875 19.625 16.1875 28.125 C15.1975 28.455 14.2075 28.785 13.1875 29.125 C13.1875 30.115 13.1875 31.105 13.1875 32.125 C12.5275 32.125 11.8675 32.125 11.1875 32.125 C10.8575 33.115 10.5275 34.105 10.1875 35.125 C8.8675 35.125 7.5475 35.125 6.1875 35.125 C6.1875 35.785 6.1875 36.445 6.1875 37.125 C3.2175 36.795 0.2475 36.465 -2.8125 36.125 C-2.8125 35.795 -2.8125 35.465 -2.8125 35.125 C-2.22082031 35.03863281 -1.62914063 34.95226563 -1.01953125 34.86328125 C5.47142298 33.70909852 8.56916682 31.74079344 12.5 26.3125 C13.93592762 21.74363939 13.83284837 17.65345665 12 13.3125 C8.74584967 9.38507719 6.34543195 8.25365911 1.25 7.6875 C-3.0275513 7.86505873 -5.54666458 9.31486254 -8.8125 12.125 C-12.04360594 15.89462359 -12.14367668 19.13531737 -11.984375 23.8984375 C-11.76958917 26.68089029 -11.3731808 29.39168111 -10.8125 32.125 C-13.41832371 33.05565133 -14.45448224 33.27417407 -17.0625 32.1875 C-17.92875 31.6615625 -17.92875 31.6615625 -18.8125 31.125 C-18.4825 30.155625 -18.1525 29.18625 -17.8125 28.1875 C-16.59442081 23.83595624 -16.11371644 19.61236912 -16.8125 15.125 C-18.87088525 11.78899633 -20.5518264 10.2987824 -23.8125 8.125 C-25.8617094 7.67360541 -25.8617094 7.67360541 -28 7.5 C-29.258125 7.37625 -30.51625 7.2525 -31.8125 7.125 C-31.4825 6.135 -31.1525 5.145 -30.8125 4.125 C-21.0038136 0.34372715 -10.37100261 0.0561547 0 0 Z " fill="#292E4D" transform="translate(70.8125,26.875)"/>
<path d="M0 0 C3.32111098 2.08046607 6.23180362 4.46360725 8 8 C8.59490278 13.72021903 8.20728341 18.07452904 5 23 C1.75380242 26.75341595 -0.37632493 27.84965972 -5.375 28.3125 C-9.63776957 27.94501986 -11.05291871 27.03128361 -14 24 C-16.89129323 19.31306149 -16.63393684 14.3343466 -16 9 C-12.56480081 2.12960163 -7.99729718 -1.88783781 0 0 Z " fill="#F0EFEE" transform="translate(47,34)"/>
<path d="M0 0 C2.91308822 1.45654411 3.05452316 3.35387648 4.125 6.375 C4.47820313 7.35210937 4.83140625 8.32921875 5.1953125 9.3359375 C6 12 6 12 6 15 C15.57 14.67 25.14 14.34 35 14 C35.33 13.01 35.66 12.02 36 11 C39.96 11.33 43.92 11.66 48 12 C47.67 12.99 47.34 13.98 47 15 C47 14.34 47 13.68 47 13 C45.68 13.33 44.36 13.66 43 14 C43.66 15.65 44.32 17.3 45 19 C42.80663693 22.47282486 41.39104876 23.85335672 37.5 25.3125 C27.5612281 27.24146682 13.47916152 27.54533981 4.8125 21.9375 C2.42359507 18.06582649 1.69229655 14.45162781 1 10 C0.79375 8.989375 0.5875 7.97875 0.375 6.9375 C0.25125 6.298125 0.1275 5.65875 0 5 C-0.66 5 -1.32 5 -2 5 C-2 4.01 -2 3.02 -2 2 C-1.34 2 -0.68 2 0 2 C0 1.34 0 0.68 0 0 Z " fill="#1E1F2F" transform="translate(32,121)"/>
<path d="M0 0 C0.90437805 0.00424484 1.8087561 0.00848969 2.74053955 0.01286316 C5.62420639 0.02963301 8.50717 0.06728206 11.390625 0.10546875 C13.34764614 0.12051778 15.30467826 0.1342058 17.26171875 0.14648438 C22.05495775 0.17953101 26.84767221 0.2313017 31.640625 0.29296875 C31.640625 0.95296875 31.640625 1.61296875 31.640625 2.29296875 C30.94090576 2.34308105 30.24118652 2.39319336 29.52026367 2.44482422 C26.28907298 2.67975211 23.05863103 2.92381319 19.828125 3.16796875 C18.17780273 3.28591797 18.17780273 3.28591797 16.49414062 3.40625 C2.42948074 4.13548922 2.42948074 4.13548922 -10.359375 9.29296875 C-15.43798148 15.82260565 -15.70129671 23.4292597 -15.671875 31.35546875 C-15.68798828 32.22751953 -15.70410156 33.09957031 -15.72070312 33.99804688 C-15.72460636 39.15422024 -15.34066961 42.88673982 -12.359375 47.29296875 C-6.7405512 50.31848926 -0.54172156 51.80920558 5.640625 53.29296875 C5.640625 53.95296875 5.640625 54.61296875 5.640625 55.29296875 C2.91118963 55.34713616 0.18283936 55.386721 -2.546875 55.41796875 C-3.70026367 55.44310547 -3.70026367 55.44310547 -4.87695312 55.46875 C-9.1743184 55.50563726 -12.43839331 55.28881915 -16.359375 53.29296875 C-16.359375 53.95296875 -16.359375 54.61296875 -16.359375 55.29296875 C-19.71436435 53.90469729 -21.50987955 52.43711101 -23.359375 49.29296875 C-23.359375 47.97296875 -23.359375 46.65296875 -23.359375 45.29296875 C-22.699375 45.29296875 -22.039375 45.29296875 -21.359375 45.29296875 C-21.32199219 44.02324219 -21.28460937 42.75351562 -21.24609375 41.4453125 C-20.14667407 10.56216176 -20.14667407 10.56216176 -11.81542969 1.6394043 C-7.99145918 -0.45693739 -4.28799006 -0.07577739 0 0 Z " fill="#AA5923" transform="translate(38.359375,18.70703125)"/>
<path d="M0 0 C2.95897584 0.11544259 5.91679446 0.24214646 8.875 0.375 C9.69742188 0.4059375 10.51984375 0.436875 11.3671875 0.46875 C15.55749513 0.66517067 19.46799724 1.05148845 23.55078125 2.02734375 C30.29872858 3.47786179 37.14018082 3.262287 44.00610352 3.20581055 C46.32514316 3.18739963 48.643785 3.18530253 50.96289062 3.18554688 C52.45052427 3.18063554 53.93815523 3.17480891 55.42578125 3.16796875 C56.11231277 3.16685593 56.7988443 3.1657431 57.50617981 3.16459656 C61.1247411 3.12897299 64.47966647 2.85029138 68 2 C65 5 65 5 56 7 C69.365 7.495 69.365 7.495 83 8 C83 8.33 83 8.66 83 9 C55.61 9 28.22 9 0 9 C0 6.03 0 3.06 0 0 Z " fill="#ED6F1B" transform="translate(27,76)"/>
<path d="M0 0 C2.64 0.66 5.28 1.32 8 2 C8 2.66 8 3.32 8 4 C8.66 4 9.32 4 10 4 C10 4.66 10 5.32 10 6 C10.66 6 11.32 6 12 6 C13.33346412 7.95030467 14.43891316 9.99004369 15.5859375 12.0546875 C17.20545005 14.28263571 18.56587871 14.80944959 21 16 C24.72036623 20.92505624 26.063241 26.90356771 26 33 C25.67 33.66 25.34 34.32 25 35 C24.9310528 36.37342831 24.91532292 37.75002102 24.9375 39.125 C24.958125 40.40375 24.97875 41.6825 25 43 C23.20676747 42.71812064 21.41542874 42.4241719 19.625 42.125 C18.62726563 41.96257813 17.62953125 41.80015625 16.6015625 41.6328125 C14 41 14 41 12 39 C10.16891438 32.38774639 9.77634887 25.82135951 10 19 C11.32 18.67 12.64 18.34 14 18 C10.93866791 10.79686568 5.59675882 5.37288847 0 0 Z " fill="#2F232D" transform="translate(106,15)"/>
<path d="M0 0 C3 1 3 1 4.1328125 2.56640625 C9.9765033 14.32280783 9.34661004 30.29076001 7 43 C5.89702998 45.65162998 4.66527782 47.63637987 3 50 C6.39809229 47.6213354 7.39885432 45.29414762 8.1875 41.375 C9.42633025 33.31712184 9.65988902 25.13581276 10 17 C10.33 17 10.66 17 11 17 C11.07441989 21.18087152 11.12872818 25.3613873 11.16479492 29.54272461 C11.1798376 30.96369141 11.20027704 32.38461213 11.22631836 33.80541992 C11.26290347 35.85346886 11.27977097 37.9009015 11.29296875 39.94921875 C11.3086792 41.17987061 11.32438965 42.41052246 11.34057617 43.6784668 C10.97261088 47.26711753 10.20745908 49.17065532 8 52 C7.34 52 6.68 52 6 52 C5.9071875 52.928125 5.9071875 52.928125 5.8125 53.875 C5 56 5 56 2.94458008 57.12060547 C-0.71735957 58.21423839 -4.14364208 58.24969513 -7.92578125 58.1953125 C-8.67337204 58.1924826 -9.42096283 58.18965271 -10.19120789 58.18673706 C-12.5651388 58.17559469 -14.93868425 58.15050162 -17.3125 58.125 C-18.9277289 58.11496249 -20.54296376 58.10583799 -22.15820312 58.09765625 C-26.10561594 58.07567489 -30.05274274 58.04118657 -34 58 C-34 57.67 -34 57.34 -34 57 C-33.38592285 56.9498877 -32.7718457 56.89977539 -32.13916016 56.84814453 C-29.30057723 56.61306189 -26.46282334 56.36907466 -23.625 56.125 C-22.65949219 56.04636719 -21.69398437 55.96773437 -20.69921875 55.88671875 C-14.34077805 55.33195547 -8.23760525 54.35699273 -2 53 C-4.97 53 -7.94 53 -11 53 C-9.44272772 51.96181848 -7.88130787 50.92797545 -6.28125 49.95703125 C-2.66954592 47.63635297 0.03375257 45.5197166 1.51171875 41.3125 C2.71458475 35.61572661 2.82873244 29.80185441 3 24 C3.02723145 23.26233398 3.05446289 22.52466797 3.08251953 21.76464844 C3.15955701 19.5097274 3.20960184 17.25585306 3.25 15 C3.27151123 14.30664551 3.29302246 13.61329102 3.31518555 12.89892578 C3.34770419 7.81251898 2.21015935 4.46684838 0 0 Z " fill="#9C5425" transform="translate(90,22)"/>
<path d="M0 0 C1.98 0.99 1.98 0.99 4 2 C4 2.66 4 3.32 4 4 C20.83 3.01 20.83 3.01 38 2 C38.33 1.34 38.66 0.68 39 0 C40.32 0 41.64 0 43 0 C43.35671933 3.83473284 43.29771416 5.55342875 41.125 8.8125 C38.31762978 11.70243993 37.64470082 11.9787235 33.56005859 12.11352539 C32.08950872 12.11336685 30.61895304 12.10770544 29.1484375 12.09765625 C28.37440582 12.0962413 27.60037415 12.09482635 26.80288696 12.09336853 C24.32688558 12.08776403 21.85097412 12.07521083 19.375 12.0625 C17.69791797 12.05748558 16.02083453 12.05292257 14.34375 12.04882812 C10.22913194 12.03779315 6.11458122 12.02052554 2 12 C0.76113708 7.85907629 -0.26311551 4.34140593 0 0 Z " fill="#160A0B" transform="translate(81,135)"/>
<path d="M0 0 C1.75 0.3125 1.75 0.3125 4 1 C5.99788438 1.34578768 7.99759451 1.68143549 10 2 C10.33 1.34 10.66 0.68 11 0 C13.1483214 8.3510307 13.33368658 16.47345908 13.3125 25.0625 C13.32861328 26.37283203 13.34472656 27.68316406 13.36132812 29.03320312 C13.3649954 36.31275116 12.8662364 42.29956263 10 49 C9.56558594 50.19367188 9.13117188 51.38734375 8.68359375 52.6171875 C8.27238281 53.69226563 7.86117187 54.76734375 7.4375 55.875 C7.02371094 56.96554688 6.60992187 58.05609375 6.18359375 59.1796875 C5 62 5 62 3 65 C2.01 65 1.02 65 0 65 C0.6052641 61.45668305 1.56944005 58.41739166 3 55.125 C4.70064926 51.00893584 5.61519322 47.42527794 6 43 C5.2575 42.731875 4.515 42.46375 3.75 42.1875 C-0.16914307 40.49514276 -2.38844541 39.35185751 -4.1875 35.375 C-6.40155886 26.17814013 -8.38741534 14.02747561 -4.125 5.3125 C-2 2 -2 2 0 0 Z M1 2 C-4.40722994 7.8987963 -4.2884343 12.90687986 -4.21875 20.66796875 C-3.78745573 27.23750467 -1.97980243 33.44703778 3 38 C6.13863704 38.88593998 6.13863704 38.88593998 9 39 C10.77086425 35.93967576 11.25601711 33.7137289 11.265625 30.19140625 C11.26820313 29.27939453 11.27078125 28.36738281 11.2734375 27.42773438 C11.26570313 26.48220703 11.25796875 25.53667969 11.25 24.5625 C11.25773437 23.62083984 11.26546875 22.67917969 11.2734375 21.70898438 C11.26032162 17.06268433 11.24712506 13.19998375 9 9 C8.34 9 7.68 9 7 9 C6.896875 8.401875 6.79375 7.80375 6.6875 7.1875 C5.90175967 4.68741714 5.03081147 3.62464918 3 2 C2.34 2 1.68 2 1 2 Z " fill="#090B15" transform="translate(122,69)"/>
<path d="M0 0 C0 0.33 0 0.66 0 1 C-1.19753906 1.03738281 -2.39507812 1.07476563 -3.62890625 1.11328125 C-11.60121848 1.4126336 -19.51593329 1.81262201 -27.375 3.25 C-28.53773437 3.46140625 -29.70046875 3.6728125 -30.8984375 3.890625 C-35.33322539 5.47687155 -37.96990348 7.97970506 -40.109375 12.17578125 C-41.59491066 17.13058615 -42.5312362 21.84359824 -43 27 C-43.33 27 -43.66 27 -44 27 C-44 32.28 -44 37.56 -44 43 C-44.66 43 -45.32 43 -46 43 C-49.41956949 37.54497248 -49.45434687 32.91622958 -49.375 26.6875 C-49.38660156 25.78837891 -49.39820312 24.88925781 -49.41015625 23.96289062 C-49.37975195 16.95470055 -48.45695449 10.30418017 -44.1875 4.5625 C-33.08373215 -3.36876275 -12.98624166 -0.11465712 0 0 Z " fill="#673D24" transform="translate(74,24)"/>
<path d="M0 0 C1.39456452 0.00667256 2.78911118 0.01863093 4.18359375 0.03515625 C5.2499707 0.04192383 5.2499707 0.04192383 6.33789062 0.04882812 C8.09899388 0.06064761 9.86005411 0.07858362 11.62109375 0.09765625 C11.62109375 0.42765625 11.62109375 0.75765625 11.62109375 1.09765625 C7.33109375 1.09765625 3.04109375 1.09765625 -1.37890625 1.09765625 C-1.41628906 2.79535156 -1.45367187 4.49304688 -1.4921875 6.2421875 C-1.55783624 8.46486625 -1.62428395 10.68752151 -1.69140625 12.91015625 C-1.71396484 14.02970703 -1.73652344 15.14925781 -1.75976562 16.30273438 C-1.81293945 17.91245117 -1.81293945 17.91245117 -1.8671875 19.5546875 C-1.89337158 20.5444458 -1.91955566 21.5342041 -1.9465332 22.55395508 C-2.37890625 25.09765625 -2.37890625 25.09765625 -3.54956055 26.92358398 C-6.15433917 28.59532833 -8.0752516 28.45320683 -11.16015625 28.42578125 C-12.98160156 28.41913452 -12.98160156 28.41913452 -14.83984375 28.41235352 C-16.18620709 28.39136828 -17.53256121 28.36978427 -18.87890625 28.34765625 C-20.27733575 28.33494363 -21.67577402 28.32316614 -23.07421875 28.31225586 C-27.84295972 28.26722084 -32.61075283 28.18352152 -37.37890625 28.09765625 C-38.28705078 28.08220764 -39.19519531 28.06675903 -40.13085938 28.05084229 C-46.88055295 27.93588294 -53.6297671 27.80390758 -60.37890625 27.66015625 C-61.78571655 27.63109192 -61.78571655 27.63109192 -63.22094727 27.60144043 C-65.91957174 27.54383413 -68.61797464 27.48003367 -71.31640625 27.4140625 C-72.11421509 27.39732986 -72.91202393 27.38059723 -73.73400879 27.36335754 C-78.67775084 27.2334198 -83.48032768 26.78277457 -88.37890625 26.09765625 C-88.37890625 25.76765625 -88.37890625 25.43765625 -88.37890625 25.09765625 C-60.98890625 24.76765625 -33.59890625 24.43765625 -5.37890625 24.09765625 C-5.04890625 16.50765625 -4.71890625 8.91765625 -4.37890625 1.09765625 C-3.37890625 0.09765625 -3.37890625 0.09765625 0 0 Z " fill="#42180F" transform="translate(115.37890625,59.90234375)"/>
<path d="M0 0 C2.55911782 -0.0120539 5.11593836 -0.06149899 7.67456055 -0.11157227 C9.30540827 -0.12102156 10.93627062 -0.12826371 12.56713867 -0.13305664 C13.32961411 -0.15258896 14.09208954 -0.17212128 14.87767029 -0.19224548 C17.02392578 -0.17382812 17.02392578 -0.17382812 20.60229492 0.42553711 C26.24191888 7.24483574 23.62121153 17.44434784 22.85229492 25.67553711 C22.79082275 26.43181396 22.72935059 27.18809082 22.66601562 27.96728516 C22.09312433 33.37502279 20.95522588 37.07754277 17.60229492 41.42553711 C10.39103861 45.65785778 2.21188168 44.76444907 -5.89770508 44.61303711 C-7.30654494 44.59796324 -8.7154004 44.58427961 -10.12426758 44.57202148 C-13.54914903 44.53683435 -16.97322271 44.4875979 -20.39770508 44.42553711 C-20.39770508 44.09553711 -20.39770508 43.76553711 -20.39770508 43.42553711 C-19.58092285 43.40571777 -18.76414062 43.38589844 -17.92260742 43.36547852 C-14.20566068 43.26995568 -10.48925489 43.16038587 -6.77270508 43.05053711 C-5.48750977 43.01959961 -4.20231445 42.98866211 -2.87817383 42.95678711 C-1.63422852 42.91811523 -0.3902832 42.87944336 0.89135742 42.83959961 C2.60379639 42.79246826 2.60379639 42.79246826 4.35083008 42.74438477 C8.74150793 42.31382272 12.30338045 41.39972296 15.85229492 38.73803711 C20.66442288 32.37915373 20.01945923 24.10434914 20.22729492 16.48803711 C20.2659668 15.32723633 20.30463867 14.16643555 20.34448242 12.97045898 C20.43824879 10.12230542 20.52395409 7.27414973 20.60229492 4.42553711 C19.61229492 4.42553711 18.62229492 4.42553711 17.60229492 4.42553711 C17.60229492 3.76553711 17.60229492 3.10553711 17.60229492 2.42553711 C-4.77699717 1.56584012 -4.77699717 1.56584012 -26.39770508 6.42553711 C-27.0970804 7.7420083 -27.76499641 9.07575862 -28.39770508 10.42553711 C-31.02270508 11.67553711 -31.02270508 11.67553711 -33.39770508 12.42553711 C-31.98620077 7.93438703 -30.13675272 5.30771966 -26.39770508 2.42553711 C-18.11799119 -0.53078748 -8.67024159 0.0193739 0 0 Z " fill="#08070C" transform="translate(66.397705078125,25.574462890625)"/>
<path d="M0 0 C1.30582031 -0.02449219 2.61164063 -0.04898437 3.95703125 -0.07421875 C11.49461632 -0.09708301 17.3303285 0.47383647 23.875 4.375 C23.875 5.035 23.875 5.695 23.875 6.375 C23.16859375 6.230625 22.4621875 6.08625 21.734375 5.9375 C7.59781687 3.3801327 -7.07180198 3.25459785 -21.125 6.375 C-22.79131016 6.71011092 -24.45787609 7.04396108 -26.125 7.375 C-26.125 8.035 -26.125 8.695 -26.125 9.375 C-26.74375 9.16875 -27.3625 8.9625 -28 8.75 C-28.70125 8.62625 -29.4025 8.5025 -30.125 8.375 C-30.785 9.035 -31.445 9.695 -32.125 10.375 C-35.1640625 10.5703125 -35.1640625 10.5703125 -38.75 10.5 C-39.93851563 10.48195313 -41.12703125 10.46390625 -42.3515625 10.4453125 C-43.26679687 10.42210937 -44.18203125 10.39890625 -45.125 10.375 C-45.455 9.385 -45.785 8.395 -46.125 7.375 C-41.16426578 6.05213754 -36.21388488 6.28606803 -31.125 6.375 C-31.125 5.715 -31.125 5.055 -31.125 4.375 C-21.11178129 0.12878962 -10.74160227 0.01066693 0 0 Z " fill="#834627" transform="translate(80.125,7.625)"/>
<path d="M0 0 C1.94523365 0.97261682 3.83508714 1.98868888 5.703125 3.1015625 C5.703125 3.7615625 5.703125 4.4215625 5.703125 5.1015625 C6.363125 5.1015625 7.023125 5.1015625 7.703125 5.1015625 C8.83793027 8.71149422 8.80328267 12.0857952 8.765625 15.8515625 C8.75660156 17.02203125 8.74757812 18.1925 8.73828125 19.3984375 C8.72667969 20.29046875 8.71507812 21.1825 8.703125 22.1015625 C7.713125 22.4315625 6.723125 22.7615625 5.703125 23.1015625 C5.703125 24.0915625 5.703125 25.0815625 5.703125 26.1015625 C5.043125 26.1015625 4.383125 26.1015625 3.703125 26.1015625 C3.373125 27.0915625 3.043125 28.0815625 2.703125 29.1015625 C1.383125 29.1015625 0.063125 29.1015625 -1.296875 29.1015625 C-1.296875 29.7615625 -1.296875 30.4215625 -1.296875 31.1015625 C-4.266875 30.7715625 -7.236875 30.4415625 -10.296875 30.1015625 C-10.296875 29.7715625 -10.296875 29.4415625 -10.296875 29.1015625 C-9.70519531 29.01519531 -9.11351563 28.92882812 -8.50390625 28.83984375 C-2.01295202 27.68566102 1.08479182 25.71735594 5.015625 20.2890625 C6.45155262 15.72020189 6.34847337 11.63001915 4.515625 7.2890625 C1.26147467 3.36163969 -1.13894305 2.23022161 -6.234375 1.6640625 C-10.5119263 1.84162123 -13.03103958 3.29142504 -16.296875 6.1015625 C-19.52798094 9.87118609 -19.62805168 13.11187987 -19.46875 17.875 C-19.25396417 20.65745279 -18.8575558 23.36824361 -18.296875 26.1015625 C-20.90269871 27.03221383 -21.93885724 27.25073657 -24.546875 26.1640625 C-25.413125 25.638125 -25.413125 25.638125 -26.296875 25.1015625 C-25.966875 24.1321875 -25.636875 23.1628125 -25.296875 22.1640625 C-23.67433679 16.5024398 -23.69980088 10.76159318 -25.296875 5.1015625 C-24.306875 5.1015625 -23.316875 5.1015625 -22.296875 5.1015625 C-22.296875 5.7615625 -22.296875 6.4215625 -22.296875 7.1015625 C-21.76578125 6.69164062 -21.2346875 6.28171875 -20.6875 5.859375 C-19.98109375 5.32054687 -19.2746875 4.78171875 -18.546875 4.2265625 C-17.85078125 3.69289063 -17.1546875 3.15921875 -16.4375 2.609375 C-11.21922344 -1.06627236 -6.11538903 -2.39207394 0 0 Z " fill="#2F2C3C" transform="translate(78.296875,32.8984375)"/>
<path d="M0 0 C2.5625 2 2.5625 2 4 5 C4.27451016 7.88807562 3.98063652 10.26904132 3 13 C0.3848587 15.98873292 -1.15123966 16.86142688 -5.0625 17.5 C-8 17 -8 17 -10.375 15.5625 C-12.78023748 11.76962551 -12.76962747 8.36923928 -12 4 C-9.25282061 -0.69309812 -5.0189621 -1.15980106 0 0 Z " fill="#190D11" transform="translate(77,42)"/>
<path d="M0 0 C0.33 0.33 0.66 0.66 1 1 C3.0708472 1.1584265 5.14678029 1.25124422 7.22265625 1.31640625 C9.11274414 1.37924805 9.11274414 1.37924805 11.04101562 1.44335938 C12.38150736 1.48317596 13.7220022 1.52288814 15.0625 1.5625 C16.40691523 1.60568042 17.7513166 1.64929456 19.09570312 1.69335938 C22.3970234 1.79985358 25.69842236 1.9018646 29 2 C29 2.33 29 2.66 29 3 C27.99622314 3.00410889 26.99244629 3.00821777 25.95825195 3.01245117 C22.22108156 3.03428312 18.48495799 3.08861294 14.74829102 3.15258789 C13.13348451 3.17573286 11.51852779 3.19015543 9.90356445 3.19555664 C7.57668852 3.20487274 5.25216324 3.24591368 2.92578125 3.29296875 C2.20787918 3.2890361 1.48997711 3.28510345 0.75032043 3.28105164 C-3.13138712 3.39312812 -4.84341514 3.87251768 -7.88989258 6.3527832 C-17.23136174 18.07204158 -15.53423065 35.81486201 -16 50 C-16.33 49.34 -16.66 48.68 -17 48 C-17.66 48 -18.32 48 -19 48 C-19.08789715 43.68763079 -19.1406923 39.3754955 -19.1875 35.0625 C-19.21263672 33.85013672 -19.23777344 32.63777344 -19.26367188 31.38867188 C-19.32110605 24.32426777 -18.85882295 18.49248365 -16 12 C-15.649375 11.16726562 -15.29875 10.33453125 -14.9375 9.4765625 C-14.628125 8.86554687 -14.31875 8.25453125 -14 7.625 C-13.690625 6.99851562 -13.38125 6.37203125 -13.0625 5.7265625 C-9.77773557 0.3888203 -6.07546818 -0.26415079 0 0 Z " fill="#4C3622" transform="translate(34,16)"/>
<path d="M0 0 C2.4375 0.625 2.4375 0.625 4.75 2.625 C6.89846921 6.44450081 7.43144486 9.33807262 6.4375 13.625 C3.94773811 17.13995796 2.56941321 18.42125562 -1.6875 19.1875 C-4.5625 18.625 -4.5625 18.625 -6.4375 17.1875 C-8.13828212 13.31349629 -8.35335732 9.77884873 -7.5625 5.625 C-5.25616625 2.39613275 -3.86691207 0.94314928 0 0 Z " fill="#1A1115" transform="translate(44.5625,40.375)"/>
<path d="M0 0 C1.98 0 3.96 0 6 0 C5.75 2.3125 5.75 2.3125 5 5 C4.319375 5.433125 3.63875 5.86625 2.9375 6.3125 C0.80801471 7.79209309 0.80801471 7.79209309 0.73828125 9.9609375 C0.74888589 11.97581992 0.86815788 13.98940773 1 16 C1.886875 15.690625 2.77375 15.38125 3.6875 15.0625 C6.46709155 14.1709329 9.13136375 13.50622993 12 13 C12.1875 15.875 12.1875 15.875 12 19 C11.01 19.66 10.02 20.32 9 21 C8.67 21.66 8.34 22.32 8 23 C6.68 22.67 5.36 22.34 4 22 C4 22.66 4 23.32 4 24 C-0.95667213 21.80698028 -4.76951672 18.32868728 -8 14 C-8 10.5 -8 10.5 -7 8 C-6.01 8 -5.02 8 -4 8 C-3.34 6.02 -2.68 4.04 -2 2 C-1.34 2 -0.68 2 0 2 C0 1.34 0 0.68 0 0 Z " fill="#E1D39E" transform="translate(48,92)"/>
<path d="M0 0 C0.93457031 0.31710938 1.86914062 0.63421875 2.83203125 0.9609375 C7.73660867 2.35242882 12.61595968 2.4651808 17.6875 2.625 C19.2336499 2.68083252 19.2336499 2.68083252 20.81103516 2.73779297 C29.16438949 3.00838229 37.5176061 3.10169098 45.875 3.125 C47.03217529 3.12967285 48.18935059 3.1343457 49.3815918 3.13916016 C55.98258683 3.12669188 62.44792843 2.81368018 69 2 C66.55642647 4.44357353 65.24240427 4.50439261 61.875 5.0625 C60.96492188 5.21847656 60.05484375 5.37445313 59.1171875 5.53515625 C42.55758097 8.00457126 21.10340719 9.3678024 5 4 C5 6.64 5 9.28 5 12 C3.68 12 2.36 12 1 12 C1.020625 10.7625 1.04125 9.525 1.0625 8.25 C1.06766681 5.3359175 0.93015558 2.79046673 0 0 Z " fill="#2E1007" transform="translate(22,72)"/>
<path d="M0 0 C-0.33 0.99 -0.66 1.98 -1 3 C-7.27 3.66 -13.54 4.32 -20 5 C-15.05 5 -10.1 5 -5 5 C-5 5.66 -5 6.32 -5 7 C-15.56 7 -26.12 7 -37 7 C-37.33 5.02 -37.66 3.04 -38 1 C-33.39187551 0.85660392 -28.7837213 0.71421847 -24.17553711 0.57275391 C-22.60912236 0.52452665 -21.04271596 0.47602721 -19.47631836 0.42724609 C-17.21991096 0.35702446 -14.96347495 0.28779396 -12.70703125 0.21875 C-11.66298882 0.18593933 -11.66298882 0.18593933 -10.59785461 0.15246582 C-7.06378443 0.04531153 -3.53571155 -0.02395063 0 0 Z " fill="#371F18" transform="translate(120,140)"/>
<path d="M0 0 C10.67519075 0.56885937 21.33961555 1.19447256 32 2 C31.67 2.99 31.34 3.98 31 5 C26.38 5.33 21.76 5.66 17 6 C16.67 6.99 16.34 7.98 16 9 C3.93634345 8.37749815 3.93634345 8.37749815 -1 5 C-1.33 4.01 -1.66 3.02 -2 2 C-1.34 2 -0.68 2 0 2 C0 1.34 0 0.68 0 0 Z " fill="#7E4928" transform="translate(38,138)"/>
<path d="M0 0 C3.39944813 1.13314938 3.59569101 1.46546563 5.125 4.5 C7.17850092 8.85877206 8.05000214 13.17979367 8 18 C7.67 18.66 7.34 19.32 7 20 C4.67843403 20.40729228 2.3431213 20.74438677 0 21 C-0.33 20.34 -0.66 19.68 -1 19 C-0.34 18.67 0.32 18.34 1 18 C0.566875 17.27296875 0.566875 17.27296875 0.125 16.53125 C-2.70713313 11.41767629 -3.70573278 7.84750019 -3 2 C-2.01 1.34 -1.02 0.68 0 0 Z " fill="#23232E" transform="translate(124,30)"/>
<path d="M0 0 C10.23 0.33 20.46 0.66 31 1 C31 1.33 31 1.66 31 2 C35.95 2.99 35.95 2.99 41 4 C41 4.33 41 4.66 41 5 C23.63540299 5.12585848 6.34274099 4.9051736 -11 4 C-11 3.67 -11 3.34 -11 3 C-6.05 3 -1.1 3 4 3 C4 2.34 4 1.68 4 1 C2.68 0.67 1.36 0.34 0 0 Z " fill="#79431E" transform="translate(40,71)"/>
<path d="M0 0 C2.67219465 2.07095086 4.73371015 3.70659215 5.4375 7.125 C5.60477542 13.31419052 4.09288043 17.580107 0 22.3125 C-2.77757802 24.65608145 -4.83328499 24.98484409 -8.4375 25.3125 C-12 25 -12 25 -14.4375 23 C-14.953125 22.34 -15.46875 21.68 -16 21 C-15.34 21 -14.68 21 -14 21 C-14 17.37 -14 13.74 -14 10 C-13.67 10 -13.34 10 -13 10 C-12.86722656 10.71027344 -12.73445313 11.42054687 -12.59765625 12.15234375 C-12.42105469 13.07144531 -12.24445312 13.99054687 -12.0625 14.9375 C-11.80146484 16.31228516 -11.80146484 16.31228516 -11.53515625 17.71484375 C-11.22285012 19.95289844 -11.22285012 19.95289844 -10 21 C-6.51502007 21.38721999 -4.62363194 21.39387281 -1.625 19.5 C0.65449134 15.99309024 0.5845265 13.07498472 0 9 C-0.86265968 6.59442147 -0.86265968 6.59442147 -2 5 C-1.34 5 -0.68 5 0 5 C0 3.35 0 1.7 0 0 Z " fill="#CED5D7" transform="translate(50,37)"/>
<path d="M0 0 C3.35807414 1.37019294 4.71434601 2.55652237 6.2265625 5.8515625 C8.59267257 11.64748932 8.5168287 17.1942546 8.375 23.375 C8.37371094 24.43460938 8.37242188 25.49421875 8.37109375 26.5859375 C8.18203855 43.72694217 8.18203855 43.72694217 3.875 50.1875 C3.25625 50.785625 2.6375 51.38375 2 52 C1.34 51.67 0.68 51.34 0 51 C0.639375 50.0925 1.27875 49.185 1.9375 48.25 C4.86240391 43.0926606 4.84229328 37.81457806 5 32 C5.03996094 30.845 5.07992187 29.69 5.12109375 28.5 C5.38488042 14.5467272 5.38488042 14.5467272 0 2 C0 1.34 0 0.68 0 0 Z " fill="#221008" transform="translate(92,21)"/>
<path d="M0 0 C6.27 0.33 12.54 0.66 19 1 C19 1.33 19 1.66 19 2 C13.39 2 7.78 2 2 2 C2 3.65 2 5.3 2 7 C28.73 7.33 55.46 7.66 83 8 C83 8.33 83 8.66 83 9 C55.61 9 28.22 9 0 9 C0 6.03 0 3.06 0 0 Z " fill="#BF6630" transform="translate(27,76)"/>
<path d="M0 0 C3.05665662 0.90873575 4.72305703 1.67530825 6.8125 4.125 C8.35816778 7.86714304 8.77552701 11.05713373 8 15 C6.25608622 19.01889594 4.01881952 22.09438265 0.75 25 C-3.11855658 26.40674785 -6.92528226 26.61641113 -11 26 C-11.66 25.34 -12.32 24.68 -13 24 C-11.35 24 -9.7 24 -8 24 C-8 23.67 -8 23.34 -8 23 C-6.741875 22.773125 -5.48375 22.54625 -4.1875 22.3125 C-1.18311697 21.54009656 -0.15791944 21.16270488 2.0625 18.875 C3.36509279 14.88038212 2.65867156 12.14963083 2 8 C2.4375 5.5 2.4375 5.5 3 4 C2.34 4 1.68 4 1 4 C0.67 2.68 0.34 1.36 0 0 Z " fill="#E4E6E5" transform="translate(77,36)"/>
<path d="M0 0 C13.53 0 27.06 0 41 0 C41 0.66 41 1.32 41 2 C40.30028076 2.0501123 39.60056152 2.10022461 38.87963867 2.15185547 C35.64844798 2.38678336 32.41800603 2.63084444 29.1875 2.875 C27.53717773 2.99294922 27.53717773 2.99294922 25.85351562 3.11328125 C17.42152897 3.75998229 9.19491658 4.87885149 1 7 C1 6.34 1 5.68 1 5 C1.66 5 2.32 5 3 5 C3 4.34 3 3.68 3 3 C4.32 3 5.64 3 7 3 C7 2.34 7 1.68 7 1 C4.69 1 2.38 1 0 1 C0 0.67 0 0.34 0 0 Z " fill="#9C582B" transform="translate(29,19)"/>
<path d="M0 0 C2.31 0 4.62 0 7 0 C10.03617571 5.22222222 10.03617571 5.22222222 9.875 8.6875 C8.41258741 12.55244755 8.41258741 12.55244755 6 14 C2.3125 13.6875 2.3125 13.6875 -1 13 C-0.34 12.34 0.32 11.68 1 11 C1.99 11 2.98 11 4 11 C4 9.02 4 7.04 4 5 C2.3603125 5.7425 2.3603125 5.7425 0.6875 6.5 C-3 8 -3 8 -6 8 C-6 7.34 -6 6.68 -6 6 C-5.34 6 -4.68 6 -4 6 C-4 5.34 -4 4.68 -4 4 C-3.34 4 -2.68 4 -2 4 C-1.34 2.68 -0.68 1.36 0 0 Z " fill="#514C6F" transform="translate(56,100)"/>
<path d="M0 0 C0.70866211 0.16443604 1.41732422 0.32887207 2.14746094 0.49829102 C5.06290152 1.01106322 7.68390305 1.08245483 10.640625 1.02734375 C12.24744141 1.00897461 12.24744141 1.00897461 13.88671875 0.99023438 C16.11335019 0.95532204 18.33992156 0.91631778 20.56640625 0.87304688 C27.06396274 0.80690408 32.71892549 1.31047046 39 3 C39 4.32 39 5.64 39 7 C37.56208484 6.85831863 36.1246763 6.71148957 34.6875 6.5625 C33.88699219 6.48128906 33.08648437 6.40007813 32.26171875 6.31640625 C30 6 30 6 27 5 C24.86434915 4.78201064 22.72385075 4.61021611 20.58203125 4.46484375 C19.32841797 4.37783203 18.07480469 4.29082031 16.78320312 4.20117188 C15.47287109 4.11416016 14.16253906 4.02714844 12.8125 3.9375 C11.47718888 3.8460625 10.14190204 3.75426975 8.80664062 3.66210938 C5.53798273 3.4379054 2.2691196 3.21735074 -1 3 C-0.67 2.01 -0.34 1.02 0 0 Z " fill="#280F06" transform="translate(49,15)"/>
<path d="M0 0 C0.99 0 1.98 0 3 0 C1.73502412 3.90034228 0.62588439 5.98561978 -3 8 C-8.52866776 9.48330111 -14.31811573 9.09099103 -20 9 C-19.67 8.01 -19.34 7.02 -19 6 C-21.64 6 -24.28 6 -27 6 C-27 5.67 -27 5.34 -27 5 C-19.74 4.67 -12.48 4.34 -5 4 C-4.67 3.34 -4.34 2.68 -4 2 C-8.62 2 -13.24 2 -18 2 C-18 1.67 -18 1.34 -18 1 C-12.72 1 -7.44 1 -2 1 C-2 1.66 -2 2.32 -2 3 C-1.34 3 -0.68 3 0 3 C0 2.01 0 1.02 0 0 Z " fill="#3C2C2A" transform="translate(74,138)"/>
<path d="M0 0 C0.33 1.32 0.66 2.64 1 4 C0.34 4 -0.32 4 -1 4 C-1 5.98 -1 7.96 -1 10 C0.65 9.67 2.3 9.34 4 9 C4 10.32 4 11.64 4 13 C5.65 13 7.3 13 9 13 C9 12.01 9 11.02 9 10 C9.66 10 10.32 10 11 10 C10.67 9.34 10.34 8.68 10 8 C9.01 8 8.02 8 7 8 C7 6.35 7 4.7 7 3 C7.639375 2.87625 8.27875 2.7525 8.9375 2.625 C9.618125 2.41875 10.29875 2.2125 11 2 C11.33 1.34 11.66 0.68 12 0 C14.26517938 3.39776907 14.23027272 5.08894667 13.6015625 9.05859375 C12.59779043 12.29803996 10.92505866 13.43996871 8 15 C4.40611452 15.58675681 2.74423489 15.45045796 -0.375 13.5625 C-2.71135006 9.87825567 -2.70816502 6.26545908 -2 2 C-1.34 1.34 -0.68 0.68 0 0 Z " fill="#272F3C" transform="translate(67,44)"/>
<path d="M0 0 C0.66 0 1.32 0 2 0 C4.18045497 6.78116614 4.33839244 13.15664337 4.31567383 20.2355957 C4.31248106 22.32489688 4.33614021 24.41282314 4.36132812 26.50195312 C4.36197266 27.81744141 4.36261719 29.13292969 4.36328125 30.48828125 C4.36775269 32.29099487 4.36775269 32.29099487 4.37231445 34.13012695 C4.1880188 35.55071411 4.1880188 35.55071411 4 37 C3.01 37.66 2.02 38.32 1 39 C1 38.34 1 37.68 1 37 C-0.65 37 -2.3 37 -4 37 C-4.33 36.34 -4.66 35.68 -5 35 C-3.35 35 -1.7 35 0 35 C0.9602959 32.1191123 1.12875585 30.28228827 1.1328125 27.2890625 C1.13410156 26.37382813 1.13539063 25.45859375 1.13671875 24.515625 C1.13285156 23.56171875 1.12898437 22.6078125 1.125 21.625 C1.12886719 20.67882812 1.13273438 19.73265625 1.13671875 18.7578125 C1.13478516 17.38109375 1.13478516 17.38109375 1.1328125 15.9765625 C1.13112061 14.72480225 1.13112061 14.72480225 1.12939453 13.44775391 C0.99383628 10.88340104 0.56215884 8.5026396 0 6 C-0.66 6 -1.32 6 -2 6 C-1.34 4.02 -0.68 2.04 0 0 Z " fill="#1B1F35" transform="translate(131,72)"/>
<path d="M0 0 C0.1875 2.875 0.1875 2.875 0 6 C-0.99 6.66 -1.98 7.32 -3 8 C-3.33 8.66 -3.66 9.32 -4 10 C-5.32 9.67 -6.64 9.34 -8 9 C-8 9.66 -8 10.32 -8 11 C-11.21043882 9.61811547 -13.04936365 8.07578097 -15.25 5.375 C-15.77078125 4.74335937 -16.2915625 4.11171875 -16.828125 3.4609375 C-17.21484375 2.97882813 -17.6015625 2.49671875 -18 2 C-17.41992188 2.10699219 -16.83984375 2.21398437 -16.2421875 2.32421875 C-9.66925358 3.33293633 -6.01125208 0 0 0 Z " fill="#D5C9A5" transform="translate(60,105)"/>
<path d="M0 0 C0.33 1.65 0.66 3.3 1 5 C0.2575 5.04125 -0.485 5.0825 -1.25 5.125 C-5.0823993 6.34439978 -5.94265777 8.66568673 -8 12 C-8.66 12 -9.32 12 -10 12 C-10 12.66 -10 13.32 -10 14 C-10.66 14 -11.32 14 -12 14 C-11.67 14.99 -11.34 15.98 -11 17 C-11.99 16.67 -12.98 16.34 -14 16 C-14.96289248 11.0980019 -14.96289248 11.0980019 -14 8 C-10.14163849 4.19308331 -5.5957065 0 0 0 Z " fill="#DE7A43" transform="translate(62,92)"/>
<path d="M0 0 C0.33 0 0.66 0 1 0 C1.11668418 4.52061442 1.18741645 9.04083847 1.25 13.5625 C1.28351563 14.83931641 1.31703125 16.11613281 1.3515625 17.43164062 C1.48188824 29.97549321 1.48188824 29.97549321 -3 35 C-10.21125631 39.23232067 -18.39041325 38.33891196 -26.5 38.1875 C-27.90883986 38.17242613 -29.31769532 38.1587425 -30.7265625 38.14648438 C-34.15144396 38.11129724 -37.57551763 38.06206079 -41 38 C-41 37.67 -41 37.34 -41 37 C-40.18321777 36.98018066 -39.36643555 36.96036133 -38.52490234 36.93994141 C-34.8079556 36.84441857 -31.09154981 36.73484876 -27.375 36.625 C-26.08980469 36.5940625 -24.80460937 36.563125 -23.48046875 36.53125 C-22.23652344 36.49257812 -20.99257812 36.45390625 -19.7109375 36.4140625 C-17.99849854 36.36693115 -17.99849854 36.36693115 -16.25146484 36.31884766 C-11.86078699 35.88828561 -8.29891447 34.97418585 -4.75 32.3125 C-0.12895351 26.20611713 -0.59336305 18.39130991 -0.375 11.0625 C-0.33632812 9.99708984 -0.29765625 8.93167969 -0.2578125 7.83398438 C-0.16413854 5.22282266 -0.07841665 2.61165696 0 0 Z " fill="#141527" transform="translate(87,32)"/>
<path d="M0 0 C0.99 0 1.98 0 3 0 C3.495 3.96 3.495 3.96 4 8 C3.34 8 2.68 8 2 8 C2 7.34 2 6.68 2 6 C0.77482666 6.00785522 0.77482666 6.00785522 -0.47509766 6.01586914 C-4.19172388 6.03671349 -7.90833778 6.04968392 -11.625 6.0625 C-12.91019531 6.07087891 -14.19539063 6.07925781 -15.51953125 6.08789062 C-16.76347656 6.09111328 -18.00742187 6.09433594 -19.2890625 6.09765625 C-20.43068848 6.10289307 -21.57231445 6.10812988 -22.74853516 6.11352539 C-25.91881886 6.00283445 -28.88768854 5.59566756 -32 5 C-32 5.66 -32 6.32 -32 7 C-32.99 7 -33.98 7 -35 7 C-35 5.02 -35 3.04 -35 1 C-34.67 1.99 -34.34 2.98 -34 4 C-22.45 4 -10.9 4 1 4 C0.505 2.02 0.505 2.02 0 0 Z " fill="#0E080E" transform="translate(70,133)"/>
<path d="M0 0 C0 -0.66 0 -1.32 0 -2 C2.02045442 -1.39816251 4.02111039 -0.72693904 6 0 C6.495 0.99 6.495 0.99 7 2 C5.62546802 2.05498128 4.25026422 2.09322822 2.875 2.125 C1.72644531 2.15980469 1.72644531 2.15980469 0.5546875 2.1953125 C-2 2 -2 2 -4.6171875 1 C-8.7572046 -0.22383877 -12.3926435 -0.2521669 -16.6796875 -0.1953125 C-17.49245148 -0.1924826 -18.30521545 -0.18965271 -19.14260864 -0.18673706 C-21.72022675 -0.17560619 -24.29748819 -0.15051515 -26.875 -0.125 C-28.63020329 -0.11496101 -30.38541206 -0.10583677 -32.140625 -0.09765625 C-36.42721926 -0.07569015 -40.7135493 -0.04120978 -45 0 C-34.03226149 -7.31182567 -11.86851991 -3.63852435 0 0 Z " fill="#C36C31" transform="translate(104,14)"/>
<path d="M0 0 C0.99 0 1.98 0 3 0 C3.61334438 7.23746374 3.61334438 7.23746374 0.6875 10.875 C-3.03349985 13.81718593 -4.95729956 15.26210726 -9.6875 15.125 C-10.89986328 15.09792969 -10.89986328 15.09792969 -12.13671875 15.0703125 C-13.05904297 15.03550781 -13.05904297 15.03550781 -14 15 C-12.45620382 13.97080255 -10.9083859 12.94515908 -9.31640625 11.9921875 C-4.34809679 8.82751822 -2.16849931 5.42798274 0 0 Z " fill="#AC5922" transform="translate(93,60)"/>
<path d="M0 0 C0.33 0 0.66 0 1 0 C1.99 5.61 2.98 11.22 4 17 C16.91090112 19.4828656 29.8878528 19.63883236 43 20 C43 20.33 43 20.66 43 21 C38.44679318 21.04979112 33.89374819 21.08590298 29.34033203 21.10986328 C27.79440547 21.11986197 26.24849754 21.13346538 24.70263672 21.15087891 C22.46837745 21.17539951 20.23437025 21.18654451 18 21.1953125 C17.31945557 21.20563507 16.63891113 21.21595764 15.93774414 21.22659302 C10.94721734 21.22773512 6.742836 20.43915651 2 19 C-0.92194526 15.78739003 -0.22638623 11.37563964 -0.125 7.25 C-0.11597656 6.55261719 -0.10695313 5.85523438 -0.09765625 5.13671875 C-0.07419888 3.42433042 -0.03833104 1.71211996 0 0 Z " fill="#1E0E0E" transform="translate(29,50)"/>
<path d="M0 0 C0.33 0 0.66 0 1 0 C0.98839844 0.88300781 0.97679687 1.76601563 0.96484375 2.67578125 C0.92126093 8.47229643 0.93599951 14.17048269 1.5625 19.9375 C2.01700382 24.20478583 1.84040824 27.79795879 1 32 C1.66 32 2.32 32 3 32 C3 33.32 3 34.64 3 36 C-0.35498935 34.61172854 -2.15050455 33.14414226 -4 30 C-4 28.68 -4 27.36 -4 26 C-3.34 26 -2.68 26 -2 26 C-1.97494385 25.42556152 -1.9498877 24.85112305 -1.92407227 24.25927734 C-1.80730125 21.63100279 -1.68494581 19.00301605 -1.5625 16.375 C-1.50352539 15.01955078 -1.50352539 15.01955078 -1.44335938 13.63671875 C-1.22421542 9.01783854 -0.8991149 4.54846364 0 0 Z " fill="#A4541E" transform="translate(19,38)"/>
<path d="M0 0 C0.99 0 1.98 0 3 0 C3.33 2.64 3.66 5.28 4 8 C7.69541586 8.95024979 10.30458414 8.95024979 14 8 C14.33 10.64 14.66 13.28 15 16 C13.20676747 15.71812064 11.41542874 15.4241719 9.625 15.125 C8.62726563 14.96257813 7.62953125 14.80015625 6.6015625 14.6328125 C4 14 4 14 2 12 C1.3671875 9.1796875 1.3671875 9.1796875 0.875 5.875 C0.70742187 4.77929688 0.53984375 3.68359375 0.3671875 2.5546875 C0.24601562 1.71164063 0.12484375 0.86859375 0 0 Z " fill="#76452F" transform="translate(116,42)"/>
<path d="M0 0 C1.39456452 0.00667256 2.78911118 0.01863093 4.18359375 0.03515625 C4.89451172 0.03966797 5.60542969 0.04417969 6.33789062 0.04882812 C8.09899388 0.06064761 9.86005411 0.07858362 11.62109375 0.09765625 C11.62109375 0.42765625 11.62109375 0.75765625 11.62109375 1.09765625 C7.33109375 1.09765625 3.04109375 1.09765625 -1.37890625 1.09765625 C-1.41628906 2.79535156 -1.45367187 4.49304688 -1.4921875 6.2421875 C-1.55783624 8.46486625 -1.62428395 10.68752151 -1.69140625 12.91015625 C-1.71396484 14.02970703 -1.73652344 15.14925781 -1.75976562 16.30273438 C-1.79521484 17.37587891 -1.83066406 18.44902344 -1.8671875 19.5546875 C-1.89337158 20.5444458 -1.91955566 21.5342041 -1.9465332 22.55395508 C-2.43961534 25.45481493 -3.00339842 26.40562538 -5.37890625 28.09765625 C-8.06640625 28.28515625 -8.06640625 28.28515625 -10.37890625 28.09765625 C-9.73953125 27.80890625 -9.10015625 27.52015625 -8.44140625 27.22265625 C-6.22684546 26.26942174 -6.22684546 26.26942174 -5.37890625 24.09765625 C-5.23800843 22.37038703 -5.15307937 20.63836993 -5.09765625 18.90625 C-5.06027344 17.87951172 -5.02289063 16.85277344 -4.984375 15.79492188 C-4.91393625 13.61784262 -4.8436242 11.44075927 -4.7734375 9.26367188 C-4.73605469 8.23822266 -4.69867188 7.21277344 -4.66015625 6.15625 C-4.6147168 4.73783813 -4.6147168 4.73783813 -4.56835938 3.29077148 C-4.25736994 -0.30925179 -3.75467045 0.10851649 0 0 Z " fill="#422222" transform="translate(115.37890625,59.90234375)"/>
<path d="M0 0 C0.33 0 0.66 0 1 0 C0.67 10.56 0.34 21.12 0 32 C-0.33 31.34 -0.66 30.68 -1 30 C-1.66 30 -2.32 30 -3 30 C-3 23.4 -3 16.8 -3 10 C-2.34 10 -1.68 10 -1 10 C-0.67 6.7 -0.34 3.4 0 0 Z " fill="#321D10" transform="translate(18,34)"/>
<path d="M0 0 C0.33 0.66 0.66 1.32 1 2 C1.66 2 2.32 2 3 2 C3.66 7.28 4.32 12.56 5 18 C1 19 1 19 -1.25 18.0625 C-2.11625 17.5365625 -2.11625 17.5365625 -3 17 C-2.690625 16.05125 -2.38125 15.1025 -2.0625 14.125 C-0.72071729 9.49061575 -0.36657993 4.79447959 0 0 Z " fill="#2C2B38" transform="translate(55,41)"/>
<path d="M0 0 C0.99 0.66 1.98 1.32 3 2 C0.98104356 9.14152146 -0.93132449 15.75167689 -5 22 C-5.99 22 -6.98 22 -8 22 C-7.37834312 18.42387072 -6.42491332 15.23733326 -5.0625 11.875 C-4.55396484 10.60269531 -4.55396484 10.60269531 -4.03515625 9.3046875 C-3 7 -3 7 -1 4 C-0.36707617 1.88719655 -0.36707617 1.88719655 0 0 Z " fill="#262838" transform="translate(130,112)"/>
<path d="M0 0 C0.144375 0.598125 0.28875 1.19625 0.4375 1.8125 C0.8872439 3.56150404 1.42892341 5.28677023 2 7 C2.22829117 10.52583034 2.39268148 14.045557 2.51757812 17.57617188 C2.72586365 22.05234561 3.34179923 25.7772944 5 30 C5.99 30 6.98 30 8 30 C7.67 30.66 7.34 31.32 7 32 C2.40820915 29.7661558 0.81985603 27.75272547 -1 23 C-1.37262092 19.59359086 -1.32930233 16.23489108 -1.25 12.8125 C-1.24484375 11.91080078 -1.2396875 11.00910156 -1.234375 10.08007812 C-1.15558639 3.46675917 -1.15558639 3.46675917 0 0 Z " fill="#32180D" transform="translate(23,37)"/>
<path d="M0 0 C0.33 0.99 0.66 1.98 1 3 C3.00016466 4.20882096 3.00016466 4.20882096 5 5 C4.04296875 6.984375 4.04296875 6.984375 2 9 C-0.90294794 9.52039056 -3.75000457 9.37530743 -6.6875 9.25 C-7.48478516 9.23195313 -8.28207031 9.21390625 -9.10351562 9.1953125 C-11.06952449 9.14822247 -13.03491494 9.07647899 -15 9 C-14.67 8.01 -14.34 7.02 -14 6 C-13.32453125 5.98582031 -12.6490625 5.97164063 -11.953125 5.95703125 C-6.05393523 5.75451345 -6.05393523 5.75451345 -1.375 2.4375 C-0.92125 1.633125 -0.4675 0.82875 0 0 Z " fill="#CEC6A2" transform="translate(66,108)"/>
<path d="M0 0 C-0.37994168 2.75457718 -0.8073633 3.82020574 -2.875 5.75 C-5 7 -5 7 -8 7 C-8 6.34 -8 5.68 -8 5 C-8.78632812 5.16371094 -9.57265625 5.32742187 -10.3828125 5.49609375 C-14.90846849 6.12655771 -19.31329568 6.10715524 -23.875 6.0625 C-24.75414063 6.05798828 -25.63328125 6.05347656 -26.5390625 6.04882812 C-28.69273803 6.03712337 -30.84637817 6.01919069 -33 6 C-33 5.67 -33 5.34 -33 5 C-29.85495307 4.65896535 -26.70886583 4.32862537 -23.5625 4 C-22.24475586 3.85691406 -22.24475586 3.85691406 -20.90039062 3.7109375 C-15.23241145 3.12531604 -9.69811032 2.90725355 -4 3 C-4 2.34 -4 1.68 -4 1 C-2 0 -2 0 0 0 Z " fill="#33130C" transform="translate(123,140)"/>
<path d="M0 0 C3 1 3 1 4.16796875 2.671875 C7.55343511 9.57251908 7.55343511 9.57251908 7 14 C6.34 14 5.68 14 5 14 C5.01047363 14.62044189 5.02094727 15.24088379 5.03173828 15.88012695 C5.07330886 18.69087677 5.09932933 21.5015619 5.125 24.3125 C5.15013672 25.77719727 5.15013672 25.77719727 5.17578125 27.27148438 C5.18222656 28.20927734 5.18867187 29.14707031 5.1953125 30.11328125 C5.20578613 30.97735596 5.21625977 31.84143066 5.22705078 32.73168945 C5 35 5 35 3 38 C3.01571045 37.09757568 3.0314209 36.19515137 3.04760742 35.26538086 C3.09899354 31.89015866 3.1364741 28.51535729 3.16479492 25.13989258 C3.17980313 23.68409632 3.20021633 22.22834468 3.22631836 20.77270508 C3.26305676 18.66997211 3.2798056 16.56784115 3.29296875 14.46484375 C3.3086792 13.202771 3.32438965 11.94069824 3.34057617 10.64038086 C2.94747859 6.4386045 1.83923582 3.76544819 0 0 Z " fill="#7C411D" transform="translate(90,22)"/>
<path d="M0 0 C2.64 0.66 5.28 1.32 8 2 C8 2.66 8 3.32 8 4 C8.66 4 9.32 4 10 4 C10 4.66 10 5.32 10 6 C10.66 6 11.32 6 12 6 C13.5078125 8.1875 13.5078125 8.1875 15.125 11 C15.66382812 11.928125 16.20265625 12.85625 16.7578125 13.8125 C17.16773437 14.534375 17.57765625 15.25625 18 16 C16.68 16.33 15.36 16.66 14 17 C13.6596875 16.43152344 13.319375 15.86304688 12.96875 15.27734375 C9.70761256 10.08207426 6.30985653 6.17201877 1.5390625 2.3125 C1.03117187 1.879375 0.52328125 1.44625 0 1 C0 0.67 0 0.34 0 0 Z " fill="#673113" transform="translate(106,15)"/>
<path d="M0 0 C0.56847656 0.26554687 1.13695313 0.53109375 1.72265625 0.8046875 C6.42017845 2.95347061 10.97739114 4.71972715 16 6 C17.2065625 6.309375 17.2065625 6.309375 18.4375 6.625 C18.953125 6.74875 19.46875 6.8725 20 7 C20 7.66 20 8.32 20 9 C17.22890693 9.05392397 14.45886182 9.09363455 11.6875 9.125 C10.90181641 9.14175781 10.11613281 9.15851563 9.30664062 9.17578125 C8.54931641 9.18222656 7.79199219 9.18867187 7.01171875 9.1953125 C5.96697388 9.21102295 5.96697388 9.21102295 4.90112305 9.22705078 C3 9 3 9 0 7 C2.64 7 5.28 7 8 7 C8 6.34 8 5.68 8 5 C7.236875 5.020625 6.47375 5.04125 5.6875 5.0625 C3 5 3 5 0 4 C0 2.68 0 1.36 0 0 Z " fill="#9F5422" transform="translate(24,65)"/>
<path d="M0 0 C0.99 0.33 1.98 0.66 3 1 C3.33 1.99 3.66 2.98 4 4 C3.01 5.485 3.01 5.485 2 7 C1.01 6.01 0.02 5.02 -1 4 C-0.50437849 8.95621512 0.44215104 12.70281375 3 17 C3.66 17.33 4.32 17.66 5 18 C5 18.66 5 19.32 5 20 C3.35 20.33 1.7 20.66 0 21 C-0.33 20.34 -0.66 19.68 -1 19 C-0.34 18.67 0.32 18.34 1 18 C0.566875 17.27296875 0.566875 17.27296875 0.125 16.53125 C-2.70713313 11.41767629 -3.70573278 7.84750019 -3 2 C-2.01 1.34 -1.02 0.68 0 0 Z " fill="#100F17" transform="translate(124,30)"/>
<path d="M0 0 C1.16144531 0.00902344 2.32289062 0.01804687 3.51953125 0.02734375 C4.39996094 0.03894531 5.28039062 0.05054688 6.1875 0.0625 C6.1875 0.7225 6.1875 1.3825 6.1875 2.0625 C6.8475 2.3925 7.5075 2.7225 8.1875 3.0625 C7.56875 2.85625 6.95 2.65 6.3125 2.4375 C5.61125 2.31375 4.91 2.19 4.1875 2.0625 C3.5275 2.7225 2.8675 3.3825 2.1875 4.0625 C-0.8515625 4.2578125 -0.8515625 4.2578125 -4.4375 4.1875 C-5.62601563 4.16945313 -6.81453125 4.15140625 -8.0390625 4.1328125 C-8.95429687 4.10960937 -9.86953125 4.08640625 -10.8125 4.0625 C-11.1425 3.0725 -11.4725 2.0825 -11.8125 1.0625 C-7.81454108 0.10630267 -4.10446078 -0.0414592 0 0 Z " fill="#54453D" transform="translate(45.8125,13.9375)"/>
<path d="M0 0 C0 0.66 0 1.32 0 2 C-0.84304687 2.17015625 -1.68609375 2.3403125 -2.5546875 2.515625 C-4.19824219 2.87914062 -4.19824219 2.87914062 -5.875 3.25 C-6.96554688 3.48203125 -8.05609375 3.7140625 -9.1796875 3.953125 C-12.11216492 4.70744983 -12.11216492 4.70744983 -13.21875 7.03125 C-13.4765625 7.6809375 -13.734375 8.330625 -14 9 C-16.625 10.25 -16.625 10.25 -19 11 C-17.58849569 6.50884992 -15.73904764 3.88218256 -12 1 C-3.46013449 -1.73006724 -3.46013449 -1.73006724 0 0 Z " fill="#180D0E" transform="translate(52,27)"/>
<path d="M0 0 C0.99 0 1.98 0 3 0 C3.41676948 1.76602319 3.8077738 3.53814301 4.1875 5.3125 C4.40792969 6.29863281 4.62835938 7.28476563 4.85546875 8.30078125 C5 11 5 11 3.55078125 12.85546875 C2.78314453 13.42201172 2.78314453 13.42201172 2 14 C1.34 13.67 0.68 13.34 0 13 C0 10.03 0 7.06 0 4 C-4.62 4 -9.24 4 -14 4 C-14 3.67 -14 3.34 -14 3 C-13.07316406 2.95101562 -12.14632812 2.90203125 -11.19140625 2.8515625 C-9.99386719 2.77679688 -8.79632813 2.70203125 -7.5625 2.625 C-6.36753906 2.55539063 -5.17257813 2.48578125 -3.94140625 2.4140625 C-2.97074219 2.27742188 -2.00007813 2.14078125 -1 2 C-0.67 1.34 -0.34 0.68 0 0 Z " fill="#3A323D" transform="translate(128,58)"/>
<path d="M0 0 C0.33 0 0.66 0 1 0 C1.07441989 4.18087152 1.12872818 8.3613873 1.16479492 12.54272461 C1.1798376 13.96369141 1.20027704 15.38461213 1.22631836 16.80541992 C1.26290347 18.85346886 1.27977097 20.9009015 1.29296875 22.94921875 C1.3086792 24.17987061 1.32438965 25.41052246 1.34057617 26.6784668 C0.97261088 30.26711753 0.20745908 32.17065532 -2 35 C-2.66 35 -3.32 35 -4 35 C-3.79503906 33.98164062 -3.59007813 32.96328125 -3.37890625 31.9140625 C-1.32332717 21.26796578 -0.36734027 10.83020439 0 0 Z " fill="#A85821" transform="translate(100,39)"/>
<path d="M0 0 C1.01006104 0.15847412 2.02012207 0.31694824 3.06079102 0.48022461 C6.74419564 0.96624683 10.31605321 1.20094388 14.02734375 1.31640625 C15.31318359 1.35830078 16.59902344 1.40019531 17.92382812 1.44335938 C19.26171625 1.483157 20.59960691 1.52286951 21.9375 1.5625 C23.30274562 1.60576654 24.66798018 1.64938321 26.03320312 1.69335938 C29.35537652 1.79901153 32.67761946 1.90111395 36 2 C36 2.33 36 2.66 36 3 C24.65019611 3.68416471 13.37204047 4.15298709 2 4 C1.34 2.68 0.68 1.36 0 0 Z " fill="#1B1F36" transform="translate(83,135)"/>
<path d="M0 0 C7.59 0 15.18 0 23 0 C22.67 0.66 22.34 1.32 22 2 C14.87950484 3.29463548 7.02764297 4.03092434 0 2 C0 1.34 0 0.68 0 0 Z " fill="#CA6422" transform="translate(86,142)"/>
<path d="M0 0 C1.75 0.3125 1.75 0.3125 4 1 C5.99788438 1.34578768 7.99759451 1.68143549 10 2 C10.33 1.34 10.66 0.68 11 0 C11 0.99 11 1.98 11 3 C10.34 3 9.68 3 9 3 C9 4.65 9 6.3 9 8 C7.53515625 6.66536458 6.0703125 5.33072917 4.60546875 3.99609375 C4.07566406 3.66738281 3.54585937 3.33867188 3 3 C2.01 3.33 1.02 3.66 0 4 C-1.71567661 7.50294871 -1.71567661 7.50294871 -3 11 C-3.66 11 -4.32 11 -5 11 C-5.33 11.99 -5.66 12.98 -6 14 C-5.34852929 8.52764604 -3.96510537 3.96510537 0 0 Z " fill="#0E1324" transform="translate(122,69)"/>
<path d="M0 0 C0.99 0 1.98 0 3 0 C3.22333047 2.54113858 3.42902091 5.08172584 3.625 7.625 C3.68945312 8.33785156 3.75390625 9.05070312 3.8203125 9.78515625 C4.15497142 14.34488399 3.78239103 17.68688582 2 22 C1.67 22 1.34 22 1 22 C0.92652344 20.39318359 0.92652344 20.39318359 0.8515625 18.75390625 C0.77654706 17.35674361 0.7009987 15.9596095 0.625 14.5625 C0.5940625 13.85544922 0.563125 13.14839844 0.53125 12.41992188 C0.42719371 10.60760812 0.22080108 8.80182012 0 7 C-0.66 6.67 -1.32 6.34 -2 6 C-1.34 4.02 -0.68 2.04 0 0 Z " fill="#23283F" transform="translate(113,80)"/>
<path d="M0 0 C-0.33 0.99 -0.66 1.98 -1 3 C-4.63 3.33 -8.26 3.66 -12 4 C-12 3.67 -12 3.34 -12 3 C-19.59 3 -27.18 3 -35 3 C-35 2.34 -35 1.68 -35 1 C-30.81912796 0.85650316 -26.63821982 0.71412224 -22.45727539 0.57275391 C-21.03636663 0.52455461 -19.615468 0.47605585 -18.19458008 0.42724609 C-16.14667335 0.35695017 -14.09873206 0.28774811 -12.05078125 0.21875 C-10.20480347 0.1559082 -10.20480347 0.1559082 -8.3215332 0.09179688 C-5.54496654 0.01506118 -2.77729118 -0.01843845 0 0 Z " fill="#714A31" transform="translate(120,140)"/>
<path d="M0 0 C0.33 0 0.66 0 1 0 C1.33 5.94 1.66 11.88 2 18 C0.68 18 -0.64 18 -2 18 C-2.054348 15.9377952 -2.09294961 13.87517184 -2.125 11.8125 C-2.14820312 10.66394531 -2.17140625 9.51539062 -2.1953125 8.33203125 C-2.00484152 5.08259628 -1.39360127 2.91339479 0 0 Z " fill="#1F2234" transform="translate(24,87)"/>
<path d="M0 0 C0.94786377 0.02618408 1.89572754 0.05236816 2.87231445 0.0793457 C4.41435547 0.10351562 4.41435547 0.10351562 5.98754883 0.12817383 C7.0594043 0.17006836 8.13125977 0.21196289 9.2355957 0.25512695 C10.31905273 0.27768555 11.40250977 0.30024414 12.51879883 0.32348633 C15.19661475 0.38246906 17.87166597 0.46472388 20.5480957 0.56762695 C20.5480957 0.89762695 20.5480957 1.22762695 20.5480957 1.56762695 C13.19234406 2.27539687 5.9386433 2.71478387 -1.4519043 2.56762695 C-1.4519043 3.22762695 -1.4519043 3.88762695 -1.4519043 4.56762695 C-2.1119043 4.56762695 -2.7719043 4.56762695 -3.4519043 4.56762695 C-3.5962793 5.18637695 -3.7406543 5.80512695 -3.8894043 6.44262695 C-4.4519043 8.56762695 -4.4519043 8.56762695 -5.4519043 10.56762695 C-6.1119043 10.56762695 -6.7719043 10.56762695 -7.4519043 10.56762695 C-3.85857449 0.89327748 -3.85857449 0.89327748 0 0 Z " fill="#B1AD94" transform="translate(49.451904296875,89.432373046875)"/>
<path d="M0 0 C1.98 0 3.96 0 6 0 C5.65930765 3.15140423 5.41923159 4.60781561 3.0625 6.8125 C1 8 1 8 -1 8 C-1.33 8.66 -1.66 9.32 -2 10 C-2 7.36 -2 4.72 -2 2 C-1.34 2 -0.68 2 0 2 C0 1.34 0 0.68 0 0 Z " fill="#EBD8A0" transform="translate(48,92)"/>
<path d="M0 0 C4 4.10810811 4 4.10810811 4 7 C2.35 7.66 0.7 8.32 -1 9 C-1 7.02 -1 5.04 -1 3 C-3.64 3.66 -6.28 4.32 -9 5 C-6.94190898 0.44279846 -5.10282968 -0.72897567 0 0 Z " fill="#3E546A" transform="translate(47,41)"/>
<path d="M0 0 C4.455 0.99 4.455 0.99 9 2 C9.33 3.32 9.66 4.64 10 6 C5.05 6 0.1 6 -5 6 C-4.67 5.34 -4.34 4.68 -4 4 C-1.4375 3.375 -1.4375 3.375 1 3 C0.67 2.01 0.34 1.02 0 0 Z " fill="#CB631E" transform="translate(118,54)"/>
<path d="M0 0 C0.99 0.495 0.99 0.495 2 1 C2.309375 2.36125 2.309375 2.36125 2.625 3.75 C4.55926202 8.32189206 7.72613838 9.75373785 12 12 C8.90279155 12.87840996 7.09354597 12.99435406 4 12 C4 11.34 4 10.68 4 10 C2.68 10 1.36 10 0 10 C0 6.7 0 3.4 0 0 Z " fill="#212434" transform="translate(116,100)"/>
<path d="M0 0 C0.33 0.66 0.66 1.32 1 2 C0.67 2.66 0.34 3.32 0 4 C-0.66 4 -1.32 4 -2 4 C-2 4.66 -2 5.32 -2 6 C-10.1609778 8.43092956 -17.49077472 9.40735653 -26 9 C-26 8.67 -26 8.34 -26 8 C-24.87980469 7.87882812 -23.75960937 7.75765625 -22.60546875 7.6328125 C-21.13276364 7.46396733 -19.66010996 7.29467303 -18.1875 7.125 C-17.44951172 7.04636719 -16.71152344 6.96773438 -15.95117188 6.88671875 C-12.28493819 6.45539714 -10.12048255 6.0803217 -7 4 C-4.68143083 2.45428722 -2.49361571 1.20381448 0 0 Z " fill="#703D1C" transform="translate(96,70)"/>
<path d="M0 0 C2 2 2 2 2 5 C1.34 5 0.68 5 0 5 C0 5.99 0 6.98 0 8 C-0.66 8 -1.32 8 -2 8 C-2.33 8.99 -2.66 9.98 -3 11 C-4.32 11 -5.64 11 -7 11 C-7 11.66 -7 12.32 -7 13 C-9.97 12.67 -12.94 12.34 -16 12 C-16 11.67 -16 11.34 -16 11 C-15.40832031 10.91363281 -14.81664063 10.82726563 -14.20703125 10.73828125 C-8.66159044 9.75222407 -5.61091642 8.5957118 -2 4 C-0.70480005 1.83379456 -0.70480005 1.83379456 0 0 Z " fill="#473E42" transform="translate(84,51)"/>
<path d="M0 0 C3.92272077 3.75216769 3.92272077 3.75216769 4.1328125 7.14453125 C4.1113711 14.46676956 3.64923471 21.70770297 3 29 C2.67 29 2.34 29 2 29 C1.67 20.75 1.34 12.5 1 4 C0.01 3.67 -0.98 3.34 -2 3 C-1.34 2.67 -0.68 2.34 0 2 C0 1.34 0 0.68 0 0 Z " fill="#1D100D" transform="translate(86,26)"/>
<path d="M0 0 C6.7685324 -0.10152799 13.30324864 -0.03026944 20 1 C19.01 1.495 19.01 1.495 18 2 C18 2.66 18 3.32 18 4 C14.37 4 10.74 4 7 4 C7.33 3.01 7.66 2.02 8 1 C5.36 1 2.72 1 0 1 C0 0.67 0 0.34 0 0 Z " fill="#41140F" transform="translate(47,143)"/>
<path d="M0 0 C0.31563182 5.26053037 -0.33409063 8.44573816 -3 13 C-3.33 13 -3.66 13 -4 13 C-4.144375 12.2575 -4.28875 11.515 -4.4375 10.75 C-4.93059024 8.08041771 -4.93059024 8.08041771 -5.6875 5.875 C-6 4 -6 4 -4 1 C-1 0 -1 0 0 0 Z " fill="#79411B" transform="translate(34,29)"/>
<path d="M0 0 C0.99 0.33 1.98 0.66 3 1 C5.13661258 1.15070797 7.27712124 1.2485966 9.41796875 1.31640625 C10.67158203 1.35830078 11.92519531 1.40019531 13.21679688 1.44335938 C15.18229492 1.50233398 15.18229492 1.50233398 17.1875 1.5625 C18.52279978 1.60570992 19.85808652 1.649325 21.19335938 1.69335938 C24.46213297 1.79956502 27.73098333 1.90160997 31 2 C31 2.33 31 2.66 31 3 C18.79 3.33 6.58 3.66 -6 4 C-2 1 -2 1 0 0 Z " fill="#5F290B" transform="translate(32,16)"/>
<path d="M0 0 C0.66 1.32 1.32 2.64 2 4 C-3.74831344 9.89958485 -3.74831344 9.89958485 -7.09375 10.16796875 C-7.8878125 10.17441406 -8.681875 10.18085937 -9.5 10.1875 C-10.2940625 10.20167969 -11.088125 10.21585938 -11.90625 10.23046875 C-14 10 -14 10 -16 8 C-14.35 8 -12.7 8 -11 8 C-11 7.67 -11 7.34 -11 7 C-9.1128125 6.6596875 -9.1128125 6.6596875 -7.1875 6.3125 C-3.82648432 5.49752806 -3.19641677 5.257797 -1 2.375 C-0.67 1.59125 -0.34 0.8075 0 0 Z " fill="#CCCED3" transform="translate(80,52)"/>
<path d="M0 0 C0.33 0 0.66 0 1 0 C1.08687496 3.12482562 1.14034568 6.24934246 1.1875 9.375 C1.22520508 10.70917969 1.22520508 10.70917969 1.26367188 12.0703125 C1.27817383 13.34648438 1.27817383 13.34648438 1.29296875 14.6484375 C1.31653442 15.82672119 1.31653442 15.82672119 1.34057617 17.02880859 C1.22818604 17.67930176 1.1157959 18.32979492 1 19 C0.01 19.66 -0.98 20.32 -2 21 C-2 20.34 -2 19.68 -2 19 C-3.65 19 -5.3 19 -7 19 C-7.33 18.34 -7.66 17.68 -8 17 C-6.35 17 -4.7 17 -3 17 C-0.74566386 11.43930418 -0.40038172 5.9214349 0 0 Z " fill="#161828" transform="translate(134,90)"/>
<path d="M0 0 C1.4800841 0.11362262 2.95910074 0.24122908 4.4375 0.375 C5.26121094 0.44460937 6.08492187 0.51421875 6.93359375 0.5859375 C7.61550781 0.72257812 8.29742187 0.85921875 9 1 C9.33 1.66 9.66 2.32 10 3 C1.09 3 -7.82 3 -17 3 C-17 2.67 -17 2.34 -17 2 C-11.39 2 -5.78 2 0 2 C0 1.34 0 0.68 0 0 Z " fill="#6F3716" transform="translate(70,19)"/>
<path d="M0 0 C2.475 0.495 2.475 0.495 5 1 C5 4.63 5 8.26 5 12 C3.68 12 2.36 12 1 12 C1.020625 10.7625 1.04125 9.525 1.0625 8.25 C1.06766681 5.3359175 0.93015558 2.79046673 0 0 Z " fill="#4F2511" transform="translate(22,72)"/>
<path d="M0 0 C2.55570992 1.0007622 3.79700949 1.68423699 5.30078125 4.0234375 C5.63464844 4.79945312 5.96851562 5.57546875 6.3125 6.375 C6.65925781 7.14585938 7.00601563 7.91671875 7.36328125 8.7109375 C8.08892321 11.31968711 7.96340474 12.49617806 7 15 C6.01 16.485 6.01 16.485 5 18 C4.89042969 17.26394531 4.78085938 16.52789062 4.66796875 15.76953125 C3.82022886 10.55214019 3.11712771 6.39231632 0 2 C0 1.34 0 0.68 0 0 Z " fill="#471D0E" transform="translate(92,21)"/>
<path d="M0 0 C0.66 0.33 1.32 0.66 2 1 C2.625 3.5625 2.625 3.5625 3 6 C3.33 6 3.66 6 4 6 C4 8.31 4 10.62 4 13 C1 9.25 1 9.25 1 7 C-0.98 7 -2.96 7 -5 7 C-4.1875 5.0625 -4.1875 5.0625 -3 3 C-2.01 2.67 -1.02 2.34 0 2 C0 1.34 0 0.68 0 0 Z " fill="#DABE92" transform="translate(62,93)"/>
<path d="M0 0 C0.33 0 0.66 0 1 0 C2.164133 6.03232554 2.22133729 9.49255237 -1 15 C-2.90960906 17.16031192 -4.5302948 18.3871313 -7 20 C-9.19140625 19.625 -9.19140625 19.625 -11 19 C-10.44570312 18.61328125 -9.89140625 18.2265625 -9.3203125 17.828125 C-8.59585938 17.30734375 -7.87140625 16.7865625 -7.125 16.25 C-6.40570313 15.73953125 -5.68640625 15.2290625 -4.9453125 14.703125 C-1.49815979 11.68513588 -0.76858323 8.71060989 -0.375 4.25 C-0.30023438 3.45078125 -0.22546875 2.6515625 -0.1484375 1.828125 C-0.09945312 1.22484375 -0.05046875 0.6215625 0 0 Z " fill="#3B1B0B" transform="translate(91,53)"/>
<path d="M0 0 C0.66 0 1.32 0 2 0 C2.433125 0.474375 2.86625 0.94875 3.3125 1.4375 C5.44693733 3.41383086 7.16307947 3.61663236 10 4 C10 4.66 10 5.32 10 6 C10.99 6.33 11.98 6.66 13 7 C8.71 6.67 4.42 6.34 0 6 C0 4.02 0 2.04 0 0 Z " fill="#BA5D1E" transform="translate(22,66)"/>
<path d="M0 0 C0.33 2.31 0.66 4.62 1 7 C-0.79458945 6.77192509 -2.58575449 6.51677697 -4.375 6.25 C-5.37273437 6.11078125 -6.37046875 5.9715625 -7.3984375 5.828125 C-10 5 -10 5 -11.3515625 2.921875 C-11.56554687 2.28765625 -11.77953125 1.6534375 -12 1 C-11.34 1 -10.68 1 -10 1 C-10 1.66 -10 2.32 -10 3 C-7.69 3 -5.38 3 -3 3 C-3 2.34 -3 1.68 -3 1 C-1 0 -1 0 0 0 Z " fill="#9D4821" transform="translate(130,51)"/>
<path d="M0 0 C0.33 1.32 0.66 2.64 1 4 C0.34 4 -0.32 4 -1 4 C-1.144375 4.61875 -1.28875 5.2375 -1.4375 5.875 C-2 8 -2 8 -3 10 C-9.27 10 -15.54 10 -22 10 C-22 9.67 -22 9.34 -22 9 C-16.39 9 -10.78 9 -5 9 C-4.34 7.68 -3.68 6.36 -3 5 C-2.01120795 3.32665961 -1.01351664 1.65848177 0 0 Z " fill="#50504C" transform="translate(73,108)"/>
<path d="M0 0 C0 1.32 0 2.64 0 4 C-0.99 4.66 -1.98 5.32 -3 6 C-3.33 6.66 -3.66 7.32 -4 8 C-5.32 7.67 -6.64 7.34 -8 7 C-8.33 7.66 -8.66 8.32 -9 9 C-8.70460812 5.45529741 -8.22373481 4.21784705 -5.625 1.6875 C-3 0 -3 0 0 0 Z " fill="#E1D6A4" transform="translate(60,107)"/>
<path d="M0 0 C2.31 0 4.62 0 7 0 C6.67 0.66 6.34 1.32 6 2 C4.35 2 2.7 2 1 2 C0.67 2.66 0.34 3.32 0 4 C1.98 4 3.96 4 6 4 C5.67 4.66 5.34 5.32 5 6 C3.01354224 6.40632091 1.00946222 6.72949547 -1 7 C-2.66804677 7.32635698 -4.33524314 7.65725594 -6 8 C-6 7.34 -6 6.68 -6 6 C-5.34 6 -4.68 6 -4 6 C-4 5.34 -4 4.68 -4 4 C-3.34 4 -2.68 4 -2 4 C-1.34 2.68 -0.68 1.36 0 0 Z " fill="#573E63" transform="translate(56,100)"/>
<path d="M0 0 C2 3 2 3 3.6875 6 C6.57392241 9.74454799 8.60596 10.47898615 13 12 C13 12.33 13 12.66 13 13 C6.375 12.25 6.375 12.25 3 10 C2.34 10.99 1.68 11.98 1 13 C0.67 8.71 0.34 4.42 0 0 Z " fill="#38333D" transform="translate(30,51)"/>
<path d="M0 0 C4.82029598 3.73572939 4.82029598 3.73572939 5.33203125 7.3359375 C5.31436669 9.5758033 5.21850902 11.77120799 5 14 C4.67 14 4.34 14 4 14 C3.67 11.69 3.34 9.38 3 7 C1.58422523 8.18424326 1.58422523 8.18424326 1.9375 11.5625 C1.958125 12.696875 1.97875 13.83125 2 15 C1.67 15 1.34 15 1 15 C0.51171875 12.98177083 0.0234375 10.96354167 -0.46484375 8.9453125 C-0.94846992 6.9414343 -0.94846992 6.9414343 -2 5 C-1.34 5 -0.68 5 0 5 C0 3.35 0 1.7 0 0 Z " fill="#CED0D3" transform="translate(50,37)"/>
<path d="M0 0 C0.33 0 0.66 0 1 0 C1.33776684 1.7491497 1.67003671 3.49936145 2 5.25 C2.185625 6.22453125 2.37125 7.1990625 2.5625 8.203125 C3 11 3 11 3 15 C2.01 15 1.02 15 0 15 C-1.6117046 10.1648862 -1.60116168 4.80348505 0 0 Z " fill="#C35E1F" transform="translate(115,37)"/>
<path d="M0 0 C2.48020497 0.11341491 4.95844969 0.24014686 7.4375 0.375 C8.14455078 0.4059375 8.85160156 0.436875 9.58007812 0.46875 C11.39239188 0.57280629 13.19817988 0.77919892 15 1 C15.33 1.66 15.66 2.32 16 3 C13.70839681 3.02692484 11.41670454 3.04636124 9.125 3.0625 C7.84882812 3.07410156 6.57265625 3.08570313 5.2578125 3.09765625 C2 3 2 3 0 2 C0 1.34 0 0.68 0 0 Z " fill="#D06926" transform="translate(40,139)"/>
<path d="M0 0 C1.32 0 2.64 0 4 0 C4 1.98 4 3.96 4 6 C-4.57142857 5.14285714 -4.57142857 5.14285714 -8 3 C-6.865625 2.87625 -5.73125 2.7525 -4.5625 2.625 C-3.386875 2.41875 -2.21125 2.2125 -1 2 C-0.67 1.34 -0.34 0.68 0 0 Z " fill="#0D0C17" transform="translate(120,135)"/>
<path d="M0 0 C0.66 1.32 1.32 2.64 2 4 C0.29171079 6.10633718 -0.52148416 6.93801608 -3.26171875 7.29296875 C-4.06222656 7.25816406 -4.86273438 7.22335938 -5.6875 7.1875 C-6.49574219 7.16042969 -7.30398437 7.13335937 -8.13671875 7.10546875 C-8.75160156 7.07066406 -9.36648437 7.03585938 -10 7 C-9.01 6.34 -8.02 5.68 -7 5 C-5.76779826 4.12927928 -4.53869541 3.25415898 -3.3125 2.375 C-2.37857422 1.70597656 -2.37857422 1.70597656 -1.42578125 1.0234375 C-0.95527344 0.68570313 -0.48476562 0.34796875 0 0 Z " fill="#9C5729" transform="translate(89,68)"/>
<path d="M0 0 C0.66 0 1.32 0 2 0 C2.33 0.66 2.66 1.32 3 2 C3.66 1.34 4.32 0.68 5 0 C5 1.98 5 3.96 5 6 C5.66 6 6.32 6 7 6 C7 7.32 7 8.64 7 10 C3.64501065 8.61172854 1.84949545 7.14414226 0 4 C0 2.68 0 1.36 0 0 Z " fill="#885539" transform="translate(15,64)"/>
<path d="M0 0 C-0.804375 0.45375 -1.60875 0.9075 -2.4375 1.375 C-5.08856572 2.74725665 -5.08856572 2.74725665 -6 5 C-6.99 5.33 -7.98 5.66 -9 6 C-10.20882096 8.00016466 -10.20882096 8.00016466 -11 10 C-11.66 10 -12.32 10 -13 10 C-11.79645581 5.58700462 -10.56751319 2.91887443 -7 0 C-3.86650268 -1.04449911 -3.01031744 -0.93423645 0 0 Z " fill="#4E3320" transform="translate(32,17)"/>
<path d="M0 0 C0.46707789 4.01686987 0.32150834 5.56501812 -2.125 8.875 C-5.43498188 11.32150834 -6.98313013 11.46707789 -11 11 C-11 10.67 -11 10.34 -11 10 C-9.35 10 -7.7 10 -6 10 C-6 9.34 -6 8.68 -6 8 C-5.01 8 -4.02 8 -3 8 C-3 6.68 -3 5.36 -3 4 C-3.66 3.34 -4.32 2.68 -5 2 C-2 0 -2 0 0 0 Z " fill="#333D4B" transform="translate(51,48)"/>
<path d="M0 0 C-1.01953125 1.51953125 -1.01953125 1.51953125 -3 3 C-5.67108574 3.05546517 -8.05292823 2.96547069 -10.6875 2.6875 C-11.38939453 2.62626953 -12.09128906 2.56503906 -12.81445312 2.50195312 C-14.5442967 2.34897376 -16.27238497 2.17637398 -18 2 C-18 1.67 -18 1.34 -18 1 C-11.95170514 0.10395632 -6.1105424 -0.11269443 0 0 Z " fill="#33160A" transform="translate(55,22)"/>
<path d="M0 0 C0.33 1.32 0.66 2.64 1 4 C1.66 4 2.32 4 3 4 C2.67 7.63 2.34 11.26 2 15 C1.01 15 0.02 15 -1 15 C-1.10251672 9.87416389 -1.03590199 5.05002222 0 0 Z " fill="#06090A" transform="translate(19,90)"/>
<path d="M0 0 C0.33 0 0.66 0 1 0 C2.75640539 13.07781363 2.75640539 13.07781363 -1 18 C-3.11328125 19.1484375 -3.11328125 19.1484375 -5 20 C-4.360625 18.9275 -3.72125 17.855 -3.0625 16.75 C-0.33389816 11.38921335 -0.1974507 5.92352087 0 0 Z " fill="#491C0C" transform="translate(97,53)"/>
<path d="M0 0 C0.33 1.32 0.66 2.64 1 4 C0.34 4 -0.32 4 -1 4 C-1 5.98 -1 7.96 -1 10 C0.65 9.67 2.3 9.34 4 9 C4 9.99 4 10.98 4 12 C3.01 12 2.02 12 1 12 C0.67 12.66 0.34 13.32 0 14 C-2.08940868 10.86588698 -2.27364412 10.02549528 -2.25 6.4375 C-2.25515625 5.65246094 -2.2603125 4.86742187 -2.265625 4.05859375 C-2 2 -2 2 0 0 Z " fill="#464E5A" transform="translate(67,44)"/>
<path d="M0 0 C2.49040942 2.49040942 2.32391014 3.43154357 2.375 6.875 C2.40335938 7.73867188 2.43171875 8.60234375 2.4609375 9.4921875 C1.86579923 12.73014316 0.46338862 13.90660651 -2 16 C-1.85890014 13.89551062 -1.71195825 11.7914123 -1.5625 9.6875 C-1.48128906 8.51574219 -1.40007813 7.34398437 -1.31640625 6.13671875 C-1 3 -1 3 0 0 Z " fill="#E9ECED" transform="translate(52,42)"/>
<path d="M0 0 C1.98 0 3.96 0 6 0 C4.68 0.33 3.36 0.66 2 1 C2 1.66 2 2.32 2 3 C2.99 3.33 3.98 3.66 5 4 C4.67 4.99 4.34 5.98 4 7 C1.5625 6.1875 1.5625 6.1875 -1 5 C-1.33 4.01 -1.66 3.02 -2 2 C-1.34 2 -0.68 2 0 2 C0 1.34 0 0.68 0 0 Z " fill="#542C0E" transform="translate(38,138)"/>
<path d="M0 0 C0.33 0 0.66 0 1 0 C1.25 6.625 1.25 6.625 -1 10 C-1.99 10 -2.98 10 -4 10 C-3.4359146 6.05140217 -2.2568294 3.29120954 0 0 Z " fill="#0E1023" transform="translate(126,124)"/>
<path d="M0 0 C0.66 0.33 1.32 0.66 2 1 C2.6328125 3.06640625 2.6328125 3.06640625 3.125 5.5625 C3.29257812 6.38878906 3.46015625 7.21507812 3.6328125 8.06640625 C3.75398438 8.70449219 3.87515625 9.34257812 4 10 C2.68 9.67 1.36 9.34 0 9 C0 7.68 0 6.36 0 5 C-0.66 5 -1.32 5 -2 5 C-2 4.01 -2 3.02 -2 2 C-1.34 2 -0.68 2 0 2 C0 1.34 0 0.68 0 0 Z " fill="#0F131F" transform="translate(32,121)"/>
<path d="M0 0 C2.31 0 4.62 0 7 0 C7 0.66 7 1.32 7 2 C5.68 2 4.36 2 3 2 C3 2.66 3 3.32 3 4 C2.34 4 1.68 4 1 4 C1 4.66 1 5.32 1 6 C-0.32 6 -1.64 6 -3 6 C-3 5.34 -3 4.68 -3 4 C-2.34 4 -1.68 4 -1 4 C-0.67 2.68 -0.34 1.36 0 0 Z " fill="#B95D1A" transform="translate(29,20)"/>
<path d="M0 0 C2.31 0.33 4.62 0.66 7 1 C7.33 2.98 7.66 4.96 8 7 C7.01 7 6.02 7 5 7 C5 5.68 5 4.36 5 3 C3.02 3 1.04 3 -1 3 C-0.67 2.01 -0.34 1.02 0 0 Z " fill="#302B6E" transform="translate(57,101)"/>
<path d="M0 0 C0 0.66 0 1.32 0 2 C-1.32 2 -2.64 2 -4 2 C-4 2.66 -4 3.32 -4 4 C-7.01031744 4.93423645 -7.86650268 5.04449911 -11 4 C-11 3.34 -11 2.68 -11 2 C-7.17010894 0.19769832 -4.21878192 -0.19622241 0 0 Z " fill="#4F2F21" transform="translate(60,10)"/>
<path d="M0 0 C3.96 0.33 7.92 0.66 12 1 C11.67 1.99 11.34 2.98 11 4 C11 3.34 11 2.68 11 2 C9.68 2.33 8.36 2.66 7 3 C7.33 3.99 7.66 4.98 8 6 C7.01 6 6.02 6 5 6 C5 4.35 5 2.7 5 1 C3.35 1.33 1.7 1.66 0 2 C0 1.34 0 0.68 0 0 Z " fill="#121622" transform="translate(68,132)"/>
<path d="M0 0 C0.66 0 1.32 0 2 0 C1.49396008 2.16874252 1.00016187 3.99967627 0 6 C-0.66 6 -1.32 6 -2 6 C-2 6.66 -2 7.32 -2 8 C-2.99 8 -3.98 8 -5 8 C-5 6.68 -5 5.36 -5 4 C-4.01 4 -3.02 4 -2 4 C-1.34 2.68 -0.68 1.36 0 0 Z " fill="#DF6130" transform="translate(54,98)"/>
<path d="M0 0 C0.66 0 1.32 0 2 0 C3.67357513 5.37305699 3.67357513 5.37305699 4 8 C2.625 10 2.625 10 1 11 C0.67 9.35 0.34 7.7 0 6 C-0.66 6 -1.32 6 -2 6 C-1.34 4.02 -0.68 2.04 0 0 Z " fill="#2A2838" transform="translate(131,72)"/>
<path d="M0 0 C0.99 0 1.98 0 3 0 C3 0.66 3 1.32 3 2 C4.32 1.67 5.64 1.34 7 1 C7 1.99 7 2.98 7 4 C6.34 4 5.68 4 5 4 C5 4.66 5 5.32 5 6 C3.68 6 2.36 6 1 6 C1 4.68 1 3.36 1 2 C0.34 1.67 -0.32 1.34 -1 1 C-0.67 0.67 -0.34 0.34 0 0 Z " fill="#1C0607" transform="translate(71,50)"/>
<path d="M0 0 C0.75 1.6875 0.75 1.6875 1 4 C0.38125 4.763125 -0.2375 5.52625 -0.875 6.3125 C-3.44732465 9.56573412 -3.68042429 11.92540965 -4 16 C-4.33 16 -4.66 16 -5 16 C-5.51257038 9.59287031 -5.13597047 6.01329753 -1 1 C-0.67 0.67 -0.34 0.34 0 0 Z " fill="#CBCACC" transform="translate(63,37)"/>
<path d="M0 0 C3.63 0 7.26 0 11 0 C11 1.32 11 2.64 11 4 C7.1936543 3.32829194 3.64793184 2.27253436 0 1 C0 0.67 0 0.34 0 0 Z " fill="#140806" transform="translate(77,18)"/>
<path d="M0 0 C0.66 0 1.32 0 2 0 C1.8125 1.875 1.8125 1.875 1 4 C-2.37823976 5.87679987 -5.17632299 6.21849583 -9 6 C-8.01 5.67 -7.02 5.34 -6 5 C-6 4.34 -6 3.68 -6 3 C-4.02 2.67 -2.04 2.34 0 2 C0 1.34 0 0.68 0 0 Z " fill="#AC5519" transform="translate(94,74)"/>
<path d="M0 0 C0 3 0 3 -0.9375 5.0625 C-4.09750588 8.03099038 -7.81086973 8.33254948 -12 9 C-12 8.34 -12 7.68 -12 7 C-10.700625 6.6596875 -10.700625 6.6596875 -9.375 6.3125 C-5.38221186 4.75974905 -3.15751695 2.85680105 0 0 Z " fill="#2B1E1C" transform="translate(86,61)"/>
<path d="M0 0 C3 1 3 1 4.16796875 2.671875 C7.55343511 9.57251908 7.55343511 9.57251908 7 14 C6.34 14 5.68 14 5 14 C4.731875 12.989375 4.46375 11.97875 4.1875 10.9375 C3.1064844 7.12672558 1.62137662 3.61124792 0 0 Z " fill="#844E2D" transform="translate(90,22)"/>
<path d="M0 0 C0.99 0 1.98 0 3 0 C3 2.31 3 4.62 3 7 C4.32 7.33 5.64 7.66 7 8 C5.68 8 4.36 8 3 8 C3 8.66 3 9.32 3 10 C2.01 9.67 1.02 9.34 0 9 C0 6.03 0 3.06 0 0 Z " fill="#11131B" transform="translate(19,98)"/>
<path d="M0 0 C3.6 5.4 3.6 5.4 5 8 C4.67 8.66 4.34 9.32 4 10 C2.0625 9.375 2.0625 9.375 0 8 C-1.40540541 2.81081081 -1.40540541 2.81081081 0 0 Z " fill="#1C2034" transform="translate(121,40)"/>
<path d="M0 0 C2 3 2 3 2 6 C4.64 6 7.28 6 10 6 C10 6.33 10 6.66 10 7 C6.7 7 3.4 7 0 7 C0 6.01 0 5.02 0 4 C-0.66 4 -1.32 4 -2 4 C-2 3.01 -2 2.02 -2 1 C-1.34 0.67 -0.68 0.34 0 0 Z " fill="#171927" transform="translate(36,130)"/>
<path d="M0 0 C1.5 1.1875 1.5 1.1875 3 3 C3.1875 5.6875 3.1875 5.6875 3 8 C2.34 7.01 1.68 6.02 1 5 C-0.32 5.33 -1.64 5.66 -3 6 C-3 4.68 -3 3.36 -3 2 C-2.01 2 -1.02 2 0 2 C0 1.34 0 0.68 0 0 Z " fill="#6C7884" transform="translate(78,44)"/>
<path d="M0 0 C2.64 0.66 5.28 1.32 8 2 C8.33 3.32 8.66 4.64 9 6 C4.58763974 6 3.21615077 3.9302707 0 1 C0 0.67 0 0.34 0 0 Z " fill="#783718" transform="translate(106,15)"/>
<path d="M0 0 C0.66 1.32 1.32 2.64 2 4 C1.01 4.495 1.01 4.495 0 5 C0.33 6.65 0.66 8.3 1 10 C0.34 10 -0.32 10 -1 10 C-1.12375 8.865625 -1.2475 7.73125 -1.375 6.5625 C-1.58125 5.386875 -1.7875 4.21125 -2 3 C-2.66 2.67 -3.32 2.34 -4 2 C-2.68 1.34 -1.36 0.68 0 0 Z " fill="#0F111B" transform="translate(28,106)"/>
<path d="M0 0 C2.475 0.495 2.475 0.495 5 1 C5.33 1.99 5.66 2.98 6 4 C4.0625 7.1875 4.0625 7.1875 2 10 C1.67 8.68 1.34 7.36 1 6 C1.66 6 2.32 6 3 6 C3 4.68 3 3.36 3 2 C2.01 2 1.02 2 0 2 C0 1.34 0 0.68 0 0 Z " fill="#363C50" transform="translate(41,88)"/>
<path d="M0 0 C0.33 0 0.66 0 1 0 C1 2.31 1 4.62 1 7 C2.32 7 3.64 7 5 7 C5 7.99 5 8.98 5 10 C4.34 10 3.68 10 3 10 C2.67 10.66 2.34 11.32 2 12 C-0.13586678 8.79619983 -0.23132175 7.98060033 -0.125 4.3125 C-0.10695312 3.50425781 -0.08890625 2.69601563 -0.0703125 1.86328125 C-0.04710937 1.24839844 -0.02390625 0.63351563 0 0 Z " fill="#494E59" transform="translate(37,46)"/>
<path d="M0 0 C1.32 0.33 2.64 0.66 4 1 C4 1.66 4 2.32 4 3 C4.66 3 5.32 3 6 3 C6 5.64 6 8.28 6 11 C3.34802815 8.34802815 2.415499 5.44643234 1 2 C0.67 1.34 0.34 0.68 0 0 Z " fill="#D66B25" transform="translate(94,21)"/>
<path d="M0 0 C3.63 0 7.26 0 11 0 C11 0.66 11 1.32 11 2 C11.66 2 12.32 2 13 2 C13 2.66 13 3.32 13 4 C8.71 3.01 4.42 2.02 0 1 C0 0.67 0 0.34 0 0 Z " fill="#C96020" transform="translate(79,16)"/>
<path d="M0 0 C3.3 0.33 6.6 0.66 10 1 C9.67 1.99 9.34 2.98 9 4 C6.03 3.67 3.06 3.34 0 3 C0 2.01 0 1.02 0 0 Z " fill="#663B2D" transform="translate(45,143)"/>
<path d="M0 0 C0.33 0.66 0.66 1.32 1 2 C1.66 2 2.32 2 3 2 C2.25 8.75 2.25 8.75 0 11 C0 7.37 0 3.74 0 0 Z " fill="#29212B" transform="translate(55,41)"/>
<path d="M0 0 C-0.57344937 2.86724686 -0.8614515 3.8614515 -3 6 C-4.32 6 -5.64 6 -7 6 C-7 5.34 -7 4.68 -7 4 C-6.01 4 -5.02 4 -4 4 C-4 3.01 -4 2.02 -4 1 C-2 0 -2 0 0 0 Z " fill="#392B28" transform="translate(123,140)"/>
<path d="M0 0 C3.08089673 2.77280706 4.68775452 5.06326356 6 9 C3.525 8.01 3.525 8.01 1 7 C0.67 4.69 0.34 2.38 0 0 Z " fill="#D0CAA4" transform="translate(69,91)"/>
<path d="M0 0 C1.80411967 2.75924185 2.0127245 3.88972103 1.625 7.25 C1.41875 8.1575 1.2125 9.065 1 10 C0.34 10 -0.32 10 -1 10 C-1.125 2.25 -1.125 2.25 0 0 Z " fill="#322A2C" transform="translate(130,40)"/>
<path d="M0 0 C2.64 0 5.28 0 8 0 C8.33 1.32 8.66 2.64 9 4 C8.34 4 7.68 4 7 4 C7 3.34 7 2.68 7 2 C4.36 2 1.72 2 -1 2 C-0.67 1.34 -0.34 0.68 0 0 Z " fill="#27415B" transform="translate(69,42)"/>
<path d="M0 0 C0.66 1.32 1.32 2.64 2 4 C0.71034824 5.37562854 -0.62689293 6.70766393 -2 8 C-2.66 8 -3.32 8 -4 8 C-2.87548273 5.0280615 -1.77706209 2.66559313 0 0 Z " fill="#2E1C14" transform="translate(37,30)"/>
<path d="M0 0 C0.66 0.33 1.32 0.66 2 1 C0.35 4.3 -1.3 7.6 -3 11 C-3.33 11 -3.66 11 -4 11 C-4 9.02 -4 7.04 -4 5 C-3.34 5 -2.68 5 -2 5 C-1.34 3.35 -0.68 1.7 0 0 Z " fill="#311308" transform="translate(23,22)"/>
<path d="M0 0 C0.99 0.33 1.98 0.66 3 1 C2.01 3.31 1.02 5.62 0 8 C-0.99 7.67 -1.98 7.34 -3 7 C-1.125 1.125 -1.125 1.125 0 0 Z " fill="#2E130A" transform="translate(27,28)"/>
<path d="M0 0 C0.99 0 1.98 0 3 0 C3 3.3 3 6.6 3 10 C2.01 9.67 1.02 9.34 0 9 C0.185625 8.2575 0.37125 7.515 0.5625 6.75 C0.99203108 4.05009037 0.85122974 2.55368923 0 0 Z " fill="#383949" transform="translate(75,98)"/>
<path d="M0 0 C4.875 4.75 4.875 4.75 6 7 C1.125 6.125 1.125 6.125 0 5 C-0.04063832 3.33382885 -0.042721 1.66611905 0 0 Z " fill="#392827" transform="translate(119,45)"/>
<path d="M0 0 C0.94875 0.350625 1.8975 0.70125 2.875 1.0625 C2.875 1.3925 2.875 1.7225 2.875 2.0625 C-3.065 2.5575 -3.065 2.5575 -9.125 3.0625 C-3.60119048 -1.08035714 -3.60119048 -1.08035714 0 0 Z " fill="#31170C" transform="translate(35.125,16.9375)"/>
<path d="M0 0 C1.98 0.66 3.96 1.32 6 2 C2.73454239 3.88391785 -0.28111761 4.49287967 -4 5 C-4 4.34 -4 3.68 -4 3 C-2.68 3 -1.36 3 0 3 C0 2.01 0 1.02 0 0 Z " fill="#422012" transform="translate(60,9)"/>
<path d="M0 0 C4.6875 0.78125 4.6875 0.78125 9.375 1.5625 C10.674375 1.7790625 10.674375 1.7790625 12 2 C12 2.33 12 2.66 12 3 C10.37509046 3.02698189 8.75005367 3.04638757 7.125 3.0625 C5.76761719 3.07990234 5.76761719 3.07990234 4.3828125 3.09765625 C2 3 2 3 0 2 C0 1.34 0 0.68 0 0 Z " fill="#2D2833" transform="translate(62,61)"/>
<path d="M0 0 C-0.99 0.33 -1.98 0.66 -3 1 C-3 1.66 -3 2.32 -3 3 C-4.98 3 -6.96 3 -9 3 C-9 2.34 -9 1.68 -9 1 C-3.375 -1.125 -3.375 -1.125 0 0 Z " fill="#68463B" transform="translate(130,51)"/>
<path d="M0 0 C0.33 0 0.66 0 1 0 C1.33 3.3 1.66 6.6 2 10 C1.34 9.01 0.68 8.02 0 7 C-0.66 7 -1.32 7 -2 7 C-1.34 4.69 -0.68 2.38 0 0 Z " fill="#57281A" transform="translate(18,28)"/>
<path d="M0 0 C1.21236328 0.01353516 1.21236328 0.01353516 2.44921875 0.02734375 C3.37154297 0.04474609 3.37154297 0.04474609 4.3125 0.0625 C3.3125 2.0625 3.3125 2.0625 1.4375 2.75 C-0.6875 3.0625 -0.6875 3.0625 -3.6875 2.0625 C-5.01856622 1.72022583 -6.35150079 1.38498257 -7.6875 1.0625 C-4.80538698 0.10179566 -2.98899956 -0.04331883 0 0 Z " fill="#663C20" transform="translate(39.6875,25.9375)"/>
<path d="M0 0 C0.66 0.33 1.32 0.66 2 1 C1.67 1.99 1.34 2.98 1 4 C0.34 4 -0.32 4 -1 4 C-1 4.66 -1 5.32 -1 6 C-2.98 6.99 -2.98 6.99 -5 8 C-3.8141763 4.62496331 -2.72426311 2.35277269 0 0 Z " fill="#955229" transform="translate(27,20)"/>
<path d="M0 0 C0.33 1.65 0.66 3.3 1 5 C0.01 4.67 -0.98 4.34 -2 4 C-2 3.34 -2 2.68 -2 2 C-3.65 2.66 -5.3 3.32 -7 4 C-3.375 0 -3.375 0 0 0 Z " fill="#D88850" transform="translate(62,92)"/>
<path d="M0 0 C0.99 0 1.98 0 3 0 C3.33 1.32 3.66 2.64 4 4 C2.68 4.33 1.36 4.66 0 5 C-0.66 4.01 -1.32 3.02 -2 2 C-1.34 2 -0.68 2 0 2 C0 1.34 0 0.68 0 0 Z " fill="#32354C" transform="translate(52,34)"/>
<path d="M0 0 C1.98 0.99 1.98 0.99 4 2 C3.67 3.65 3.34 5.3 3 7 C2.01 6.34 1.02 5.68 0 5 C-0.1875 2.375 -0.1875 2.375 0 0 Z " fill="#0E090E" transform="translate(81,135)"/>
<path d="M0 0 C0.94875 0.04125 1.8975 0.0825 2.875 0.125 C2.545 1.775 2.215 3.425 1.875 5.125 C-0.435 4.135 -2.745 3.145 -5.125 2.125 C-3.125 0.125 -3.125 0.125 0 0 Z " fill="#50525B" transform="translate(80.125,133.875)"/>
<path d="M0 0 C2 3 2 3 1.75 5.625 C1.5025 6.40875 1.255 7.1925 1 8 C0.01 8.495 0.01 8.495 -1 9 C-1.33 7.68 -1.66 6.36 -2 5 C-1.34 4.67 -0.68 4.34 0 4 C0 2.68 0 1.36 0 0 Z " fill="#463C6F" transform="translate(64,103)"/>
<path d="M0 0 C0.66 0.33 1.32 0.66 2 1 C1.67 3.31 1.34 5.62 1 8 C0.34 8 -0.32 8 -1 8 C-0.67 5.36 -0.34 2.72 0 0 Z " fill="#77472F" transform="translate(24,76)"/>
<path d="M0 0 C0.66 1.32 1.32 2.64 2 4 C0.35 4.66 -1.3 5.32 -3 6 C-3 4.68 -3 3.36 -3 2 C-2.01 2 -1.02 2 0 2 C0 1.34 0 0.68 0 0 Z " fill="#768190" transform="translate(49,44)"/>
<path d="M0 0 C1.32 0 2.64 0 4 0 C3.67 1.65 3.34 3.3 3 5 C2.01 4.67 1.02 4.34 0 4 C0 2.68 0 1.36 0 0 Z " fill="#210404" transform="translate(40,46)"/>
<path d="M0 0 C3 1 3 1 4 3 C1.69 3.33 -0.62 3.66 -3 4 C-2.67 3.01 -2.34 2.02 -2 1 C-1.34 0.67 -0.68 0.34 0 0 Z " fill="#23232D" transform="translate(42,30)"/>
</svg>
